<svg width="281" height="50" viewBox="0 0 281 50" fill="none" xmlns="http://www.w3.org/2000/svg">
<g clip-path="url(#clip0_894_33298)">
<path d="M0.0234375 0.166664H48.6446V25.1429C48.6446 31.5476 45.3099 37.4524 39.8765 40.6667L24.3457 49.8333L8.81489 40.6667C3.38145 37.4762 0.0467566 31.5476 0.0467566 25.1429V0.166664H0.0234375Z" fill="#FFDD2D"/>
<path fill-rule="evenodd" clip-rule="evenodd" d="M13.3633 13.3095V21.0714C14.4127 19.881 16.3015 19.0714 18.4469 19.0714H20.8022V28.0952C20.8022 30.5 20.1726 32.5952 19.2165 33.7619H29.4304C28.4743 32.5952 27.8447 30.5 27.8447 28.0952V19.0714H30.2C32.3687 19.0714 34.2576 19.881 35.2836 21.0714V13.3095H13.3633Z" fill="#333333"/>
<path d="M268.544 12.1429V14.2143C276.239 14.3809 280.833 17.6905 280.833 23.5238C280.833 29.3571 276.239 32.4048 268.544 32.5952V34.6667H262.458V32.5952C254.809 32.4286 250.215 29.3809 250.215 23.5238C250.215 17.6905 254.809 14.3809 262.458 14.2143V12.1429H268.544ZM262.458 28.2143V18.6429C258.26 18.8095 256.395 20.7857 256.395 23.5476C256.395 26.2857 258.26 28.0476 262.458 28.2143ZM268.544 18.6429V28.2143C272.788 28.0476 274.607 26.2857 274.607 23.5238C274.607 20.7857 272.811 18.8095 268.544 18.6429Z" fill="#333333"/>
<path d="M235.993 12.1429V14.2143C243.689 14.3809 248.283 17.6905 248.283 23.5238C248.283 29.3571 243.689 32.4048 235.993 32.5952V34.6667H229.907V32.5952C222.258 32.4286 217.664 29.3809 217.664 23.5238C217.664 17.6905 222.258 14.3809 229.907 14.2143V12.1429H235.993ZM229.883 28.2143V18.6429C225.686 18.8095 223.82 20.7857 223.82 23.5476C223.844 26.2857 225.686 28.0476 229.883 28.2143ZM235.993 18.6429V28.2143C240.237 28.0476 242.056 26.2857 242.056 23.5238C242.056 20.7857 240.237 18.8095 235.993 18.6429Z" fill="#333333"/>
<path d="M202.598 12.7619C210.759 12.7619 215.68 17.4762 215.68 23.5714C215.68 29.6667 210.759 34.3809 202.598 34.3809C194.389 34.3809 189.469 29.6667 189.469 23.5714C189.492 17.4762 194.412 12.7619 202.598 12.7619ZM202.598 29.4048C206.632 29.4048 209.29 26.9048 209.29 23.5714C209.29 20.2143 206.632 17.7857 202.598 17.7857C198.517 17.7857 195.905 20.2381 195.905 23.5714C195.905 26.9286 198.517 29.4048 202.598 29.4048Z" fill="#333333"/>
<path d="M174.66 26.0238H172.981V33.7619H166.895V13.3333H172.981V21.0238H174.66L182.029 13.3333H189.678L179.93 23.0952L190.074 33.7381H181.959L174.66 26.0238Z" fill="#333333"/>
<path d="M154.699 33.7619H142.34V13.3333H148.45V18.8095H154.722C156.238 18.8095 157.824 18.8571 159.177 19.3571C161.998 20.4286 163.77 22.7857 163.77 26.1905C163.77 29.7619 161.718 32.3809 158.547 33.2857C157.334 33.619 156.075 33.7619 154.699 33.7619ZM153.626 23.619H148.403V28.8095H153.626C154.676 28.8095 155.352 28.8095 156.028 28.5C156.984 28.0714 157.591 27.1667 157.591 26.0952C157.591 25.0714 157.008 24.2143 155.982 23.8571C155.282 23.619 154.466 23.619 153.626 23.619Z" fill="#333333"/>
<path d="M131.615 26.1429H121.821V33.7381H115.734V13.3095H121.821V20.7857H131.615V13.3095H137.701V33.7381H131.615V26.1429Z" fill="#333333"/>
<path d="M95.188 25.2143L105.705 13.3095H111.092V33.7381H105.005V21.8333L94.4884 33.7381H89.1016V13.3095H95.188V25.2143Z" fill="#333333"/>
<path d="M77.9085 33.7619H71.5889V18.7857H62.9141V13.3333H86.56V18.7857H77.9085V33.7619Z" fill="#333333"/>
</g>
<defs>
<clipPath id="clip0_894_33298">
<rect width="281" height="50" fill="white"/>
</clipPath>
</defs>
</svg>
