<svg width="216" height="44" viewBox="0 0 216 44" fill="none" xmlns="http://www.w3.org/2000/svg">
<g clip-path="url(#clip0_894_33313)">
<path d="M208.59 8.6918L201.22 17.065V8.6918H195.887V29.8292H201.22V20.9301L209.109 29.8292H215.998L206.295 18.7541L215.296 8.6918H208.59Z" fill="#EF3124"/>
<path d="M186.484 16.5751H179.114V8.6918H173.777V29.8292H179.114V21.4951H186.484V29.8292H191.817V8.6918H186.484V16.5751Z" fill="#EF3124"/>
<mask id="mask0_894_33313" style="mask-type:luminance" maskUnits="userSpaceOnUse" x="0" y="0" width="216" height="44">
<path d="M216 0H0V44H216V0Z" fill="white"/>
</mask>
<g mask="url(#mask0_894_33313)">
<path d="M31.6679 20.1426C31.5404 24.0858 31.0394 24.8732 28.8516 24.8732V29.8292H29.6668C35.1187 29.8292 36.4291 26.974 36.6306 20.6295L36.853 13.6087H41.9639V29.8292H47.2972V8.6918H32.0385L31.6679 20.1426Z" fill="#EF3124"/>
<path d="M60.5554 15.1115H56.7044V8.6918H51.3711V29.8292H60.6295C66.446 29.8292 68.5183 26.0003 68.5183 22.3937C68.5183 17.7383 65.6278 15.1085 60.5554 15.1085M60.1492 25.1708H56.7044V19.8H60.1492C62.0021 19.8 63.1109 20.6265 63.1109 22.3907C63.1109 24.3052 62.0377 25.1708 60.1492 25.1708Z" fill="#EF3124"/>
<path d="M85.8872 8.20191V0.354645H80.5539V8.20191C74.4439 8.72787 70.332 13.1219 70.332 19.241C70.332 25.3601 74.4439 29.7932 80.5539 30.3191V38.2806H85.8872V30.3191C91.9972 29.8322 96.1091 25.3992 96.1091 19.241C96.1091 13.0828 91.9972 8.6888 85.8872 8.20191ZM80.5539 25.2128C77.5923 24.7981 75.7394 22.547 75.7394 19.244C75.7394 15.941 77.5923 13.6869 80.5539 13.2751V25.2158V25.2128ZM85.8872 25.2128V13.2721C88.8489 13.6839 90.7017 15.938 90.7017 19.241C90.7017 22.544 88.8489 24.7981 85.8872 25.2098" fill="#EF3124"/>
<path d="M116.11 23.3344V16.2385C116.11 11.0571 112.852 7.79016 107.37 7.79016C101.888 7.79016 98.7045 11.2464 98.4436 14.85H103.851C104.035 14.0626 104.85 12.7101 107.37 12.7101C109.445 12.7101 110.776 13.6869 110.776 16.2385H105.479C100.738 16.2385 97.9219 18.7541 97.9219 22.9587C97.9219 27.1634 101.002 30.3552 105.44 30.3552C108.695 30.3552 110.504 28.7954 111.292 27.6142C111.995 29.0418 113.551 29.8292 115.588 29.8292H117.441V24.9484C116.477 24.9484 116.107 24.4975 116.107 23.3344M110.773 21.9459C110.773 24.3863 109.069 25.7749 106.848 25.7749C104.921 25.7749 103.403 25.0626 103.403 22.9587C103.403 20.8549 105.07 20.5574 106.513 20.5574H110.773V21.9459Z" fill="#EF3124"/>
<path d="M138.967 11.6943H133.005V5.72541H146.82V0.354645H127.414V29.8292H138.97C145.377 29.8292 149.044 26.6014 149.044 20.6686C149.044 15.0754 145.377 11.6943 138.97 11.6943M138.712 24.4975H133.008V16.8366H138.712C141.674 16.8366 143.343 18.2251 143.343 20.6656C143.343 23.106 141.677 24.4945 138.712 24.4945" fill="#EF3124"/>
<path d="M169.446 23.3344V16.2385C169.446 11.0571 166.187 7.79016 160.706 7.79016C155.224 7.79016 152.04 11.2464 151.78 14.85H157.187C157.371 14.0626 158.186 12.7101 160.706 12.7101C162.781 12.7101 164.112 13.6869 164.112 16.2385H158.815C154.074 16.2385 151.258 18.7541 151.258 22.9587C151.258 27.1634 154.338 30.3552 158.776 30.3552C162.031 30.3552 163.84 28.7954 164.628 27.6142C165.331 29.0418 166.887 29.8292 168.924 29.8292H170.777V24.9484C169.813 24.9484 169.443 24.4975 169.443 23.3344M164.109 21.9459C164.109 24.3863 162.405 25.7749 160.184 25.7749C158.257 25.7749 156.739 25.0626 156.739 22.9587C156.739 20.8549 158.405 20.5574 159.849 20.5574H164.109V21.9459Z" fill="#EF3124"/>
<path d="M28.5194 37.9921H0V44H28.5194V37.9921Z" fill="#EF3124"/>
<path d="M19.4456 4.4C18.6303 1.94153 17.6935 0 14.4829 0C11.2722 0 10.2731 1.93251 9.41933 4.4L0.59375 29.8292H6.44585L8.48252 23.7852H19.742L21.6305 29.8292H27.8532L19.4456 4.4ZM10.1872 18.679L14.1864 6.62705H14.3346L18.1115 18.679H10.1842H10.1872Z" fill="#EF3124"/>
</g>
</g>
<defs>
<clipPath id="clip0_894_33313">
<rect width="216" height="44" fill="white"/>
</clipPath>
</defs>
</svg>
