<svg width="121" height="66" viewBox="0 0 121 66" fill="none" xmlns="http://www.w3.org/2000/svg">
<g clip-path="url(#clip0_894_33160)">
<path fill-rule="evenodd" clip-rule="evenodd" d="M9.0459 65.8047C33.574 55.4467 67.9873 46.0653 113.557 55.4602L114.036 44.0718C65.9501 38.8996 31.448 53.9853 9.03906 64.68V65.8047H9.0459Z" fill="#F8AB10"/>
<path fill-rule="evenodd" clip-rule="evenodd" d="M34.6953 35.768L45.3255 1.24591H54.8073L44.1771 35.768H34.6953Z" fill="#005597"/>
<path fill-rule="evenodd" clip-rule="evenodd" d="M30.457 1.25266L21.9255 15.8871C19.7516 19.7192 18.4869 21.6588 17.8717 24.0765H17.7418C17.8922 21.0055 17.4547 17.2341 17.4205 15.1059L16.4771 1.25266H0.507818L0.34375 2.18204C4.44545 2.18204 6.87912 4.20918 7.54906 8.36449L10.6595 35.7747H20.4831L40.3489 1.25939H30.4502L30.457 1.25266Z" fill="#005597"/>
<path fill-rule="evenodd" clip-rule="evenodd" d="M104.21 35.7679L103.95 30.6361H92.1098L89.6898 35.7679H79.3945L98.0641 1.30652H110.704L113.862 35.7679H104.217H104.21ZM103.123 15.4022C103.02 12.8498 102.931 9.38815 103.102 7.29366H102.966C102.391 9.01101 99.9098 14.1563 98.8161 16.6886L95.2886 24.2584H103.601L103.116 15.409L103.123 15.4022Z" fill="#005597"/>
<path fill-rule="evenodd" clip-rule="evenodd" d="M64.7641 36.7512C58.0715 36.7512 53.628 34.6567 50.4492 32.7912L54.9679 25.9959C57.8186 27.5651 60.054 29.3767 65.1948 29.3767C66.8492 29.3767 68.442 28.9524 69.3512 27.4102C70.6706 25.1675 69.0436 23.9553 65.3452 21.8877L63.5131 20.7159C58.0237 17.0186 55.6447 13.5098 58.2288 7.37448C59.8831 3.45489 64.2446 0.478149 71.4431 0.478149C76.4061 0.478149 81.0615 2.59284 83.7755 4.66039L78.58 10.661C75.9344 8.55305 73.74 7.48897 71.2311 7.48897C69.2281 7.48897 67.7105 8.24999 67.1841 9.27366C66.1929 11.1998 67.5054 12.513 70.3903 14.2843L72.5642 15.6447C79.2294 19.7865 80.8223 24.1304 79.1474 28.1914C76.2694 35.182 70.6432 36.7445 64.7573 36.7445L64.7641 36.7512Z" fill="#005597"/>
<path fill-rule="evenodd" clip-rule="evenodd" d="M116.454 6.58652H115.832V2.84203H117.275C118.191 2.84203 118.662 3.15856 118.662 3.91958C118.662 4.59979 118.238 4.87591 117.671 4.94326L118.737 6.58652H118.033L117.049 4.98366H116.461V6.58652H116.454ZM117.151 4.45836C117.616 4.45836 118.033 4.41121 118.033 3.87244C118.033 3.42121 117.582 3.36734 117.206 3.36734H116.454V4.45836H117.151ZM117.131 8.02774C115.155 8.02774 113.754 6.57305 113.754 4.64693C113.754 2.61305 115.313 1.26611 117.131 1.26611C118.949 1.26611 120.488 2.61305 120.488 4.64693C120.488 6.68081 118.929 8.02774 117.131 8.02774ZM117.131 1.85203C115.648 1.85203 114.485 2.99693 114.485 4.64693C114.485 6.18244 115.497 7.44183 117.131 7.44183C118.601 7.44183 119.756 6.30366 119.756 4.64693C119.756 2.9902 118.601 1.85203 117.131 1.85203Z" fill="#005597"/>
</g>
<defs>
<clipPath id="clip0_894_33160">
<rect width="121" height="66" fill="white"/>
</clipPath>
</defs>
</svg>
