<svg width="129" height="76" viewBox="0 0 129 76" fill="none" xmlns="http://www.w3.org/2000/svg">
<g clip-path="url(#clip0_894_33168)">
<path fill-rule="evenodd" clip-rule="evenodd" d="M89.753 75.5763L91.7206 75.5225L93.6611 75.3812L95.5675 75.1391L97.4602 74.8095L99.2985 74.3926L101.11 73.8814L102.887 73.2896L104.623 72.617L106.318 71.8503L107.966 71.0297L109.559 70.115L111.111 69.1331L112.602 68.0772L114.046 66.9607L115.435 65.777L116.756 64.526L118.029 63.2145L119.227 61.8425L120.357 60.4166L121.426 58.9437L122.413 57.4103L123.339 55.8365L124.177 54.2088L124.953 52.5342L125.634 50.8191L126.233 49.0637L126.75 47.2747L127.173 45.4588L127.506 43.589L127.751 41.7126L127.894 39.789L127.949 37.8453L127.894 35.915L127.751 34.0117L127.506 32.1352L127.173 30.2924L126.75 28.4765L126.233 26.6942L125.634 24.9455L124.953 23.2439L124.177 21.5759L123.339 19.9483L122.413 18.388L121.426 16.8545L120.357 15.3749L119.227 13.9692L118.029 12.5972L116.756 11.2857L115.435 10.0414L114.046 8.86442L112.602 7.74124L111.111 6.69203L109.559 5.71009L107.966 4.80885L106.318 3.98159L104.623 3.22159L102.887 2.54903L101.11 1.95044L99.2985 1.44602L97.4602 1.0223L95.5675 0.692741L93.6611 0.450616L91.7206 0.316105L89.753 0.262299L87.7989 0.316105L85.8585 0.450616L83.9589 0.692741L82.0798 1.0223L80.2415 1.44602L78.4236 1.95044L76.667 2.54903L74.9309 3.22159L73.2423 3.98159L71.6151 4.80885L70.0151 5.71009L68.4764 6.69203L66.9853 7.74124L65.5419 8.86442L64.1666 10.0414L62.8389 11.2857L61.5794 12.5972L60.3879 13.9692L59.2577 15.3749L58.2023 16.8545L57.2083 18.388L56.296 19.9483L55.4517 21.5759L54.6892 23.2439L54.0083 24.9455L53.416 26.6942L52.9053 28.4765L52.4764 30.2924L52.1428 32.1352L51.8977 34.0117L51.7615 35.915L51.707 37.8453L51.7615 39.789L51.8977 41.7126L52.1428 43.589L52.4764 45.4588L52.9053 47.2747L53.416 49.0637L54.0083 50.8191L54.6892 52.5342L55.4517 54.2088L56.296 55.8365L57.2083 57.4103L58.2023 58.9437L59.2577 60.4166L60.3879 61.8425L61.5794 63.2145L62.8389 64.526L64.1666 65.777L65.5419 66.9607L66.9853 68.0772L68.4764 69.1331L70.0151 70.115L71.6151 71.0297L73.2423 71.8503L74.9309 72.617L76.667 73.2896L78.4236 73.8814L80.2415 74.3926L82.0798 74.8095L83.9589 75.1391L85.8585 75.3812L87.7989 75.5225L89.753 75.5763Z" fill="#FAB51D"/>
<path fill-rule="evenodd" clip-rule="evenodd" d="M38.7553 75.5763L40.7094 75.5225L42.6498 75.3812L44.5562 75.1391L46.4353 74.8095L48.2736 74.3926L50.0847 73.8814L51.8481 73.2896L53.5843 72.617L55.266 71.8503L56.9 71.0297L58.4932 70.115L60.0387 69.1331L61.5298 68.0772L62.9664 66.9607L64.3417 65.777L65.6694 64.526L66.929 63.2145L68.1273 61.8425L69.2575 60.4166L70.3128 58.9437L71.3 57.4103L72.2124 55.8365L73.0634 54.2088L73.8192 52.5342L74.5068 50.8191L75.0924 49.0637L75.6098 47.2747L76.0319 45.4588L76.3655 43.589L76.6107 41.7126L76.7536 39.789L76.8081 37.8453L76.7536 35.915L76.6107 34.0117L76.3655 32.1352L76.0319 30.2924L75.6098 28.4765L75.0924 26.6942L74.5068 24.9455L73.8192 23.2439L73.0634 21.5759L72.2124 19.9483L71.3 18.388L70.3128 16.8545L69.2575 15.3749L68.1273 13.9692L66.929 12.5972L65.6694 11.2857L64.3417 10.0414L62.9664 8.86442L61.5298 7.74124L60.0387 6.69203L58.4932 5.71009L56.9 4.80885L55.266 3.98159L53.5843 3.22159L51.8481 2.54903L50.0847 1.95044L48.2736 1.44602L46.4353 1.0223L44.5562 0.692741L42.6498 0.450616L40.7094 0.316105L38.7553 0.262299L36.7877 0.316105L34.8473 0.450616L32.9409 0.692741L31.0549 1.0223L29.2166 1.44602L27.3987 1.95044L25.6285 2.54903L23.8924 3.22159L22.197 3.98159L20.5494 4.80885L18.9562 5.71009L17.397 6.69203L15.906 7.74124L14.4694 8.86442L13.0736 10.0414L11.7528 11.2857L10.4796 12.5972L9.28129 13.9692L8.15109 15.3749L7.08215 16.8545L6.09491 18.388L5.16896 19.9483L4.33151 21.5759L3.56215 23.2439L2.8813 24.9455L2.27534 26.6942L1.7647 28.4765L1.33576 30.2924L1.00215 32.1352L0.757044 34.0117L0.61406 35.915L0.566406 37.8453L0.61406 39.789L0.757044 41.7126L1.00215 43.589L1.33576 45.4588L1.7647 47.2747L2.27534 49.0637L2.8813 50.8191L3.56215 52.5342L4.33151 54.2088L5.16896 55.8365L6.09491 57.4103L7.08215 58.9437L8.15109 60.4166L9.28129 61.8425L10.4796 63.2145L11.7528 64.526L13.0736 65.777L14.4694 66.9607L15.906 68.0772L17.397 69.1331L18.9562 70.115L20.5494 71.0297L22.197 71.8503L23.8924 72.617L25.6285 73.2896L27.3987 73.8814L29.2166 74.3926L31.0549 74.8095L32.9409 75.1391L34.8473 75.3812L36.7877 75.5225L38.7553 75.5763Z" fill="#E40520"/>
<path fill-rule="evenodd" clip-rule="evenodd" d="M59.7969 14.7023H80.0454V12.6577H61.5467L59.7969 14.7023Z" fill="#FAB51D"/>
<path fill-rule="evenodd" clip-rule="evenodd" d="M56.7578 19.2489H80.0429V17.2043H57.9833L56.7578 19.2489Z" fill="#FAB51D"/>
<path fill-rule="evenodd" clip-rule="evenodd" d="M54.5 23.7887H80.0455V21.7441H55.3987L54.5 23.7887Z" fill="#FAB51D"/>
<path fill-rule="evenodd" clip-rule="evenodd" d="M52.9375 28.3352H80.0422V26.2906H53.5843L52.9375 28.3352Z" fill="#FAB51D"/>
<path fill-rule="evenodd" clip-rule="evenodd" d="M53.8392 50.308H80.1133V48.2634H53.1992L53.8392 50.308Z" fill="#FAB51D"/>
<path fill-rule="evenodd" clip-rule="evenodd" d="M55.7832 54.8545H80.11V52.8099H54.8164L55.7832 54.8545Z" fill="#FAB51D"/>
<path fill-rule="evenodd" clip-rule="evenodd" d="M58.5075 59.3943H80.1109V57.343H57.207L58.5075 59.3943Z" fill="#FAB51D"/>
<path fill-rule="evenodd" clip-rule="evenodd" d="M62.2671 63.9409H80.1122V61.8828H60.4492L62.2671 63.9409Z" fill="#FAB51D"/>
<path fill-rule="evenodd" clip-rule="evenodd" d="M52.0273 32.8683H80.0444V30.8237H52.4291L52.0273 32.8683Z" fill="#FAB51D"/>
<path fill-rule="evenodd" clip-rule="evenodd" d="M69.1016 45.7749H79.7909V43.7303H69.4896L69.1016 45.7749Z" fill="#FAB51D"/>
<path fill-rule="evenodd" clip-rule="evenodd" d="M69.9531 41.2418H79.7914V39.1837H70.3412L69.9531 41.2418Z" fill="#FAB51D"/>
<path fill-rule="evenodd" clip-rule="evenodd" d="M51.3203 39.1837H54.0982V41.2418H51.4497L51.3203 39.1837Z" fill="#FAB51D"/>
<path fill-rule="evenodd" clip-rule="evenodd" d="M46.1381 36.7019L45.9611 36.6952L45.7773 36.6683L45.6139 36.6414L45.4437 36.6145L45.2939 36.5876L45.1237 36.5674L44.9535 36.5405L44.7764 36.5136L44.5994 36.4867L44.3884 36.4733L44.1569 36.4665L43.9118 36.4531H43.6462L43.3466 36.4665L43.013 36.4867L42.6386 36.5136L42.3867 36.554L42.1415 36.5876L41.9237 36.6683L41.7262 36.7423L41.5492 36.8297L41.379 36.9306L41.2496 37.0584L41.1339 37.1727L41.059 37.314L40.9977 37.4552L40.9705 37.6099V37.7579L41.0113 37.926L41.059 38.0874L41.1611 38.2556L41.2905 38.417L41.5492 38.6591L41.8556 38.8541L42.2164 39.0156L42.6045 39.1568L43.013 39.2846L43.442 39.4258L43.8641 39.5738L44.2726 39.7419L44.6607 39.9572L45.0215 40.2262L45.3415 40.5423L45.6139 40.9324L45.8181 41.4166L45.9475 41.9883L45.9952 42.6743L45.9475 43.4747L45.859 44.0733L45.7024 44.5911L45.4981 45.0754L45.2394 45.4924L44.9467 45.8623L44.6062 46.1784L44.2522 46.4609L43.8505 46.703L43.442 46.8913L43.013 47.0595L42.5773 47.1872L42.1279 47.2881L41.6922 47.3621L41.2632 47.4025L40.8411 47.4226L40.4394 47.4361H39.8879L39.3773 47.4226H38.9279L38.499 47.4159L38.1177 47.4025L37.7705 47.3756L37.4573 47.3487L37.1645 47.3083L36.8922 47.2881L36.6471 47.2343L36.402 47.194L36.1841 47.1334L35.9662 47.0796L35.762 47.0057L35.5577 46.9317L35.3398 46.851L35.9186 44.0464L36.0343 44.0733L36.1705 44.1069L36.3543 44.1607L36.5722 44.2145L36.8037 44.2616L37.0624 44.3154L37.3415 44.3759L37.6547 44.4297L37.9747 44.4768L38.3084 44.5306L38.6556 44.571L39.0164 44.6046L39.3909 44.618L39.7586 44.6315H40.133L40.5075 44.618L40.882 44.5441L41.1747 44.4432L41.4062 44.3019L41.5901 44.1203L41.7126 43.9455L41.8215 43.7437L41.8828 43.5419L41.9373 43.3469L41.9577 42.977L41.842 42.6609L41.6241 42.4053L41.3041 42.1901L40.916 42.0018L40.4667 41.8134L39.9696 41.6318L39.4658 41.4301L38.9484 41.2014L38.4649 40.9324L38.0156 40.6028L37.6003 40.2127L37.2803 39.7285L37.0488 39.1568L36.933 38.4708L36.9467 37.657L37.0079 37.1593L37.0964 36.6952L37.2258 36.258L37.3824 35.8545L37.5867 35.4711L37.8181 35.1416L38.0905 34.8255L38.4105 34.543L38.7849 34.3076L39.1935 34.0991L39.6564 33.9108L40.1739 33.7695L40.7526 33.6552L41.379 33.5678L42.0735 33.514L42.836 33.5005H43.3126L43.7484 33.514L44.1433 33.5274L44.5041 33.5409L44.8309 33.5678L45.1237 33.5947L45.3824 33.6216L45.6139 33.6418L45.8318 33.6687L46.0088 33.709L46.179 33.7359L46.3288 33.7561L46.4581 33.783L46.5739 33.7964L46.6896 33.8234L46.7986 33.8368L46.1381 36.7019Z" fill="white"/>
<path d="M46.1381 36.7019L45.9611 36.6952L45.7773 36.6683L45.6139 36.6414L45.4437 36.6145L45.2939 36.5876L45.1237 36.5674L44.9535 36.5405L44.7764 36.5136L44.5994 36.4867L44.3884 36.4733L44.1569 36.4665L43.9118 36.4531H43.6462L43.3466 36.4665L43.013 36.4867L42.6386 36.5136L42.3867 36.554L42.1415 36.5876L41.9237 36.6683L41.7262 36.7423L41.5492 36.8297L41.379 36.9306L41.2496 37.0584L41.1339 37.1727L41.059 37.314L40.9977 37.4552L40.9705 37.6099V37.7579L41.0113 37.926L41.059 38.0874L41.1611 38.2556L41.2905 38.417L41.5492 38.6591L41.8556 38.8541L42.2164 39.0156L42.6045 39.1568L43.013 39.2846L43.442 39.4258L43.8641 39.5738L44.2726 39.7419L44.6607 39.9572L45.0215 40.2262L45.3415 40.5423L45.6139 40.9324L45.8181 41.4166L45.9475 41.9883L45.9952 42.6743L45.9475 43.4747L45.859 44.0733L45.7024 44.5911L45.4981 45.0754L45.2394 45.4924L44.9467 45.8623L44.6062 46.1784L44.2522 46.4609L43.8505 46.703L43.442 46.8913L43.013 47.0595L42.5773 47.1872L42.1279 47.2881L41.6922 47.3621L41.2632 47.4025L40.8411 47.4226L40.4394 47.4361H39.8879L39.3773 47.4226H38.9279L38.499 47.4159L38.1177 47.4025L37.7705 47.3756L37.4573 47.3487L37.1645 47.3083L36.8922 47.2881L36.6471 47.2343L36.402 47.194L36.1841 47.1334L35.9662 47.0796L35.762 47.0057L35.5577 46.9317L35.3398 46.851L35.9186 44.0464L36.0343 44.0733L36.1705 44.1069L36.3543 44.1607L36.5722 44.2145L36.8037 44.2616L37.0624 44.3154L37.3415 44.3759L37.6547 44.4297L37.9747 44.4768L38.3084 44.5306L38.6556 44.571L39.0164 44.6046L39.3909 44.618L39.7586 44.6315H40.133L40.5075 44.618L40.882 44.5441L41.1747 44.4432L41.4062 44.3019L41.5901 44.1203L41.7126 43.9455L41.8215 43.7437L41.8828 43.5419L41.9373 43.3469L41.9577 42.977L41.842 42.6609L41.6241 42.4053L41.3041 42.1901L40.916 42.0018L40.4667 41.8134L39.9696 41.6318L39.4658 41.4301L38.9484 41.2014L38.4649 40.9324L38.0156 40.6028L37.6003 40.2127L37.2803 39.7285L37.0488 39.1568L36.933 38.4708L36.9467 37.657L37.0079 37.1593L37.0964 36.6952L37.2258 36.258L37.3824 35.8545L37.5867 35.4711L37.8181 35.1416L38.0905 34.8255L38.4105 34.543L38.7849 34.3076L39.1935 34.0991L39.6564 33.9108L40.1739 33.7695L40.7526 33.6552L41.379 33.5678L42.0735 33.514L42.836 33.5005H43.3126L43.7484 33.514L44.1433 33.5274L44.5041 33.5409L44.8309 33.5678L45.1237 33.5947L45.3824 33.6216L45.6139 33.6418L45.8318 33.6687L46.0088 33.709L46.179 33.7359L46.3288 33.7561L46.4581 33.783L46.5739 33.7964L46.6896 33.8234L46.7986 33.8368L46.1381 36.7019Z" stroke="white" stroke-width="0.22" stroke-miterlimit="2.61"/>
<path fill-rule="evenodd" clip-rule="evenodd" d="M49.189 30.6959H52.7499L52.2188 33.7696H54.3703L53.9073 36.6414L51.6469 36.5809L50.4077 43.663L50.3941 43.9186L50.4622 44.1338L50.5916 44.3019L50.755 44.4432L50.9865 44.5306L51.2452 44.6046L51.5243 44.6584L51.8375 44.6786L52.1167 44.6719L52.3754 44.6449L52.6069 44.6046L52.8111 44.5575L52.9814 44.5037L53.0971 44.4634L53.172 44.4432L53.1992 44.4297L52.7499 46.7904L52.6614 46.851L52.566 46.9048L52.4775 46.9586L52.389 47.0057L52.3005 47.046L52.1984 47.0796L52.0826 47.12L51.9669 47.1603L51.8375 47.194L51.7082 47.2209L51.5516 47.2478L51.4018 47.2747L51.2316 47.3016L51.0409 47.3218L50.8367 47.3487L50.612 47.3756H49.6384L49.1209 47.3352L48.6716 47.2881L48.2631 47.2074L47.9158 47.12L47.6163 47.0057L47.378 46.8779L47.1533 46.7299L46.9899 46.5618L46.8605 46.3869L46.772 46.1649L46.7039 45.9497L46.6699 45.7076L46.6562 45.4453V45.1628L46.6903 44.8736L46.7311 44.5575L49.189 30.6959Z" fill="white"/>
<path d="M49.189 30.6959H52.7499L52.2188 33.7696H54.3703L53.9073 36.6414L51.6469 36.5809L50.4077 43.663L50.3941 43.9186L50.4622 44.1338L50.5916 44.3019L50.755 44.4432L50.9865 44.5306L51.2452 44.6046L51.5243 44.6584L51.8375 44.6786L52.1167 44.6719L52.3754 44.6449L52.6069 44.6046L52.8111 44.5575L52.9814 44.5037L53.0971 44.4634L53.172 44.4432L53.1992 44.4297L52.7499 46.7904L52.6614 46.851L52.566 46.9048L52.4775 46.9586L52.389 47.0057L52.3005 47.046L52.1984 47.0796L52.0826 47.12L51.9669 47.1603L51.8375 47.194L51.7082 47.2209L51.5516 47.2478L51.4018 47.2747L51.2316 47.3016L51.0409 47.3218L50.8367 47.3487L50.612 47.3756H49.6384L49.1209 47.3352L48.6716 47.2881L48.2631 47.2074L47.9158 47.12L47.6163 47.0057L47.378 46.8779L47.1533 46.7299L46.9899 46.5618L46.8605 46.3869L46.772 46.1649L46.7039 45.9497L46.6699 45.7076L46.6562 45.4453V45.1628L46.6903 44.8736L46.7311 44.5575L49.189 30.6959Z" stroke="white" stroke-width="0.22" stroke-miterlimit="2.61"/>
<path fill-rule="evenodd" clip-rule="evenodd" d="M57.2085 41.4301L57.1745 41.6453L57.1609 41.874L57.1813 42.1161L57.2358 42.3582L57.3243 42.6003L57.4264 42.829L57.5694 43.0711L57.726 43.2864L57.903 43.5016L58.1004 43.6899L58.3047 43.8849L58.5362 44.0329L58.7677 44.1741L59.0264 44.2885L59.2783 44.3759L59.537 44.4297L59.8706 44.4768L60.1906 44.5172L60.5311 44.5575L60.8647 44.5777L61.1983 44.5911H61.5455L61.8792 44.5777L62.2264 44.5575L62.5736 44.5037L62.9209 44.4432L63.2817 44.3625L63.6289 44.2481L63.9898 44.1069L64.3575 43.9589L64.7183 43.7572L65.0928 43.5419L64.5753 46.6626L64.3711 46.7635L64.1668 46.8644L63.9626 46.9451L63.7651 47.0191L63.5745 47.0796L63.3702 47.1469L63.166 47.194L62.9481 47.2343L62.7166 47.2747L62.4579 47.3016L62.1855 47.3218L61.8928 47.3487L61.5592 47.3621H61.2119L60.8102 47.3756H60.3881L59.7549 47.3621L59.1149 47.3016L58.4681 47.2074L57.8281 47.0595L57.1949 46.8644L56.5958 46.6223L56.017 46.3062L55.4724 45.9363L54.9753 45.5058L54.5328 44.988L54.1651 44.4028L53.8519 43.7303L53.634 42.977L53.4911 42.1295L53.457 41.188L53.5183 40.1455L53.5728 39.7419L53.6477 39.2711L53.7498 38.7734L53.8928 38.2421L54.0834 37.6973L54.3149 37.1526L54.6145 36.5876L54.9753 36.0563L55.3838 35.5518L55.8877 35.0676L56.4528 34.6372L57.0928 34.2538L57.8417 33.9377L58.6792 33.709L59.6051 33.5543L60.6468 33.5005L61.1438 33.514L61.6749 33.5678L62.1992 33.6552L62.7234 33.783L63.2409 33.9713L63.7447 34.2L64.2077 34.5094L64.6298 34.8658L65.0179 35.2963L65.3379 35.8007L65.5966 36.3858L65.7736 37.0584L65.8757 37.8251L65.8894 38.686L65.8009 39.6545L65.6034 40.7172L65.5421 41.4906H56.1668L56.7592 38.9887H62.3898L62.417 38.6726L62.4034 38.3699L62.3762 38.0874L62.3285 37.8386L62.24 37.5965L62.1447 37.3812L62.0221 37.1862L61.8928 37.0113L61.7362 36.8566L61.5728 36.7288L61.3753 36.6145L61.1847 36.5136L60.9804 36.4396L60.7694 36.3858L60.5515 36.3522L60.32 36.3253L60.0749 36.3387L59.8434 36.3724L59.6255 36.4262L59.4077 36.5002L59.1898 36.6011L58.9992 36.7154L58.8017 36.8566L58.6383 37.0113L58.4681 37.1862L58.3183 37.3812L58.1753 37.583L58.0596 37.7982L57.9438 38.0269L57.8553 38.2825L57.7736 38.5313L57.726 38.8003L57.2085 41.4301Z" fill="white"/>
<path d="M57.2085 41.4301L57.1745 41.6453L57.1609 41.874L57.1813 42.1161L57.2358 42.3582L57.3243 42.6003L57.4264 42.829L57.5694 43.0711L57.726 43.2864L57.903 43.5016L58.1004 43.6899L58.3047 43.8849L58.5362 44.0329L58.7677 44.1741L59.0264 44.2885L59.2783 44.3759L59.537 44.4297L59.8706 44.4768L60.1906 44.5172L60.5311 44.5575L60.8647 44.5777L61.1983 44.5911H61.5455L61.8792 44.5777L62.2264 44.5575L62.5736 44.5037L62.9209 44.4432L63.2817 44.3625L63.6289 44.2481L63.9898 44.1069L64.3575 43.9589L64.7183 43.7572L65.0928 43.5419L64.5753 46.6626L64.3711 46.7635L64.1668 46.8644L63.9626 46.9451L63.7651 47.0191L63.5745 47.0796L63.3702 47.1469L63.166 47.194L62.9481 47.2343L62.7166 47.2747L62.4579 47.3016L62.1855 47.3218L61.8928 47.3487L61.5592 47.3621H61.2119L60.8102 47.3756H60.3881L59.7549 47.3621L59.1149 47.3016L58.4681 47.2074L57.8281 47.0595L57.1949 46.8644L56.5958 46.6223L56.017 46.3062L55.4724 45.9363L54.9753 45.5058L54.5328 44.988L54.1651 44.4028L53.8519 43.7303L53.634 42.977L53.4911 42.1295L53.457 41.188L53.5183 40.1455L53.5728 39.7419L53.6477 39.2711L53.7498 38.7734L53.8928 38.2421L54.0834 37.6973L54.3149 37.1526L54.6145 36.5876L54.9753 36.0563L55.3838 35.5518L55.8877 35.0676L56.4528 34.6372L57.0928 34.2538L57.8417 33.9377L58.6792 33.709L59.6051 33.5543L60.6468 33.5005L61.1438 33.514L61.6749 33.5678L62.1992 33.6552L62.7234 33.783L63.2409 33.9713L63.7447 34.2L64.2077 34.5094L64.6298 34.8658L65.0179 35.2963L65.3379 35.8007L65.5966 36.3858L65.7736 37.0584L65.8757 37.8251L65.8894 38.686L65.8009 39.6545L65.6034 40.7172L65.5421 41.4906H56.1668L56.7592 38.9887H62.3898L62.417 38.6726L62.4034 38.3699L62.3762 38.0874L62.3285 37.8386L62.24 37.5965L62.1447 37.3812L62.0221 37.1862L61.8928 37.0113L61.7362 36.8566L61.5728 36.7288L61.3753 36.6145L61.1847 36.5136L60.9804 36.4396L60.7694 36.3858L60.5515 36.3522L60.32 36.3253L60.0749 36.3387L59.8434 36.3724L59.6255 36.4262L59.4077 36.5002L59.1898 36.6011L58.9992 36.7154L58.8017 36.8566L58.6383 37.0113L58.4681 37.1862L58.3183 37.3812L58.1753 37.583L58.0596 37.7982L57.9438 38.0269L57.8553 38.2825L57.7736 38.5313L57.726 38.8003L57.2085 41.4301Z" stroke="white" stroke-width="0.22" stroke-miterlimit="2.61"/>
<path fill-rule="evenodd" clip-rule="evenodd" d="M87.8817 34.5363L87.7115 34.4421L87.5481 34.3681L87.3643 34.2807L87.1736 34.1933L86.9762 34.1126L86.7583 34.0386L86.5404 33.9646L86.3089 33.8839L86.0639 33.8234L85.8187 33.7695L85.5532 33.7225L85.2809 33.6821L84.9881 33.6552L84.6885 33.6283H84.3821H84.0621H83.7353L83.4017 33.6552L83.0545 33.6956L82.7004 33.7561L82.3396 33.857L81.9787 33.9982L81.6179 34.1798L81.257 34.4085L80.9098 34.6842L80.5762 35.0138L80.2562 35.4241L79.943 35.8949L79.6638 36.4531L79.3915 37.0853L79.1464 37.7982L78.9421 38.612L78.8672 39.0694L78.8128 39.5133L78.7856 39.9572L78.7992 40.3876L78.84 40.818L78.9285 41.2283L79.0443 41.6049L79.1873 41.9883L79.3779 42.3313L79.6094 42.6609L79.8817 42.9568L80.1881 43.2191L80.5353 43.4478L80.937 43.6428L81.3728 43.8042L81.863 43.9186L82.0264 43.9589L82.2238 43.9993L82.4553 44.0195L82.7072 44.0464L82.9932 44.0733H83.286H83.6128L83.9328 44.0464L84.2664 44.006L84.6 43.9455L84.92 43.858L85.24 43.7572L85.5668 43.6159L85.8596 43.4478L86.1319 43.246L86.3906 43.0173L85.8119 46.4071L85.7302 46.4743L85.6553 46.5483L85.5532 46.6357L85.4375 46.7164L85.2945 46.8173L85.1175 46.9048L84.9064 46.9922L84.6749 47.0729L84.3821 47.1603L84.0485 47.2209L83.6604 47.2747L83.2111 47.3218L82.7072 47.3487L82.1285 47.3621L81.4749 47.3487L80.7532 47.3083L80.1609 47.2478L79.5753 47.12L78.983 46.9317L78.3906 46.6761L77.8255 46.3734L77.2809 45.9901L76.7702 45.5462L76.2936 45.035L75.8715 44.4634L75.5107 43.8311L75.1975 43.1182L74.966 42.3448L74.8162 41.4906L74.7617 40.5894L74.7889 39.6007L74.9319 38.5448L75.0341 38.0269L75.1498 37.5157L75.2792 37.0248L75.4085 36.554L75.5447 36.1101L75.7149 35.6662L75.8851 35.2425L76.0621 34.8524L76.2528 34.4556L76.4502 34.0857L76.6681 33.7359L76.8996 33.3996L77.1311 33.0835L77.383 32.7809L77.6417 32.4984L77.9141 32.2361L78.2068 31.9805L78.5064 31.7384L78.8128 31.5232L79.1328 31.3214L79.48 31.1264L79.8273 30.9649L80.1881 30.8103L80.5626 30.669L80.9643 30.5412L81.3592 30.4403L81.7745 30.3529L82.2102 30.2789L82.646 30.2117L83.1089 30.1646L83.5719 30.1377L84.0621 30.1242L84.4706 30.1377L84.8724 30.1646L85.2536 30.1982L85.6417 30.252L86.0026 30.3058L86.3498 30.3798L86.6834 30.4403L86.9898 30.521L87.2894 30.595L87.5481 30.669L87.7864 30.7497L87.9975 30.8237L88.1745 30.8842L88.3311 30.938L88.4468 30.9918L88.5217 31.012L87.8817 34.5363Z" fill="white"/>
<path d="M87.8817 34.5363L87.7115 34.4421L87.5481 34.3681L87.3643 34.2807L87.1736 34.1933L86.9762 34.1126L86.7583 34.0386L86.5404 33.9646L86.3089 33.8839L86.0639 33.8234L85.8187 33.7695L85.5532 33.7225L85.2809 33.6821L84.9881 33.6552L84.6885 33.6283H84.3821H84.0621H83.7353L83.4017 33.6552L83.0545 33.6956L82.7004 33.7561L82.3396 33.857L81.9787 33.9982L81.6179 34.1798L81.257 34.4085L80.9098 34.6842L80.5762 35.0138L80.2562 35.4241L79.943 35.8949L79.6638 36.4531L79.3915 37.0853L79.1464 37.7982L78.9421 38.612L78.8672 39.0694L78.8128 39.5133L78.7856 39.9572L78.7992 40.3876L78.84 40.818L78.9285 41.2283L79.0443 41.6049L79.1873 41.9883L79.3779 42.3313L79.6094 42.6609L79.8817 42.9568L80.1881 43.2191L80.5353 43.4478L80.937 43.6428L81.3728 43.8042L81.863 43.9186L82.0264 43.9589L82.2238 43.9993L82.4553 44.0195L82.7072 44.0464L82.9932 44.0733H83.286H83.6128L83.9328 44.0464L84.2664 44.006L84.6 43.9455L84.92 43.858L85.24 43.7572L85.5668 43.6159L85.8596 43.4478L86.1319 43.246L86.3906 43.0173L85.8119 46.4071L85.7302 46.4743L85.6553 46.5483L85.5532 46.6357L85.4375 46.7164L85.2945 46.8173L85.1175 46.9048L84.9064 46.9922L84.6749 47.0729L84.3821 47.1603L84.0485 47.2209L83.6604 47.2747L83.2111 47.3218L82.7072 47.3487L82.1285 47.3621L81.4749 47.3487L80.7532 47.3083L80.1609 47.2478L79.5753 47.12L78.983 46.9317L78.3906 46.6761L77.8255 46.3734L77.2809 45.9901L76.7702 45.5462L76.2936 45.035L75.8715 44.4634L75.5107 43.8311L75.1975 43.1182L74.966 42.3448L74.8162 41.4906L74.7617 40.5894L74.7889 39.6007L74.9319 38.5448L75.0341 38.0269L75.1498 37.5157L75.2792 37.0248L75.4085 36.554L75.5447 36.1101L75.7149 35.6662L75.8851 35.2425L76.0621 34.8524L76.2528 34.4556L76.4502 34.0857L76.6681 33.7359L76.8996 33.3996L77.1311 33.0835L77.383 32.7809L77.6417 32.4984L77.9141 32.2361L78.2068 31.9805L78.5064 31.7384L78.8128 31.5232L79.1328 31.3214L79.48 31.1264L79.8273 30.9649L80.1881 30.8103L80.5626 30.669L80.9643 30.5412L81.3592 30.4403L81.7745 30.3529L82.2102 30.2789L82.646 30.2117L83.1089 30.1646L83.5719 30.1377L84.0621 30.1242L84.4706 30.1377L84.8724 30.1646L85.2536 30.1982L85.6417 30.252L86.0026 30.3058L86.3498 30.3798L86.6834 30.4403L86.9898 30.521L87.2894 30.595L87.5481 30.669L87.7864 30.7497L87.9975 30.8237L88.1745 30.8842L88.3311 30.938L88.4468 30.9918L88.5217 31.012L87.8817 34.5363Z" stroke="white" stroke-width="0.22" stroke-miterlimit="2.61"/>
<path fill-rule="evenodd" clip-rule="evenodd" d="M119.533 47.3756H115.972L116.231 45.9632V45.8354L116.026 46.091L115.808 46.3196L115.591 46.5214L115.359 46.703L115.128 46.8644L114.896 47.0057L114.665 47.12L114.419 47.2343L114.174 47.3218L113.929 47.389L113.684 47.4496L113.425 47.4899L113.173 47.5303L112.928 47.5504L112.67 47.5639H112.411L111.744 47.5168L111.124 47.3756L110.559 47.1604L110.048 46.8644L109.585 46.5012L109.17 46.0641L108.809 45.5933L108.503 45.0619L108.244 44.4903L108.04 43.8917L107.897 43.2729L107.795 42.6273L107.754 41.9749L107.768 41.3158L107.836 40.6701L107.951 40.0177L108.142 39.2711L108.373 38.5582L108.646 37.9126L108.966 37.3005L109.299 36.7288L109.688 36.2244L110.082 35.7671L110.511 35.3434L110.961 34.9802L111.437 34.6573L111.921 34.3816L112.411 34.1664L112.928 33.9848L113.439 33.8704L113.956 33.7965L114.481 33.7696L114.855 33.783L115.216 33.8234L115.55 33.8839L115.856 33.9713L116.156 34.0722L116.414 34.1933L116.666 34.3278L116.898 34.469L117.102 34.6237L117.299 34.7851L117.463 34.9533L117.619 35.1147L117.749 35.2828L117.865 35.4442L117.967 35.5989L118.042 35.7536L118.947 30.7632H122.44L119.533 47.3756Z" fill="white"/>
<path d="M119.533 47.3756H115.972L116.231 45.9632V45.8354L116.026 46.091L115.808 46.3196L115.591 46.5214L115.359 46.703L115.128 46.8644L114.896 47.0057L114.665 47.12L114.419 47.2343L114.174 47.3218L113.929 47.389L113.684 47.4496L113.425 47.4899L113.173 47.5303L112.928 47.5504L112.67 47.5639H112.411L111.744 47.5168L111.124 47.3756L110.559 47.1604L110.048 46.8644L109.585 46.5012L109.17 46.0641L108.809 45.5933L108.503 45.0619L108.244 44.4903L108.04 43.8917L107.897 43.2729L107.795 42.6273L107.754 41.9749L107.768 41.3158L107.836 40.6701L107.951 40.0177L108.142 39.2711L108.373 38.5582L108.646 37.9126L108.966 37.3005L109.299 36.7288L109.688 36.2244L110.082 35.7671L110.511 35.3434L110.961 34.9802L111.437 34.6573L111.921 34.3816L112.411 34.1664L112.928 33.9848L113.439 33.8704L113.956 33.7965L114.481 33.7696L114.855 33.783L115.216 33.8234L115.55 33.8839L115.856 33.9713L116.156 34.0722L116.414 34.1933L116.666 34.3278L116.898 34.469L117.102 34.6237L117.299 34.7851L117.463 34.9533L117.619 35.1147L117.749 35.2828L117.865 35.4442L117.967 35.5989L118.042 35.7536L118.947 30.7632H122.44L119.533 47.3756Z" stroke="white" stroke-width="0.22" stroke-miterlimit="2.61"/>
<path fill-rule="evenodd" clip-rule="evenodd" d="M113.713 44.302L114.074 44.2751L114.408 44.2011L114.714 44.1069L115.014 43.9724L115.279 43.8177L115.538 43.6294L115.783 43.4142L116.001 43.1855L116.192 42.9299L116.376 42.6474L116.539 42.3582L116.682 42.0556L116.811 41.7328L116.913 41.4032L117.002 41.0602L117.07 40.7172L117.131 40.3607L117.172 39.9975V39.6545L117.159 39.2981L117.118 38.9685L117.07 38.6457L116.981 38.343L116.873 38.0538L116.75 37.7982L116.593 37.5561L116.423 37.3543L116.233 37.1727L116.015 37.0248L115.783 36.9239L115.538 36.8566L115.266 36.8297L114.919 36.8566L114.599 36.9104L114.306 37.0113L114.006 37.1391L113.747 37.3005L113.496 37.5023L113.278 37.7243L113.06 37.9597L112.862 38.2421L112.685 38.5313L112.515 38.8407L112.372 39.1703L112.25 39.5133L112.141 39.8563L112.039 40.2262L111.964 40.5894L111.902 41.1476L111.923 41.7596L112.018 42.3851L112.181 42.977L112.44 43.5016L112.774 43.9186L113.196 44.2011L113.713 44.302Z" fill="#FAB51D"/>
<path fill-rule="evenodd" clip-rule="evenodd" d="M34.7487 44.5575L34.2312 47.3756H30.9904L31.0857 46.851L31.147 46.3869L31.2015 46.0305L31.2491 45.8354L31.0721 46.0439L30.8679 46.2457L30.6227 46.434L30.3504 46.6156L30.044 46.7905L29.7172 46.9451L29.3836 47.0931L29.0364 47.2209L28.6687 47.3352L28.2942 47.4227L27.9198 47.5034L27.5317 47.5505L27.164 47.5774L26.7896 47.5908L26.4287 47.5505L26.0815 47.5034L25.6321 47.389L25.2168 47.2612L24.8627 47.0931L24.5359 46.9048L24.2568 46.703L23.9981 46.4743L23.7938 46.2322L23.61 45.9766L23.4602 45.7076L23.3308 45.4319L23.2287 45.1494L23.147 44.8736L23.0993 44.5777L23.0585 44.2885L23.0312 44.006V43.7303L23.0721 43.2326L23.147 42.7618L23.2764 42.3179L23.4466 41.8874L23.6508 41.4839L23.8823 41.114L24.1547 40.7575L24.461 40.4414L24.781 40.1455L25.1419 39.8832L25.5164 39.6411L25.8976 39.4326L26.313 39.2577L26.7351 39.1165L27.1708 39.0021L27.627 38.9282H27.6474L27.7155 38.9147L27.804 38.9012L27.947 38.8878L28.0968 38.8676L28.2806 38.8542L28.4713 38.8273L28.6891 38.8004L28.907 38.7735L29.1317 38.7533L29.3632 38.7398L29.5674 38.7129L29.7717 38.6995L29.9623 38.686L30.1461 38.6726H30.2891H30.5819L30.8883 38.686L31.1742 38.6995H31.4534L31.6849 38.7129L31.8687 38.7264L31.9981 38.7398H32.0321L32.0593 38.6457L32.1342 38.417L32.2023 38.1547L32.2296 37.9126L32.1751 37.6301L32.0593 37.3813L31.9027 37.1526L31.6985 36.9575L31.4534 36.7961L31.1879 36.6818L30.8747 36.6011L30.541 36.5809L30.1802 36.5674L29.7989 36.554H29.3972L28.9887 36.5674L28.5598 36.5876L28.1513 36.628L27.7427 36.6683L27.341 36.7154L26.953 36.7692L26.5853 36.8297L26.2449 36.897L25.9385 36.9575L25.6593 37.0382L25.4278 37.1122L25.244 37.1997L25.101 37.2736L26.0134 34.2135L26.2993 34.0991L26.5853 33.9982L26.8917 33.9108L27.1981 33.8503L27.5113 33.783L27.8449 33.7359L28.1785 33.6821L28.5257 33.6552L28.8866 33.6283L29.2542 33.6216L29.6423 33.6082H30.044H30.4525H30.8747L31.324 33.6216L31.7802 33.6283L32.1342 33.6552L32.5223 33.7225L32.924 33.8099L33.3325 33.9243L33.7342 34.0722L34.1155 34.2538L34.5036 34.469L34.8644 34.7112L35.1844 34.9869L35.4704 35.2963L35.7223 35.6393L35.9198 36.0159L36.0491 36.4262L36.124 36.8567V37.3409L36.0491 37.8453L34.7487 44.5575Z" fill="white"/>
<path d="M34.7487 44.5575L34.2312 47.3756H30.9904L31.0857 46.851L31.147 46.3869L31.2015 46.0305L31.2491 45.8354L31.0721 46.0439L30.8679 46.2457L30.6227 46.434L30.3504 46.6156L30.044 46.7905L29.7172 46.9451L29.3836 47.0931L29.0364 47.2209L28.6687 47.3352L28.2942 47.4227L27.9198 47.5034L27.5317 47.5505L27.164 47.5774L26.7896 47.5908L26.4287 47.5505L26.0815 47.5034L25.6321 47.389L25.2168 47.2612L24.8627 47.0931L24.5359 46.9048L24.2568 46.703L23.9981 46.4743L23.7938 46.2322L23.61 45.9766L23.4602 45.7076L23.3308 45.4319L23.2287 45.1494L23.147 44.8736L23.0993 44.5777L23.0585 44.2885L23.0312 44.006V43.7303L23.0721 43.2326L23.147 42.7618L23.2764 42.3179L23.4466 41.8874L23.6508 41.4839L23.8823 41.114L24.1547 40.7575L24.461 40.4414L24.781 40.1455L25.1419 39.8832L25.5164 39.6411L25.8976 39.4326L26.313 39.2577L26.7351 39.1165L27.1708 39.0021L27.627 38.9282H27.6474L27.7155 38.9147L27.804 38.9012L27.947 38.8878L28.0968 38.8676L28.2806 38.8542L28.4713 38.8273L28.6891 38.8004L28.907 38.7735L29.1317 38.7533L29.3632 38.7398L29.5674 38.7129L29.7717 38.6995L29.9623 38.686L30.1461 38.6726H30.2891H30.5819L30.8883 38.686L31.1742 38.6995H31.4534L31.6849 38.7129L31.8687 38.7264L31.9981 38.7398H32.0321L32.0593 38.6457L32.1342 38.417L32.2023 38.1547L32.2296 37.9126L32.1751 37.6301L32.0593 37.3813L31.9027 37.1526L31.6985 36.9575L31.4534 36.7961L31.1879 36.6818L30.8747 36.6011L30.541 36.5809L30.1802 36.5674L29.7989 36.554H29.3972L28.9887 36.5674L28.5598 36.5876L28.1513 36.628L27.7427 36.6683L27.341 36.7154L26.953 36.7692L26.5853 36.8297L26.2449 36.897L25.9385 36.9575L25.6593 37.0382L25.4278 37.1122L25.244 37.1997L25.101 37.2736L26.0134 34.2135L26.2993 34.0991L26.5853 33.9982L26.8917 33.9108L27.1981 33.8503L27.5113 33.783L27.8449 33.7359L28.1785 33.6821L28.5257 33.6552L28.8866 33.6283L29.2542 33.6216L29.6423 33.6082H30.044H30.4525H30.8747L31.324 33.6216L31.7802 33.6283L32.1342 33.6552L32.5223 33.7225L32.924 33.8099L33.3325 33.9243L33.7342 34.0722L34.1155 34.2538L34.5036 34.469L34.8644 34.7112L35.1844 34.9869L35.4704 35.2963L35.7223 35.6393L35.9198 36.0159L36.0491 36.4262L36.124 36.8567V37.3409L36.0491 37.8453L34.7487 44.5575Z" stroke="white" stroke-width="0.22" stroke-miterlimit="2.61"/>
<path fill-rule="evenodd" clip-rule="evenodd" d="M31.6474 41.2418L31.6338 41.1745L31.5793 41.114L31.5044 41.0736L31.3751 41.0467L31.2321 41.0265L31.0687 41.0131H30.8712H30.6806L30.4764 41.0265L30.2585 41.0467L30.0474 41.0736L29.8432 41.1005L29.6525 41.1274L29.4755 41.1611L29.3189 41.2014L29.1759 41.2418L29.0874 41.2619L28.9853 41.3023L28.8423 41.3561L28.6993 41.4166L28.5359 41.4906L28.3657 41.5848L28.1887 41.6722L28.0185 41.7731L27.8415 41.9009L27.6713 42.0287L27.5146 42.1766L27.3785 42.3313L27.2491 42.4995L27.1606 42.6743L27.0789 42.8761L27.0449 43.0846L27.0312 43.515L27.0925 43.858L27.2219 44.1069L27.3921 44.3019L27.5827 44.4297L27.8006 44.5037L28.0049 44.5441L28.2091 44.5575L28.5972 44.5441L28.9444 44.5037L29.2781 44.4499L29.5776 44.3759L29.8295 44.2885L30.0747 44.1742L30.2925 44.0598L30.49 43.9186L30.6534 43.7908L30.81 43.6428L30.9393 43.5016L31.0415 43.3469L31.13 43.1989L31.2049 43.0442L31.2729 42.903L31.3138 42.7618L31.4159 42.3986L31.5044 41.9749L31.5793 41.5713L31.6474 41.2418Z" fill="#E40520"/>
<path fill-rule="evenodd" clip-rule="evenodd" d="M7.69098 47.3756H4.19141L7.11226 30.6959H13.1923L13.7778 40.5894L17.9786 30.6959H24.331L21.3488 47.3756H17.8493L20.062 34.9129H19.9191L14.6901 47.3756H10.7412L10.714 46.851L10.6254 45.4722L10.5097 43.5016L10.3803 41.2418L10.251 38.9685L10.1352 36.971L10.0467 35.5249L10.0195 34.9129H9.97864H9.90375H9.82885L7.69098 47.3756Z" fill="white"/>
<path d="M7.69098 47.3756H4.19141L7.11226 30.6959H13.1923L13.7778 40.5894L17.9786 30.6959H24.331L21.3488 47.3756H17.8493L20.062 34.9129H19.9191L14.6901 47.3756H10.7412L10.714 46.851L10.6254 45.4722L10.5097 43.5016L10.3803 41.2418L10.251 38.9685L10.1352 36.971L10.0467 35.5249L10.0195 34.9129H9.97864H9.90375H9.82885L7.69098 47.3756Z" stroke="white" stroke-width="0.22" stroke-miterlimit="2.61"/>
<path fill-rule="evenodd" clip-rule="evenodd" d="M98.5634 44.5575L98.0392 47.3756H94.8119L94.8323 46.851L94.846 46.3936V46.0506L94.8732 45.9027L94.7098 46.091L94.5123 46.2793L94.2809 46.4609L94.0221 46.6358L93.7566 46.8039L93.4434 46.9586L93.1234 47.1066L92.8034 47.2344L92.4562 47.3352L92.0953 47.4361L91.7345 47.5034L91.3736 47.5505L91.006 47.5774L90.6451 47.5908L90.2979 47.5505L89.9507 47.5034L89.4877 47.389L89.0723 47.2612L88.7115 47.0931L88.3779 46.9048L88.0987 46.703L87.8536 46.4743L87.6494 46.2322L87.4656 45.9766L87.3158 45.7076L87.2 45.4319L87.0911 45.1494L87.0298 44.8736L86.9753 44.5777L86.9413 44.2885L86.9141 44.006V43.7303L86.9413 43.2326L87.0162 42.7618L87.1319 42.3179L87.3021 41.8874L87.4928 41.4839L87.7379 41.114L88.0102 40.7575L88.303 40.4414L88.6366 40.1455L88.9838 39.8832L89.3583 39.6411L89.7532 39.4326L90.1549 39.2577L90.577 39.1165L91.006 39.0021L91.4417 38.9282H91.4689L91.5302 38.9147L91.6187 38.9012L91.7481 38.8878L91.9183 38.8676L92.0953 38.8542L92.286 38.8273L92.497 38.8004L92.7149 38.7735L92.9464 38.7533L93.1643 38.7398L93.3821 38.7129L93.5864 38.6995L93.7702 38.686L93.9472 38.6726H94.0902H94.3966L94.7098 38.686L95.0026 38.6995H95.2817L95.5268 38.7129L95.7379 38.7264L95.8536 38.7398H95.9013L95.9285 38.6457L95.9694 38.417L96.0034 38.1547L96.0306 37.9126L95.9762 37.6301L95.874 37.3813L95.7106 37.1526L95.5132 36.9575L95.2817 36.7961L95.0162 36.6818L94.7302 36.6011L94.4238 36.5809L94.063 36.5674L93.6749 36.554H93.28L92.8647 36.5674L92.4426 36.5876L92.0341 36.628L91.6187 36.6683L91.2238 36.7154L90.8358 36.7692L90.4613 36.8297L90.1277 36.897L89.8213 36.9575L89.5353 37.0382L89.3038 37.1122L89.1268 37.1997L88.9838 37.2736L89.8826 34.2135L90.1685 34.0991L90.4613 33.9982L90.7609 33.9108L91.0672 33.8503L91.3872 33.783L91.7072 33.7359L92.0409 33.6821L92.3949 33.6552L92.7489 33.6283L93.1234 33.6216L93.4979 33.6082H93.8928H94.2945H94.7098L95.1455 33.6216L95.5813 33.6283L95.9421 33.6552L96.3302 33.7225L96.7251 33.8099L97.1336 33.9243L97.5353 34.0722L97.937 34.2538L98.3183 34.469L98.6792 34.7112L98.9992 34.9869L99.2987 35.2963L99.5575 35.6393L99.7481 36.0159L99.8911 36.4262L99.9796 36.8567V37.3409L99.9115 37.8453L98.5634 44.5575Z" fill="white"/>
<path fill-rule="evenodd" clip-rule="evenodd" d="M98.0387 47.463L98.1136 47.389L98.6379 44.571L98.4881 44.5441L97.957 47.3621L98.0387 47.2881V47.463L98.1 47.4496L98.1136 47.389L98.0387 47.463Z" fill="white"/>
<path fill-rule="evenodd" clip-rule="evenodd" d="M94.7285 47.3756L94.8102 47.463H98.0374V47.2881H94.8102L94.8851 47.3756H94.7285L94.7148 47.463H94.8102L94.7285 47.3756Z" fill="white"/>
<path fill-rule="evenodd" clip-rule="evenodd" d="M94.9347 45.9497L94.8258 45.8488L94.7713 46.0506L94.7577 46.3936V46.851L94.7305 47.3756H94.8871L94.9143 46.851L94.9347 46.3936L94.9279 46.0506V45.9497L94.8122 45.8488L94.9347 45.9497Z" fill="white"/>
<path fill-rule="evenodd" clip-rule="evenodd" d="M89.9375 47.5773L90.2984 47.6311L90.6456 47.6648L91.0064 47.6513L91.3741 47.6311L91.7486 47.5773L92.1094 47.5168L92.4703 47.4159L92.8311 47.3083L93.1511 47.1873L93.4847 47.0326L93.7911 46.8779L94.0635 46.703L94.3358 46.5214L94.5673 46.3465L94.7715 46.1448L94.935 45.9497L94.8124 45.8488L94.6422 46.0439L94.4652 46.2188L94.2337 46.3936L93.9886 46.5752L93.7162 46.7299L93.4098 46.8779L93.0967 47.0326L92.7767 47.1604L92.443 47.2612L92.0822 47.3621L91.7213 47.4227L91.3741 47.4765L91.0064 47.5034L90.6456 47.5168L90.2984 47.4765L89.9647 47.4227L89.9375 47.5773Z" fill="white"/>
<path fill-rule="evenodd" clip-rule="evenodd" d="M86.8242 43.7303L86.8378 44.006L86.8583 44.2885L86.8991 44.5911L86.9536 44.8871L87.0149 45.1628L87.117 45.4588L87.2327 45.748L87.4029 46.017L87.58 46.2793L87.7842 46.5214L88.0429 46.7635L88.3425 46.9653L88.6761 47.1738L89.0438 47.3352L89.4727 47.463L89.9357 47.5773L89.9629 47.4226L89.5 47.3083L89.0983 47.1873L88.751 47.0191L88.4174 46.8442L88.1451 46.6357L87.9136 46.4205L87.7093 46.1784L87.5323 45.9363L87.3893 45.674L87.2736 45.4049L87.1714 45.1426L87.1034 44.8602L87.0557 44.571L87.0149 44.2885L86.9876 44.006L87.0012 43.7303H86.8242Z" fill="white"/>
<path fill-rule="evenodd" clip-rule="evenodd" d="M91.4404 38.8542L90.991 38.9281L90.5485 39.0425L90.1264 39.1837L89.7178 39.3586L89.3161 39.5604L88.928 39.8159L88.5808 40.085L88.2472 40.3876L87.9408 40.7037L87.6685 41.0602L87.4166 41.4435L87.2191 41.8605L87.0557 42.291L86.94 42.7483L86.8583 43.2326L86.8242 43.7303H87.0012L87.0149 43.2326L87.0897 42.7752L87.2055 42.3448L87.3757 41.9143L87.5663 41.5175L87.7978 41.1611L88.0702 40.8046L88.3561 40.4885L88.6897 40.2127L89.037 39.9437L89.3978 39.715L89.7927 39.5133L90.1808 39.3317L90.6029 39.1972L91.0114 39.0828L91.4404 39.0021V38.8542Z" fill="white"/>
<path fill-rule="evenodd" clip-rule="evenodd" d="M94.0899 38.5851H93.9469L93.7699 38.612L93.5861 38.6255L93.3818 38.6389L93.164 38.6591L92.9461 38.6726L92.7146 38.6995L92.4967 38.7264L92.2857 38.7533L92.095 38.7735L91.918 38.7869L91.7478 38.8138L91.6184 38.8273L91.5163 38.8407L91.4686 38.8542H91.4414V39.0021H91.4686L91.5435 38.9887L91.6184 38.982L91.7478 38.9685L91.918 38.9416L92.095 38.9281L92.2857 38.9012L92.4967 38.8743L92.7146 38.8542L92.9461 38.8273L93.164 38.8138L93.3818 38.7869L93.5861 38.7735L93.7699 38.76H93.9469H94.0899V38.5851Z" fill="white"/>
<path fill-rule="evenodd" clip-rule="evenodd" d="M95.826 38.7264L95.9009 38.6591H95.8532L95.7375 38.6457L95.5265 38.6389L95.2813 38.612H95.0022H94.7094L94.3962 38.5851H94.0898V38.76H94.3962H94.7094L95.0022 38.7869H95.2813H95.5265L95.7375 38.8004L95.8532 38.8138H95.9009L95.9758 38.7533L95.9009 38.8138L95.969 38.8273L95.9758 38.7533L95.826 38.7264Z" fill="white"/>
<path fill-rule="evenodd" clip-rule="evenodd" d="M95.9536 37.9126H95.94L95.9263 38.1547L95.8855 38.4103L95.8514 38.6389L95.8242 38.7264L95.974 38.7533L96.0012 38.6591L96.0421 38.4304L96.0829 38.1547L96.117 37.9126H96.1034H95.9536Z" fill="white"/>
<path fill-rule="evenodd" clip-rule="evenodd" d="M94.4219 36.6549V36.6683L94.7146 36.6818L94.987 36.7558L95.2457 36.8701L95.4636 37.0248L95.6406 37.1996L95.7972 37.4149L95.8993 37.6435L95.9538 37.9126H96.1036L96.0559 37.6166L95.9538 37.3409L95.7699 37.0988L95.5657 36.897L95.3206 36.7154L95.0414 36.6011L94.7419 36.5271L94.4219 36.4867V36.5002V36.6549Z" fill="white"/>
<path fill-rule="evenodd" clip-rule="evenodd" d="M88.9102 37.2669L89.0395 37.3409L89.1621 37.2736L89.3323 37.1862L89.5502 37.1122L89.8361 37.0382L90.1425 36.971L90.4761 36.9104L90.8506 36.8432L91.225 36.7961L91.6199 36.7423L92.0353 36.7019L92.4438 36.6683L92.8659 36.6414H93.2812H93.6761H94.0642L94.4251 36.6549V36.5002L94.0642 36.4867L93.6761 36.4666H93.2812L92.8659 36.4867L92.4438 36.5136L92.0353 36.554L91.6199 36.5876L91.225 36.6414L90.8233 36.6952L90.4489 36.7558L90.1153 36.8163L89.8089 36.8835L89.5229 36.9575L89.2778 37.0382L89.0872 37.1257L88.9306 37.2131L89.0599 37.2871L88.9102 37.2669Z" fill="white"/>
<path fill-rule="evenodd" clip-rule="evenodd" d="M89.8633 34.1395L89.8089 34.2L88.9102 37.2669L89.0599 37.2871L89.9655 34.2269L89.911 34.2942L89.8633 34.1395L89.8225 34.1529L89.8089 34.2L89.8633 34.1395Z" fill="white"/>
<path fill-rule="evenodd" clip-rule="evenodd" d="M95.5824 33.5543L95.1467 33.5274L94.7109 33.514H94.2956H93.8939H93.499L93.1246 33.5409L92.7501 33.5543L92.396 33.5812L92.042 33.6081L91.7016 33.6552L91.3748 33.709L91.0548 33.7696L90.7484 33.8368L90.4352 33.9242L90.1424 34.0251L89.8633 34.1395L89.9109 34.2942L90.1969 34.1798L90.4897 34.0722L90.7756 33.9848L91.082 33.9242L91.402 33.857L91.722 33.8099L92.042 33.7561L92.396 33.7359L92.7501 33.709L93.1246 33.6956H93.499H93.8939H94.2956H94.7109L95.1467 33.709H95.5824V33.5543Z" fill="white"/>
<path fill-rule="evenodd" clip-rule="evenodd" d="M99.994 37.8587L100.055 37.3409V36.8566L99.9667 36.4127L99.8237 35.9957L99.6195 35.5989L99.3608 35.2425L99.0544 34.9264L98.7344 34.6506L98.3599 34.4085L97.9718 34.1798L97.5633 33.9982L97.1616 33.8503L96.7395 33.7359L96.3378 33.6418L95.9429 33.5812L95.582 33.5543V33.709L95.9429 33.7359L96.3174 33.7964L96.7122 33.8839L97.1139 33.9982L97.5089 34.1529L97.8969 34.3278L98.285 34.5363L98.6254 34.7717L98.9523 35.0541L99.2314 35.3434L99.4901 35.6729L99.674 36.0428L99.8101 36.4396L99.9054 36.8566V37.3409L99.8374 37.8386L99.994 37.8587Z" fill="white"/>
<path fill-rule="evenodd" clip-rule="evenodd" d="M98.6381 44.571L99.993 37.8588L99.8364 37.8386L98.4883 44.5441L98.6381 44.571Z" fill="white"/>
<path fill-rule="evenodd" clip-rule="evenodd" d="M95.4514 41.2418L95.4242 41.161L95.3765 41.1005L95.2812 41.0602L95.1587 41.0265L95.0157 41.0131L94.8455 40.9996H94.6548L94.4642 41.0131L94.2531 41.0333L94.0489 41.0602L93.8446 41.0871L93.654 41.114L93.4565 41.1476L93.2931 41.1745L93.1229 41.2149L92.9936 41.2418L92.905 41.2552L92.8029 41.2888L92.6736 41.3292L92.5306 41.3763L92.3672 41.457L92.2106 41.531L92.0336 41.6184L91.8633 41.7327L91.6999 41.8471L91.5297 41.9883L91.3867 42.1295L91.2438 42.291L91.1348 42.4726L91.0395 42.6609L90.9646 42.8626L90.9238 43.0846L90.9102 43.515L90.9782 43.858L91.0804 44.1069L91.237 44.3019L91.4276 44.4297L91.6455 44.5037L91.8633 44.5441L92.0812 44.5575L92.4693 44.5441L92.8301 44.5037L93.1638 44.4432L93.4565 44.349L93.7425 44.2481L93.9876 44.1338L94.2191 44.006L94.4234 43.858L94.6004 43.7168L94.757 43.5487L94.8999 43.4007L95.0157 43.2326L95.1042 43.0846L95.1655 42.9299L95.2199 42.7752L95.2608 42.634L95.3084 42.2842L95.3765 41.9143L95.4242 41.5579L95.4514 41.2418Z" fill="#FAB51D"/>
<path fill-rule="evenodd" clip-rule="evenodd" d="M121.945 45.6336L121.966 45.3444L122.068 45.0014L122.252 44.692L122.47 44.4297L122.742 44.2145L123.048 44.0598L123.382 43.9589L123.743 43.9186L124.104 43.9589L124.437 44.0598L124.744 44.2145L125.016 44.4297L125.234 44.692L125.418 45.0014L125.52 45.3444L125.54 45.6336H125.159L125.145 45.405L125.064 45.1292L124.941 44.8736L124.771 44.6584L124.567 44.4768L124.321 44.349L124.036 44.2616L123.743 44.2347L123.45 44.2616L123.164 44.349L122.919 44.4768L122.715 44.6584L122.544 44.8736L122.415 45.1292L122.34 45.405L122.313 45.6336H121.945Z" fill="white"/>
<path fill-rule="evenodd" clip-rule="evenodd" d="M123.102 45.6336V44.8736H123.803L123.959 44.8871L124.102 44.914L124.205 44.9476L124.293 45.0014L124.361 45.0754L124.409 45.1494L124.436 45.2435L124.45 45.331L124.436 45.4453L124.409 45.5327L124.375 45.6067L124.348 45.6336H123.803L123.857 45.6202L123.946 45.6067L124.028 45.5865L124.089 45.5596L124.143 45.5193L124.164 45.4789L124.191 45.4184V45.331L124.177 45.2637L124.15 45.2166L124.116 45.1897L124.075 45.1628L124.014 45.1494L123.946 45.1427H123.885H123.803H123.422V45.6336H123.102Z" fill="white"/>
<path fill-rule="evenodd" clip-rule="evenodd" d="M121.943 45.6336L121.93 45.7076L121.964 46.0775L122.066 46.4205L122.25 46.7299L122.468 46.9788L122.74 47.194L123.046 47.3621L123.38 47.463L123.741 47.5034L124.102 47.463L124.435 47.3621L124.742 47.194L125.014 46.9788L125.232 46.7299L125.416 46.4205L125.518 46.0775L125.552 45.7076L125.538 45.6336H125.157L125.171 45.7076L125.143 46.017L125.062 46.2928L124.939 46.5349L124.769 46.7501L124.565 46.9317L124.319 47.0729L124.034 47.1604L123.741 47.1873L123.448 47.1604L123.162 47.0729L122.917 46.9317L122.713 46.7501L122.542 46.5349L122.413 46.2928L122.338 46.017L122.311 45.7076V45.6336H121.943Z" fill="white"/>
<path fill-rule="evenodd" clip-rule="evenodd" d="M123.102 45.6336V46.4071H123.422V45.7749H123.742L124.13 46.4071H124.382L124 45.7749H124.089L124.177 45.748L124.259 45.7211L124.32 45.674L124.348 45.6336H123.803L123.742 45.6471H123.422V45.6336H123.102Z" fill="white"/>
<path d="M123.421 46.4071H123.101V44.8669H123.809L123.965 44.8804L124.108 44.9073L124.211 44.9476L124.299 45.0014L124.36 45.0754L124.415 45.1494L124.442 45.2368L124.456 45.3243L124.442 45.4386L124.415 45.526L124.374 45.6L124.319 45.6605L124.258 45.7143L124.183 45.7412L124.095 45.7681H124.006L124.394 46.4004H124.136L123.748 45.7681H123.428V46.4004M123.748 45.6404L123.863 45.6135L123.952 45.6L124.027 45.5731L124.088 45.5462L124.142 45.5058L124.17 45.4655L124.197 45.405V45.3175L124.183 45.257L124.156 45.2032L124.115 45.1763L124.074 45.1494L124.013 45.1359L123.952 45.1225H123.428V45.6269H123.748M121.93 45.7076L121.971 45.3377L122.073 44.9947L122.25 44.692L122.468 44.423L122.74 44.2078L123.046 44.0531L123.38 43.9522L123.741 43.9119L124.102 43.9522L124.435 44.0531L124.742 44.2078L125.014 44.423L125.232 44.692L125.409 44.9947L125.511 45.3377L125.552 45.7076L125.511 46.0775L125.409 46.4205L125.232 46.7232L125.014 46.9788L124.742 47.194L124.435 47.3621L124.102 47.463L123.741 47.5034L123.38 47.463L123.046 47.3621L122.74 47.194L122.468 46.9788L122.25 46.7232L122.073 46.4205L121.971 46.0775L121.93 45.7076ZM123.748 47.1671L124.04 47.1402L124.319 47.0527L124.565 46.9115L124.769 46.7299L124.939 46.5147L125.068 46.2726L125.143 45.9901L125.171 45.6874L125.143 45.3848L125.068 45.1023L124.939 44.8467L124.769 44.6315L124.565 44.4566L124.319 44.3289L124.04 44.2414L123.748 44.2145L123.455 44.2414L123.169 44.3289L122.924 44.4566L122.719 44.6315L122.549 44.8467L122.42 45.1023L122.345 45.3848L122.318 45.6874L122.345 45.9901L122.42 46.2726L122.549 46.5147L122.719 46.7299L122.924 46.9115L123.169 47.0527L123.455 47.1402L123.748 47.1671Z" stroke="white" stroke-width="0.22" stroke-miterlimit="2.61"/>
<path fill-rule="evenodd" clip-rule="evenodd" d="M99.5312 47.3756H103.153L104.454 40.1455L104.508 39.8697L104.583 39.5873L104.658 39.3115L104.76 39.029L104.89 38.7533L105.046 38.4843L105.21 38.2287L105.421 37.9866L105.652 37.7713L105.904 37.5696L106.204 37.3812L106.537 37.2266L106.912 37.0988L107.32 36.9979L107.77 36.9239L108.273 36.897H108.45H108.553H108.593L109.172 33.6283L108.811 33.6552L108.464 33.6956L108.144 33.7561L107.838 33.8503L107.552 33.9512L107.286 34.0722L107.027 34.2135L106.782 34.3681L106.551 34.543L106.333 34.7246L106.129 34.9264L105.918 35.1282L105.727 35.3434L105.536 35.5855L105.339 35.8142L105.162 36.0697L105.55 33.7696H101.935L99.5312 47.3756Z" fill="white"/>
<path d="M99.5312 47.3756H103.153L104.454 40.1455L104.508 39.8697L104.583 39.5873L104.658 39.3115L104.76 39.029L104.89 38.7533L105.046 38.4843L105.21 38.2287L105.421 37.9866L105.652 37.7713L105.904 37.5696L106.204 37.3812L106.537 37.2266L106.912 37.0988L107.32 36.9979L107.77 36.9239L108.273 36.897H108.45H108.553H108.593L109.172 33.6283L108.811 33.6552L108.464 33.6956L108.144 33.7561L107.838 33.8503L107.552 33.9512L107.286 34.0722L107.027 34.2135L106.782 34.3681L106.551 34.543L106.333 34.7246L106.129 34.9264L105.918 35.1282L105.727 35.3434L105.536 35.5855L105.339 35.8142L105.162 36.0697L105.55 33.7696H101.935L99.5312 47.3756Z" stroke="white" stroke-width="0.22" stroke-miterlimit="2.61"/>
<path fill-rule="evenodd" clip-rule="evenodd" d="M65.4805 47.3756H69.1026H69.1707L70.403 40.1455L70.4575 39.8697L70.5188 39.6007L70.58 39.3317L70.6754 39.0828L70.7775 38.8273L70.9069 38.5851L71.0566 38.3565L71.2405 38.1412L71.4447 37.9462L71.6762 37.7579L71.9554 37.6099L72.2686 37.4687L72.6294 37.3543L73.0243 37.2535L73.46 37.1862L73.9639 37.1526H74.0047L74.0524 37.1593L74.1205 37.1727H74.1817L74.2498 37.1862L74.2975 37.1997L74.3383 37.2131H74.352L74.3656 37.1593L74.3996 37.0113L74.4541 36.7827L74.5154 36.5002L74.6107 36.1706L74.6992 35.8142L74.8149 35.4577L74.9307 35.1012L75.0328 34.8658L75.1622 34.6237L75.2915 34.3816L75.4209 34.1664L75.5366 33.9713L75.6251 33.8234L75.6864 33.7359L75.7137 33.6956H75.7001L75.6456 33.6821L75.5843 33.6687L75.4958 33.6552H75.4073L75.3051 33.6418L75.2098 33.6283H75.1213L74.7264 33.6552L74.3656 33.6956L74.032 33.7561L73.7188 33.8368L73.426 33.9377L73.1537 34.0655L72.9086 34.1933L72.6771 34.3412L72.4592 34.5094L72.2549 34.6977L72.0643 34.886L71.8669 35.1012L71.6762 35.3232L71.4992 35.5653L71.3017 35.8142L71.1111 36.0697L71.5741 33.7696H67.8839L65.4805 47.3756Z" fill="white"/>
<path d="M65.4805 47.3756H69.1026H69.1707L70.403 40.1455L70.4575 39.8697L70.5188 39.6007L70.58 39.3317L70.6754 39.0828L70.7775 38.8273L70.9069 38.5851L71.0566 38.3565L71.2405 38.1412L71.4447 37.9462L71.6762 37.7579L71.9554 37.6099L72.2686 37.4687L72.6294 37.3543L73.0243 37.2535L73.46 37.1862L73.9639 37.1526H74.0047L74.0524 37.1593L74.1205 37.1727H74.1817L74.2498 37.1862L74.2975 37.1997L74.3383 37.2131H74.352L74.3656 37.1593L74.3996 37.0113L74.4541 36.7827L74.5154 36.5002L74.6107 36.1706L74.6992 35.8142L74.8149 35.4577L74.9307 35.1012L75.0328 34.8658L75.1622 34.6237L75.2915 34.3816L75.4209 34.1664L75.5366 33.9713L75.6251 33.8234L75.6864 33.7359L75.7137 33.6956H75.7001L75.6456 33.6821L75.5843 33.6687L75.4958 33.6552H75.4073L75.3051 33.6418L75.2098 33.6283H75.1213L74.7264 33.6552L74.3656 33.6956L74.032 33.7561L73.7188 33.8368L73.426 33.9377L73.1537 34.0655L72.9086 34.1933L72.6771 34.3412L72.4592 34.5094L72.2549 34.6977L72.0643 34.886L71.8669 35.1012L71.6762 35.3232L71.4992 35.5653L71.3017 35.8142L71.1111 36.0697L71.5741 33.7696H67.8839L65.4805 47.3756Z" stroke="white" stroke-width="0.22" stroke-miterlimit="2.61"/>
<path fill-rule="evenodd" clip-rule="evenodd" d="M121.965 60.7395V60.6857L122.067 60.3561L122.251 60.0669L122.469 59.8113L122.741 59.6096L123.047 59.4549L123.381 59.3674L123.742 59.3271L124.103 59.3674L124.436 59.4549L124.743 59.6096L125.015 59.8113L125.233 60.0669L125.417 60.3561L125.519 60.6857V60.7395H125.144L125.063 60.4704L124.94 60.2283L124.77 60.0131L124.566 59.8382L124.321 59.697L124.035 59.6096L123.742 59.5827L123.449 59.6096L123.163 59.697L122.918 59.8382L122.714 60.0131L122.544 60.2283L122.414 60.4704L122.339 60.7395H121.965Z" fill="#FAB51D"/>
<path fill-rule="evenodd" clip-rule="evenodd" d="M123.102 60.7395V60.2956H123.803H123.959L124.102 60.3157L124.205 60.3426L124.293 60.3965L124.361 60.457L124.409 60.531L124.436 60.6251L124.45 60.7395H124.191V60.6722L124.177 60.6117L124.15 60.5579L124.116 60.531L124.075 60.5108L124.014 60.4973L123.946 60.4839H123.885H123.803H123.422V60.7395H123.102Z" fill="#FAB51D"/>
<path fill-rule="evenodd" clip-rule="evenodd" d="M121.93 61.0152L121.964 60.7395H122.338V60.7529L122.311 61.0152H121.93Z" fill="#FAB51D"/>
<path fill-rule="evenodd" clip-rule="evenodd" d="M123.102 61.0152V60.7395H123.422V60.9883H123.742L123.857 60.9681L123.946 60.9547L124.028 60.9278L124.089 60.9009L124.143 60.8673L124.164 60.8269L124.191 60.7596V60.7395H124.45L124.436 60.8269L124.409 60.9009L124.375 60.9681L124.32 61.0152H123.102Z" fill="#FAB51D"/>
<path fill-rule="evenodd" clip-rule="evenodd" d="M125.172 61.0152L125.145 60.7529V60.7395H125.519L125.553 61.0152H125.172Z" fill="#FAB51D"/>
<path fill-rule="evenodd" clip-rule="evenodd" d="M121.93 61.0152V61.0556L121.964 61.4255L122.066 61.7685L122.25 62.0712L122.468 62.3402L122.74 62.5554L123.046 62.7034L123.38 62.811L123.741 62.8446L124.102 62.811L124.435 62.7034L124.742 62.5554L125.014 62.3402L125.232 62.0712L125.416 61.7685L125.518 61.4255L125.552 61.0556V61.0152H125.171V61.0556L125.143 61.3582L125.062 61.6407L124.939 61.8828L124.769 62.0981L124.565 62.2729L124.319 62.4142L124.034 62.5016L123.741 62.5285L123.448 62.5016L123.162 62.4142L122.917 62.2729L122.713 62.0981L122.542 61.8828L122.413 61.6407L122.338 61.3582L122.311 61.0556V61.0152H121.93Z" fill="#FAB51D"/>
<path fill-rule="evenodd" clip-rule="evenodd" d="M123.102 61.0152V61.7551H123.422V61.1161H123.742L124.13 61.7551H124.382L124 61.1161H124.089L124.177 61.0959L124.259 61.069L124.32 61.0152H123.102Z" fill="#FAB51D"/>
</g>
<defs>
<clipPath id="clip0_894_33168">
<rect width="128" height="76" fill="white" transform="translate(0.5)"/>
</clipPath>
</defs>
</svg>
