<svg width="125" height="78" viewBox="0 0 125 78" fill="none" xmlns="http://www.w3.org/2000/svg">
<g clip-path="url(#clip0_894_33233)">
<path d="M62.6007 9.83875C63.5571 10.7348 64.4757 11.6716 65.3563 12.6492C65.3807 12.6763 65.3748 12.6898 65.3387 12.6898L59.8254 12.6919C59.8154 12.6918 59.8056 12.694 59.7966 12.6981C59.7876 12.7023 59.7797 12.7084 59.7733 12.7159L58.0221 14.7781C57.9869 14.8193 57.9961 14.84 58.0498 14.84H67.115C67.1302 14.8399 67.1452 14.8435 67.1589 14.8503C67.1726 14.857 67.1846 14.8669 67.1941 14.8792C67.7718 15.6353 68.3226 16.4117 68.8466 17.2082C68.88 17.2591 68.8667 17.2843 68.8067 17.2838C64.6657 17.2531 60.5248 17.2552 56.3838 17.29C56.3589 17.2902 56.3345 17.2968 56.3127 17.3092C56.291 17.3216 56.2726 17.3394 56.2593 17.3609L55.0107 19.3783C54.989 19.4136 54.9985 19.4312 55.0391 19.4312H70.148C70.1593 19.4312 70.1704 19.4343 70.1801 19.4401C70.1899 19.4459 70.1979 19.4542 70.2035 19.4642C70.6485 20.2484 71.0607 21.0502 71.4399 21.8696C71.4417 21.8736 71.4425 21.8781 71.4422 21.8825C71.4419 21.887 71.4405 21.8913 71.4381 21.895C71.4358 21.8988 71.4326 21.9019 71.4287 21.904C71.4249 21.9062 71.4206 21.9074 71.4163 21.9074H53.8155C53.8037 21.9074 53.7923 21.9108 53.7824 21.9172C53.7726 21.9235 53.7648 21.9325 53.76 21.9432L52.7772 24.0197C52.7744 24.0255 52.7732 24.032 52.7735 24.0384C52.7739 24.0448 52.7758 24.0511 52.7792 24.0565C52.7826 24.0619 52.7873 24.0664 52.7929 24.0695C52.7984 24.0726 52.8047 24.0741 52.811 24.0741H72.3693C72.3795 24.0741 72.3895 24.0772 72.3979 24.083C72.4064 24.0887 72.4129 24.0969 72.4167 24.1064C72.7224 24.8681 73.0011 25.6398 73.2527 26.4217C73.2555 26.4305 73.2562 26.44 73.2547 26.4492C73.2533 26.4584 73.2498 26.4671 73.2444 26.4746C73.2391 26.4821 73.2321 26.4882 73.224 26.4924C73.2159 26.4966 73.207 26.4987 73.1979 26.4987H51.9831C51.9698 26.4987 51.9568 26.503 51.9461 26.5111C51.9354 26.5191 51.9275 26.5305 51.9236 26.5434L51.3189 28.5766C51.3163 28.5848 51.3157 28.5935 51.3172 28.602C51.3186 28.6105 51.322 28.6186 51.327 28.6255C51.3321 28.6325 51.3387 28.6381 51.3463 28.6421C51.3539 28.646 51.3624 28.6481 51.3709 28.6482H73.8615C73.8706 28.6481 73.8796 28.6512 73.887 28.6569C73.8945 28.6626 73.9 28.6706 73.9027 28.6798C74.1241 29.4098 74.2969 30.1492 74.4209 30.8981" stroke="#77507A" stroke-width="2"/>
<path d="M74.4234 30.898C73.6415 30.9246 72.8637 30.9934 72.0898 31.1044" stroke="#80C2E2" stroke-width="2"/>
<path d="M72.088 31.1044C72.0684 31.0501 60.8116 31.0728 59.7503 31.0728C59.7439 31.0727 59.7375 31.0744 59.7318 31.0775C59.7262 31.0806 59.7214 31.0851 59.7179 31.0906L59.707 31.1071" stroke="#77507A" stroke-width="2"/>
<path d="M59.7073 31.1072C58.5136 30.9375 57.3195 30.932 56.125 31.0907" stroke="#80C2E2" stroke-width="2"/>
<path d="M56.1247 31.0906L50.7817 31.0728C50.7671 31.0727 50.753 31.0779 50.7417 31.0874C50.7305 31.097 50.7229 31.1103 50.7202 31.125L50.3603 33.172C50.3587 33.1812 50.3591 33.1907 50.3615 33.1997C50.3639 33.2088 50.3681 33.2172 50.374 33.2243C50.3799 33.2315 50.3872 33.2372 50.3955 33.2411C50.4038 33.245 50.4128 33.247 50.4219 33.247L51.356 33.2422" stroke="#77507A" stroke-width="2"/>
<path d="M51.3578 33.2422C48.8233 35.6991 47.8723 39.313 48.0231 42.8044C48.1449 45.6307 49.3029 48.0168 51.6987 49.5066" stroke="#80C2E2" stroke-width="2"/>
<path d="M51.6973 49.5066L51.6825 49.5197C51.6764 49.525 51.672 49.532 51.6697 49.5398C51.6674 49.5476 51.6674 49.5559 51.6696 49.5637L52.047 50.8334C52.0514 50.8478 52.0601 50.8604 52.0719 50.8693C52.0837 50.8782 52.098 50.883 52.1126 50.883C53.2882 50.8816 54.4627 50.8818 55.6361 50.8837C55.7984 50.8837 56.0703 50.9456 56.2969 50.8795" stroke="#77507A" stroke-width="2"/>
<path d="M56.2969 50.8795C56.6046 50.8775 56.9408 50.9167 57.2188 50.9181C58.1338 50.9231 59.0487 50.9121 59.9637 50.885" stroke="#80C2E2" stroke-width="2"/>
<path d="M59.9648 50.8851C60.2787 50.9428 60.6629 50.8816 60.8888 50.8816L67.4256 50.883C67.7408 50.883 68.2353 50.9325 68.6567 50.8679" stroke="#77507A" stroke-width="2"/>
<path d="M68.6562 50.8679C69.7741 50.9146 70.8922 50.93 72.0105 50.9139C72.114 50.9119 72.2534 50.8899 72.3758 50.8974" stroke="#80C2E2" stroke-width="2"/>
<path d="M72.3735 50.8974C72.677 50.9236 72.9669 50.916 73.2433 50.8747C73.251 50.8737 73.2589 50.8746 73.2661 50.8774C73.2734 50.8803 73.2798 50.8849 73.2848 50.891C73.2898 50.897 73.2932 50.9042 73.2947 50.912C73.2962 50.9197 73.2957 50.9277 73.2934 50.9353C73.0228 51.79 72.7223 52.634 72.3917 53.4672C72.3884 53.4757 72.3825 53.483 72.3749 53.4882C72.3673 53.4933 72.3583 53.4961 72.3491 53.4961H52.9978C52.9922 53.4961 52.9868 53.4975 52.9819 53.5003C52.977 53.5031 52.9729 53.507 52.9699 53.5118C52.967 53.5166 52.9652 53.5221 52.9649 53.5278C52.9646 53.5334 52.9656 53.5391 52.968 53.5442L53.9468 55.6304C53.9513 55.64 53.9584 55.6482 53.9672 55.6539C53.9761 55.6596 53.9864 55.6627 53.9969 55.6627H71.3629C71.3708 55.6628 71.3786 55.6648 71.3855 55.6687C71.3924 55.6726 71.3982 55.6782 71.4024 55.6849C71.4066 55.6916 71.409 55.6993 71.4094 55.7072C71.4099 55.7151 71.4083 55.723 71.4049 55.7301C70.9932 56.6018 70.5497 57.457 70.0744 58.2957C70.066 58.3108 70.0538 58.3232 70.0389 58.3319C70.024 58.3406 70.0071 58.3452 69.9898 58.3453H55.2793C55.2482 58.3453 55.2412 58.3586 55.2584 58.3852L56.6105 60.4638C56.6167 60.4733 56.6252 60.4811 56.6351 60.4865C56.645 60.4919 56.6561 60.4947 56.6673 60.4947C60.4146 60.4943 64.1619 60.4945 67.9092 60.4954C68.1108 60.4954 68.4314 60.5298 68.7067 60.4865C68.7324 60.4823 68.7378 60.4913 68.7229 60.5133C68.1624 61.3511 67.5737 62.168 66.9568 62.964C66.9509 62.9715 66.9434 62.9776 66.9349 62.9818C66.9263 62.9859 66.917 62.9881 66.9074 62.9881H58.2034C58.1656 62.9881 58.159 63.0028 58.1838 63.0321L59.9222 65.0736C59.9438 65.0991 59.9706 65.1195 60.0007 65.1335C60.0309 65.1475 60.0636 65.1548 60.0967 65.1548H65.0683C65.1062 65.1548 65.1123 65.169 65.0865 65.1974C64.2902 66.0655 63.4629 66.9039 62.6048 67.7128" stroke="#77507A" stroke-width="2"/>
<path d="M26.1219 32.9891C26.1383 32.9956 26.1521 33.0072 26.161 33.0219C26.1698 33.0365 26.1732 33.0533 26.1706 33.0695L23.1497 50.8506C23.1483 50.8588 23.1487 50.8671 23.1508 50.8751C23.1529 50.883 23.1566 50.8904 23.1618 50.8967C23.1669 50.903 23.1734 50.908 23.1806 50.9115C23.1879 50.9149 23.1958 50.9167 23.2038 50.9167H28.0016C28.0105 50.9167 28.019 50.9135 28.0258 50.9077C28.0326 50.9019 28.0372 50.8939 28.0388 50.885L32.104 26.9637C32.1047 26.9594 32.1044 26.955 32.1033 26.9508C32.1022 26.9466 32.1001 26.9427 32.0974 26.9393C32.0946 26.936 32.0912 26.9333 32.0873 26.9315C32.0834 26.9296 32.0792 26.9286 32.0749 26.9286L23.3702 26.9279C23.3608 26.9279 23.3517 26.9308 23.3438 26.9362C23.336 26.9415 23.3299 26.9492 23.3263 26.9582L17.7249 40.9314C17.7164 40.953 17.7107 40.9521 17.708 40.9287C17.6756 40.6471 17.6388 40.1546 17.5978 39.4512C17.3543 35.2903 17.1121 31.1289 16.8713 26.9671C16.8708 26.9574 16.8669 26.9483 16.8604 26.9411C16.8538 26.934 16.845 26.9293 16.8355 26.9279C16.6325 26.8997 16.3748 26.9286 16.2355 26.9286H8.51025C8.49763 26.9102 8.47914 26.9045 8.45479 26.9114C8.44446 26.9144 8.43519 26.9204 8.42801 26.9285C8.42084 26.9367 8.41605 26.9467 8.4142 26.9575L4.35982 50.8768C4.35904 50.8817 4.35929 50.8867 4.36056 50.8915C4.36182 50.8963 4.36408 50.9007 4.36716 50.9045C4.37025 50.9083 4.37409 50.9114 4.37843 50.9135C4.38277 50.9156 4.3875 50.9167 4.39229 50.9167H9.20222C9.21505 50.9167 9.22747 50.9121 9.23726 50.9036C9.24705 50.8952 9.25357 50.8835 9.25565 50.8706C10.2671 44.9204 11.2741 38.9957 12.2765 33.0964C12.2866 33.0358 12.3103 32.9719 12.382 32.9946C12.3921 32.9978 12.4011 33.0041 12.4076 33.0127C12.4141 33.0213 12.4179 33.0318 12.4185 33.0427L13.425 50.8823C13.4255 50.8916 13.4296 50.9003 13.4362 50.9067C13.4429 50.9131 13.4517 50.9167 13.4609 50.9167H18.8687C18.8763 50.9167 18.8837 50.9144 18.89 50.9101C18.8962 50.9058 18.9011 50.8997 18.9039 50.8926C21.2199 45.1084 23.5353 39.3254 25.8499 33.5434C25.8729 33.485 26.0684 32.9684 26.1219 32.9891ZM41.4912 49.0272L41.222 50.8761C41.2212 50.8811 41.2215 50.8862 41.2228 50.891C41.2242 50.8959 41.2265 50.9004 41.2297 50.9043C41.2329 50.9081 41.2369 50.9112 41.2414 50.9134C41.2459 50.9155 41.2508 50.9166 41.2558 50.9167H45.7065C45.7162 50.9167 45.7255 50.9132 45.733 50.907C45.7404 50.9007 45.7454 50.8919 45.7471 50.8823C46.5148 46.5338 47.3414 42.2129 48.1775 37.8823C48.2961 37.266 48.3623 36.8304 48.3763 36.5754C48.5596 33.2229 45.3298 31.3651 42.495 31.1237C42.2609 31.1035 41.8102 31.0879 41.1428 31.0769C38.9614 31.0404 36.5345 30.9916 34.5201 31.9931C34.4988 32.0037 34.4798 32.0187 34.4645 32.0372C34.4491 32.0556 34.4376 32.0772 34.4308 32.1004L33.1646 36.4083C33.1551 36.4404 33.1646 36.4477 33.193 36.4303C33.7585 36.0877 34.5154 35.9392 35.158 35.8264C36.8305 35.5338 38.5154 35.3772 40.2128 35.3566C41.9998 35.3352 43.3317 36.4543 42.7175 38.4319C42.7134 38.4454 42.705 38.4571 42.6936 38.4653C42.6822 38.4734 42.6685 38.4773 42.6546 38.4766C41.5345 38.4215 40.4238 38.3782 39.3064 38.4669C38.2201 38.5541 37.2878 38.657 36.5094 38.7758C32.6485 39.3666 29.9226 42.6538 30.388 46.6803C30.7654 49.9448 33.5184 51.5495 36.5487 51.1836C38.4081 50.9586 40.0518 50.2529 41.4702 49.0155C41.4873 49.0004 41.4943 49.0043 41.4912 49.0272Z" stroke="#80C2E2" stroke-width="2"/>
<path d="M72.375 50.8974C72.9788 50.8369 73.4764 50.7704 73.8678 50.698C76.7 50.1745 78.8157 48.3497 79.1573 45.326C79.2764 44.2722 79.2872 43.1084 78.9395 42.129C78.3084 40.3488 76.7994 39.7498 75.1997 39.2036" stroke="#F68D97" stroke-width="2"/>
<path d="M75.2017 39.2036C75.2035 38.3787 75.1922 37.554 75.1679 36.7295C75.1537 36.2659 75.0833 35.7136 75.0664 35.2025" stroke="#77507A" stroke-width="2"/>
<path d="M75.0645 35.2025C75.6534 35.1539 76.2421 35.1479 76.8306 35.1846C77.5435 35.2286 78.4593 35.4137 79.2758 35.5024C79.2996 35.505 79.3235 35.4986 79.343 35.4844C79.3625 35.4702 79.3761 35.4492 79.3813 35.4254L80.2626 31.3548C80.2637 31.35 80.2638 31.3451 80.263 31.3403C80.2621 31.3355 80.2603 31.3309 80.2576 31.3269C80.255 31.3228 80.2515 31.3194 80.2475 31.3167C80.2435 31.3141 80.239 31.3123 80.2342 31.3114C78.2916 30.9744 76.3835 30.8981 74.4219 30.8981M86.8914 35.4371L89.938 35.4976C89.947 35.4979 89.9558 35.4947 89.9628 35.4888C89.9697 35.4828 89.9744 35.4745 89.9758 35.4653L90.6678 31.3995C90.6685 31.3953 90.6683 31.391 90.6672 31.3869C90.6661 31.3827 90.6641 31.3789 90.6614 31.3757C90.6587 31.3724 90.6553 31.3698 90.6515 31.3679C90.6477 31.3661 90.6436 31.3651 90.6394 31.3651H87.6497C87.6471 31.365 87.6446 31.3644 87.6423 31.3633C87.64 31.3621 87.638 31.3605 87.6363 31.3584C87.6347 31.3564 87.6336 31.354 87.633 31.3515C87.6323 31.349 87.6323 31.3463 87.6328 31.3438L88.3816 26.9788C88.3827 26.9723 88.3823 26.9657 88.3807 26.9593C88.379 26.953 88.376 26.9471 88.3718 26.9421C88.3677 26.9371 88.3626 26.9331 88.3568 26.9304C88.351 26.9278 88.3446 26.9264 88.3383 26.9265C87.1546 26.9329 85.9851 26.9309 84.8297 26.9203C84.4347 26.9169 83.9247 26.9362 83.4641 26.9265C83.4355 26.9258 83.4076 26.9355 83.3855 26.9539C83.3634 26.9724 83.3485 26.9983 83.3437 27.027C82.3183 33.2105 81.2899 39.4097 80.2586 45.6245C79.9089 47.7313 79.3265 50.0762 82.1654 50.6766C84.0465 51.0749 86.6141 51.101 88.3707 50.1676C88.3921 50.1563 88.4106 50.1401 88.4245 50.1203C88.4385 50.1004 88.4477 50.0775 88.4512 50.0535L88.9524 46.6521C88.961 46.5925 88.9385 46.5749 88.8848 46.5992C88.0873 46.9596 86.2245 47.1288 85.5183 46.5613C85.1558 46.2704 85.1673 45.857 85.2437 45.3831C85.774 42.0783 86.3097 38.7746 86.8509 35.4721C86.8523 35.4622 86.8573 35.4531 86.8647 35.4467C86.8722 35.4402 86.8817 35.4368 86.8914 35.4371ZM97.5645 34.417L98.1002 31.4043C98.1011 31.3993 98.1009 31.3941 98.0996 31.3891C98.0983 31.3842 98.0959 31.3796 98.0927 31.3757C98.0895 31.3717 98.0855 31.3686 98.0809 31.3664C98.0764 31.3642 98.0714 31.3631 98.0664 31.363L93.0271 31.3032C93.023 31.3031 93.019 31.3046 93.0157 31.3074C93.0125 31.3102 93.0103 31.314 93.0095 31.3183L89.7121 50.8335C89.7103 50.8437 89.7107 50.8542 89.7134 50.8642C89.716 50.8742 89.7208 50.8836 89.7274 50.8915C89.734 50.8994 89.7422 50.9058 89.7515 50.9102C89.7607 50.9145 89.7708 50.9167 89.781 50.9167H94.7608C94.7691 50.9167 94.7772 50.9137 94.7835 50.9082C94.7898 50.9028 94.794 50.8953 94.7952 50.8871C95.3558 47.5034 95.9125 44.131 96.4653 40.7698C96.8461 38.4587 97.5956 36.8402 100.092 36.4241C100.781 36.3095 101.394 36.2826 101.931 36.3436C101.94 36.3448 101.95 36.3423 101.957 36.3367C101.965 36.3311 101.97 36.3227 101.971 36.3134C102.332 34.4617 102.843 32.8336 103.816 31.2757C103.819 31.2713 103.821 31.2663 103.821 31.2612C103.821 31.256 103.821 31.2508 103.819 31.246C103.816 31.2412 103.813 31.237 103.809 31.2337C103.805 31.2303 103.801 31.228 103.796 31.2268C103.487 31.1643 103.18 31.0996 102.867 31.1099C100.418 31.1918 98.9322 32.3907 97.628 34.4115C97.6232 34.4191 97.6161 34.4249 97.6078 34.428L97.5861 34.4356C97.5833 34.4364 97.5804 34.4366 97.5775 34.436C97.5747 34.4354 97.5721 34.4341 97.5699 34.4323C97.5677 34.4304 97.5661 34.428 97.5651 34.4253C97.5642 34.4227 97.5639 34.4198 97.5645 34.417ZM101.965 37.5212C100.141 42.9193 101.634 49.5541 107.891 50.9518C110.884 51.6203 114.364 51.2035 116.856 49.3409C119.843 47.1068 120.963 43.1779 120.732 39.5063C120.435 34.7692 117.374 31.6485 112.758 31.1746C108.021 30.689 103.58 32.7401 101.965 37.5212ZM119.311 50.1408C119.322 50.1413 119.332 50.1461 119.34 50.1542C119.348 50.1622 119.352 50.1729 119.352 50.1841V51.337C119.352 51.3486 119.357 51.3598 119.365 51.3681C119.373 51.3763 119.384 51.381 119.395 51.381H119.697C119.709 51.381 119.72 51.3763 119.728 51.3681C119.736 51.3598 119.74 51.3486 119.74 51.337L119.742 50.1663C119.742 50.1603 119.743 50.1544 119.745 50.1489C119.748 50.1434 119.751 50.1385 119.755 50.1344C119.759 50.1303 119.764 50.1271 119.77 50.125C119.775 50.1229 119.781 50.122 119.787 50.1222L120.263 50.147C120.269 50.1473 120.275 50.1464 120.28 50.1443C120.286 50.1423 120.291 50.1391 120.295 50.1351C120.299 50.1311 120.303 50.1262 120.305 50.1208C120.307 50.1154 120.309 50.1096 120.309 50.1037L120.313 49.9125C120.313 49.9066 120.312 49.9008 120.31 49.8954C120.308 49.89 120.305 49.885 120.301 49.8809C120.297 49.8767 120.292 49.8734 120.287 49.8712C120.282 49.8689 120.276 49.8677 120.27 49.8677H118.844C118.833 49.8677 118.823 49.8718 118.815 49.8791C118.807 49.8865 118.802 49.8967 118.801 49.9076L118.785 50.072C118.785 50.078 118.785 50.0841 118.787 50.0899C118.789 50.0957 118.792 50.101 118.796 50.1056C118.799 50.1101 118.804 50.1139 118.81 50.1165C118.815 50.1191 118.821 50.1206 118.827 50.1209L119.311 50.1408ZM120.834 50.4668C120.836 50.4659 120.84 50.4661 120.842 50.4674C120.845 50.4686 120.847 50.4709 120.848 50.4737L121.252 51.3686C121.253 51.3708 121.254 51.3726 121.256 51.3738C121.258 51.375 121.261 51.3756 121.263 51.3755H121.563C121.565 51.3756 121.567 51.375 121.569 51.3738C121.572 51.3726 121.573 51.3708 121.574 51.3686L121.985 50.462C121.986 50.4596 121.988 50.4577 121.99 50.4565C121.993 50.4553 121.995 50.455 121.998 50.4555C122.001 50.4561 122.003 50.4575 122.005 50.4595C122.007 50.4616 122.008 50.4641 122.008 50.4668L122.007 51.3686C122.007 51.3702 122.007 51.3718 122.008 51.3733C122.009 51.3748 122.01 51.3762 122.011 51.3773C122.012 51.3785 122.013 51.3794 122.015 51.38C122.016 51.3807 122.018 51.381 122.019 51.381H122.383C122.386 51.381 122.389 51.3797 122.391 51.3773C122.393 51.375 122.395 51.3719 122.395 51.3686L122.399 49.8801C122.399 49.8785 122.398 49.8769 122.398 49.8754C122.397 49.8739 122.396 49.8725 122.395 49.8714C122.394 49.8702 122.393 49.8693 122.391 49.8687C122.39 49.8681 122.388 49.8677 122.387 49.8677H121.906C121.904 49.8678 121.902 49.8684 121.9 49.8696C121.898 49.8708 121.896 49.8726 121.895 49.8746L121.427 50.9009C121.426 50.9029 121.425 50.9046 121.423 50.9058C121.421 50.907 121.419 50.9076 121.417 50.9076C121.414 50.9076 121.412 50.907 121.41 50.9058C121.408 50.9046 121.407 50.9029 121.406 50.9009L120.933 49.8753C120.932 49.8733 120.93 49.8715 120.929 49.8703C120.927 49.8691 120.924 49.8685 120.922 49.8684L120.427 49.8664C120.424 49.8664 120.421 49.8677 120.418 49.87C120.416 49.8723 120.415 49.8755 120.415 49.8787L120.429 51.3686C120.429 51.3719 120.43 51.375 120.433 51.3773C120.435 51.3797 120.438 51.381 120.441 51.381L120.809 51.3817C120.812 51.3817 120.816 51.3804 120.818 51.378C120.82 51.3757 120.821 51.3726 120.821 51.3693L120.806 50.4847C120.806 50.4821 120.807 50.4795 120.808 50.4774C120.81 50.4753 120.812 50.4738 120.815 50.473L120.834 50.4668Z" stroke="#F68D97" stroke-width="2"/>
<path d="M75.0651 35.2025C74.1459 35.2101 72.5252 35.5602 72.3493 36.7295C72.1248 38.2262 74.1411 38.8948 75.2004 39.2036" stroke="#80C2E2" stroke-width="2"/>
<path d="M68.6571 50.8679C67.2062 50.8266 65.8115 50.6196 64.479 50.0665C64.47 50.0629 64.4626 50.0562 64.4581 50.0476C64.4535 50.0391 64.452 50.0292 64.4539 50.0198L64.6975 48.7156" stroke="#F68D97" stroke-width="2"/>
<path d="M64.6953 48.7156L65.0335 46.9445" stroke="#80C2E2" stroke-width="2"/>
<path d="M65.0352 46.9445L65.2151 46.0145C65.2159 46.0101 65.2177 46.006 65.2202 46.0023C65.2227 45.9987 65.2259 45.9956 65.2297 45.9932C65.2334 45.9909 65.2376 45.9894 65.242 45.9888C65.2463 45.9882 65.2508 45.9885 65.255 45.9897C67.1787 46.5496 69.1389 46.8232 71.1357 46.8103C72.4912 46.8021 73.4679 46.2786 73.6086 44.795" stroke="#F68D97" stroke-width="2"/>
<path d="M73.6091 44.795C73.6193 43.8616 72.8191 43.4008 72.0899 43.0919C71.4987 42.842 70.711 42.5181 69.7266 42.12" stroke="#80C2E2" stroke-width="2"/>
<path d="M69.724 42.12C68.6282 41.5367 67.847 40.992 67.2227 39.9341" stroke="#F68D97" stroke-width="2"/>
<path d="M67.2237 39.9341C66.8399 39.1477 66.6668 38.2904 66.7042 37.3623C66.7631 35.889 67.0505 34.459 67.9089 33.2566" stroke="#80C2E2" stroke-width="2"/>
<path d="M67.9085 33.2566C68.9292 31.9532 70.4977 31.3355 72.088 31.1044M59.707 31.1072C61.3365 31.4607 62.6264 31.9587 63.7682 33.2422" stroke="#F68D97" stroke-width="2"/>
<path d="M63.7695 33.2422C65.3638 35.2555 65.3557 37.5129 65.1562 39.9602" stroke="#80C2E2" stroke-width="2"/>
<path d="M65.1547 39.9602L64.7617 42.1413" stroke="#F68D97" stroke-width="2"/>
<path d="M64.7609 42.1414L64.6906 42.4571C64.6884 42.4667 64.6832 42.4753 64.6757 42.4814C64.6682 42.4875 64.6589 42.4908 64.6493 42.4908H53.3188C53.3097 42.4908 53.3009 42.4941 53.2939 42.5C53.287 42.5059 53.2824 42.5141 53.2809 42.5231C53.1538 43.3286 53.3824 44.134 53.8403 44.804" stroke="#80C2E2" stroke-width="2"/>
<path d="M53.8398 44.8039C54.4603 45.8109 55.3126 46.4256 56.3967 46.648C57.451 46.8644 58.556 46.9291 59.7117 46.842C61.3392 46.7188 62.6785 46.2037 64.0746 45.3673C64.1291 45.3347 64.151 45.3501 64.1402 45.4133L63.8852 46.9589" stroke="#F68D97" stroke-width="2"/>
<path d="M63.8884 46.9589L63.582 48.7411" stroke="#80C2E2" stroke-width="2"/>
<path d="M63.5795 48.7411L63.382 49.8835C63.3803 49.8943 63.3762 49.9046 63.3702 49.9136C63.3641 49.9226 63.3561 49.9302 63.3468 49.9358C62.2409 50.5906 61.2141 50.7523 59.9627 50.885M56.2959 50.8795C56.2021 50.8561 56.004 50.8284 55.7014 50.7963C54.3161 50.6491 52.9811 50.2192 51.6964 49.5066M51.3555 33.2422C52.761 31.9993 54.3222 31.4098 56.1241 31.0906" stroke="#F68D97" stroke-width="2"/>
<path d="M60.2679 38.8473C60.5438 36.757 59.5888 35.0388 57.3329 35.1028C55.6791 35.1502 54.5712 36.431 54.1531 37.9531C54.0724 38.2485 54.0032 38.5483 53.9455 38.8528C53.9448 38.856 53.9448 38.8593 53.9456 38.8625C53.9463 38.8657 53.9478 38.8687 53.9499 38.8713C53.9519 38.8739 53.9546 38.8759 53.9576 38.8774C53.9605 38.8788 53.9638 38.8796 53.9671 38.8797H60.2313C60.2403 38.8796 60.249 38.8763 60.2557 38.8703C60.2624 38.8644 60.2667 38.8562 60.2679 38.8473ZM36.0092 45.9973C36.3298 46.9919 37.4919 46.939 38.3266 46.8399C39.8377 46.6604 41.3528 45.8721 41.733 44.2612C41.8655 43.6986 41.9514 42.9578 42.1537 42.1757C42.2903 41.6468 41.2514 41.7197 40.9057 41.7342C38.8089 41.8194 35.0352 42.9722 36.0092 45.9973Z" stroke="#80C2E2" stroke-width="2"/>
<path d="M67.9098 33.2566L63.7695 33.2422" stroke="#77507A" stroke-width="2"/>
<path d="M108.545 45.4512C108.839 45.6993 109.126 45.854 109.408 45.9155C113.228 46.7477 114.362 43.1566 114.72 40.2216C114.953 38.3163 114.552 35.4845 112.064 35.4694C110.657 35.4611 109.558 36.0352 108.766 37.1917C107.696 38.7558 107.398 40.4685 107.419 42.3869C107.431 43.5101 107.682 44.7228 108.545 45.4512Z" stroke="#F68D97" stroke-width="2"/>
<path d="M67.2219 39.9341L65.1534 39.9602M69.7232 42.12C68.2397 42.1118 66.7572 42.1101 65.2759 42.1152C65.109 42.1156 64.9372 42.1244 64.7604 42.1413M73.6058 44.795C67.0176 44.7902 60.428 44.7764 53.8398 44.8039M65.0324 46.9445L63.8852 46.9589M64.6941 48.7156L63.5788 48.7411" stroke="#77507A" stroke-width="2"/>
<path d="M62.6014 9.83873C63.5579 10.7347 64.4764 11.6716 65.3571 12.6492C65.3815 12.6763 65.3756 12.6898 65.3395 12.6898L59.8261 12.6919C59.8162 12.6918 59.8064 12.694 59.7974 12.6981C59.7884 12.7023 59.7804 12.7084 59.7741 12.7159L58.0228 14.778C57.9877 14.8193 57.9969 14.8399 58.0506 14.8399H67.1158C67.1309 14.8399 67.1459 14.8434 67.1597 14.8502C67.1734 14.857 67.1854 14.8669 67.1949 14.8792C67.7726 15.6353 68.3234 16.4116 68.8474 17.2081C68.8807 17.259 68.8674 17.2843 68.8075 17.2838C64.6665 17.2531 60.5255 17.2551 56.3846 17.29C56.3597 17.2902 56.3353 17.2968 56.3135 17.3092C56.2918 17.3216 56.2734 17.3393 56.2601 17.3608L55.0115 19.3783C54.9898 19.4136 54.9993 19.4312 55.0399 19.4312H70.1488C70.1601 19.4312 70.1712 19.4343 70.1809 19.4401C70.1907 19.4459 70.1987 19.4542 70.2042 19.4642C70.6493 20.2484 71.0615 21.0501 71.4407 21.8696C71.4425 21.8736 71.4433 21.8781 71.443 21.8825C71.4427 21.8869 71.4413 21.8912 71.4389 21.895C71.4366 21.8987 71.4333 21.9018 71.4295 21.904C71.4257 21.9062 71.4214 21.9073 71.417 21.9074H53.8163C53.8045 21.9074 53.793 21.9108 53.7832 21.9171C53.7734 21.9235 53.7656 21.9325 53.7608 21.9432L52.778 24.0197C52.7752 24.0255 52.7739 24.0319 52.7743 24.0384C52.7747 24.0448 52.7766 24.051 52.78 24.0565C52.7834 24.0619 52.7881 24.0664 52.7937 24.0695C52.7992 24.0725 52.8055 24.0741 52.8118 24.0741H72.3701C72.3803 24.0741 72.3903 24.0772 72.3987 24.083C72.4072 24.0887 72.4137 24.0969 72.4174 24.1064C72.7232 24.8681 73.0019 25.6398 73.2535 26.4216C73.2563 26.4305 73.257 26.4399 73.2555 26.4491C73.2541 26.4583 73.2505 26.4671 73.2452 26.4746C73.2399 26.4821 73.2329 26.4882 73.2248 26.4924C73.2167 26.4966 73.2078 26.4987 73.1987 26.4987H51.9839C51.9706 26.4987 51.9576 26.503 51.9469 26.5111C51.9362 26.5191 51.9283 26.5304 51.9244 26.5434L51.3196 28.5766C51.3171 28.5848 51.3165 28.5935 51.3179 28.602C51.3194 28.6105 51.3227 28.6185 51.3278 28.6255C51.3329 28.6325 51.3395 28.6381 51.3471 28.6421C51.3547 28.646 51.3632 28.6481 51.3717 28.6481H73.8623C73.8714 28.6481 73.8804 28.6512 73.8878 28.6569C73.8953 28.6626 73.9008 28.6706 73.9035 28.6798C74.1249 29.4098 74.2976 30.1492 74.4216 30.898C73.6397 30.9246 72.8618 30.9934 72.088 31.1044C72.0684 31.0501 60.8117 31.0728 59.7504 31.0728C59.7439 31.0727 59.7376 31.0744 59.7319 31.0775C59.7262 31.0806 59.7214 31.0851 59.7179 31.0906L59.7071 31.1071C58.5135 30.9375 57.3194 30.932 56.1248 31.0906L50.7819 31.0728C50.7673 31.0727 50.7532 31.0779 50.7419 31.0874C50.7307 31.097 50.723 31.1103 50.7203 31.125L50.3605 33.172C50.3589 33.1812 50.3593 33.1907 50.3617 33.1997C50.364 33.2088 50.3683 33.2172 50.3742 33.2243C50.3801 33.2315 50.3874 33.2372 50.3957 33.2411C50.4039 33.245 50.4129 33.247 50.4221 33.247L51.3562 33.2422C48.8217 35.6991 47.8706 39.313 48.0215 42.8044C48.1432 45.6307 49.3012 48.0168 51.6971 49.5066L51.6822 49.5197C51.6761 49.525 51.6717 49.532 51.6694 49.5398C51.6672 49.5476 51.6671 49.5559 51.6693 49.5637L52.0468 50.8334C52.0511 50.8478 52.0598 50.8604 52.0717 50.8693C52.0835 50.8782 52.0977 50.883 52.1124 50.883C53.288 50.8816 54.4625 50.8818 55.6358 50.8837C55.7981 50.8837 56.07 50.9456 56.2966 50.8795C56.6044 50.8775 56.9406 50.9167 57.2186 50.918C58.1335 50.9231 59.0485 50.9121 59.9634 50.885C60.2773 50.9428 60.6615 50.8816 60.8874 50.8816L67.4242 50.883C67.7394 50.883 68.2339 50.9325 68.6553 50.8678C69.7731 50.9146 70.8913 50.93 72.0096 50.9139C72.1131 50.9119 72.2524 50.8898 72.3748 50.8974C72.6783 50.9235 72.9683 50.916 73.2447 50.8747C73.2524 50.8736 73.2602 50.8746 73.2675 50.8774C73.2747 50.8803 73.2811 50.8849 73.2861 50.891C73.2911 50.897 73.2945 50.9042 73.296 50.912C73.2976 50.9197 73.2971 50.9277 73.2947 50.9352C73.0242 51.79 72.7236 52.634 72.3931 53.4671C72.3897 53.4757 72.3838 53.483 72.3762 53.4882C72.3687 53.4933 72.3597 53.4961 72.3505 53.496H52.9992C52.9936 53.4961 52.9881 53.4975 52.9832 53.5003C52.9784 53.503 52.9743 53.507 52.9713 53.5118C52.9683 53.5166 52.9666 53.5221 52.9663 53.5277C52.9659 53.5334 52.967 53.5391 52.9694 53.5442L53.9482 55.6304C53.9526 55.64 53.9597 55.6482 53.9686 55.6539C53.9774 55.6596 53.9877 55.6627 53.9982 55.6627H71.3643C71.3722 55.6628 71.3799 55.6648 71.3868 55.6687C71.3937 55.6726 71.3995 55.6782 71.4037 55.6849C71.4079 55.6916 71.4103 55.6993 71.4108 55.7072C71.4112 55.7151 71.4097 55.723 71.4062 55.7301C70.9945 56.6018 70.551 57.457 70.0757 58.2957C70.0673 58.3107 70.0551 58.3232 70.0403 58.3319C70.0254 58.3406 70.0085 58.3452 69.9912 58.3452H55.2807C55.2496 58.3452 55.2426 58.3585 55.2597 58.3851L56.6119 60.4638C56.6181 60.4733 56.6265 60.4811 56.6364 60.4865C56.6464 60.4919 56.6574 60.4947 56.6687 60.4947C60.416 60.4943 64.1633 60.4945 67.9105 60.4954C68.1121 60.4954 68.4327 60.5298 68.708 60.4865C68.7337 60.4823 68.7392 60.4913 68.7243 60.5133C68.1637 61.3511 67.5751 62.168 66.9582 62.964C66.9523 62.9715 66.9448 62.9776 66.9362 62.9818C66.9277 62.9859 66.9183 62.9881 66.9088 62.9881H58.2048C58.1669 62.9881 58.1604 63.0028 58.1852 63.0321L59.9235 65.0736C59.9452 65.0991 59.972 65.1195 60.0021 65.1335C60.0322 65.1475 60.0649 65.1548 60.098 65.1548H65.0696C65.1075 65.1548 65.1136 65.169 65.0879 65.1974C64.2915 66.0655 63.4643 66.9039 62.6062 67.7128C62.5922 67.7133 62.5696 67.7277 62.5385 67.7561C47.8977 81.087 25.7663 80.5807 11.6876 66.6412C3.99212 59.0207 -0.130575 48.4886 0.171779 37.5679C0.714933 17.9682 15.7143 1.66249 35.0338 0.227671C44.5062 -0.47598 53.7486 2.52915 61.1072 8.55868C61.5537 8.9246 62.0975 9.41846 62.6014 9.83873ZM26.1215 32.989C26.1379 32.9956 26.1517 33.0072 26.1605 33.0219C26.1694 33.0365 26.1728 33.0533 26.1702 33.0695L23.1493 50.8506C23.1479 50.8588 23.1483 50.8671 23.1504 50.875C23.1525 50.883 23.1562 50.8904 23.1614 50.8967C23.1665 50.903 23.173 50.908 23.1802 50.9115C23.1875 50.9149 23.1954 50.9167 23.2034 50.9167H28.0012C28.01 50.9167 28.0186 50.9135 28.0254 50.9077C28.0322 50.9019 28.0368 50.8939 28.0384 50.885L32.1036 26.9637C32.1043 26.9594 32.104 26.955 32.1029 26.9508C32.1017 26.9466 32.0997 26.9427 32.097 26.9393C32.0942 26.936 32.0908 26.9333 32.0869 26.9315C32.083 26.9296 32.0788 26.9286 32.0745 26.9286L23.3698 26.9279C23.3604 26.9279 23.3512 26.9308 23.3434 26.9362C23.3356 26.9415 23.3295 26.9492 23.3259 26.9581L17.7245 40.9314C17.716 40.953 17.7103 40.9521 17.7076 40.9287C17.6752 40.6471 17.6384 40.1546 17.5974 39.4512C17.3539 35.2903 17.1117 31.1289 16.8709 26.9671C16.8704 26.9574 16.8665 26.9482 16.86 26.9411C16.8534 26.934 16.8446 26.9293 16.8351 26.9279C16.6321 26.8997 16.3744 26.9286 16.2351 26.9286H8.50985C8.49722 26.9102 8.47873 26.9045 8.45438 26.9114C8.44406 26.9144 8.43478 26.9204 8.4276 26.9285C8.42043 26.9367 8.41565 26.9467 8.4138 26.9575L4.35941 50.8768C4.35863 50.8817 4.35888 50.8867 4.36015 50.8915C4.36141 50.8963 4.36367 50.9007 4.36676 50.9045C4.36984 50.9083 4.37369 50.9114 4.37802 50.9135C4.38236 50.9156 4.38709 50.9167 4.39188 50.9167H9.20181C9.21465 50.9167 9.22707 50.9121 9.23685 50.9036C9.24664 50.8952 9.25316 50.8835 9.25525 50.8706C10.2667 44.9204 11.2736 38.9956 12.2761 33.0964C12.2862 33.0358 12.3099 32.9719 12.3816 32.9946C12.3917 32.9978 12.4007 33.0041 12.4072 33.0127C12.4137 33.0213 12.4175 33.0318 12.4181 33.0427L13.4246 50.8823C13.4251 50.8916 13.4291 50.9003 13.4358 50.9067C13.4425 50.9131 13.4513 50.9167 13.4605 50.9167H18.8683C18.8759 50.9167 18.8833 50.9144 18.8896 50.9101C18.8958 50.9058 18.9007 50.8997 18.9035 50.8926C21.2195 45.1084 23.5349 39.3253 25.8495 33.5434C25.8725 33.485 26.068 32.9684 26.1215 32.989ZM41.4908 49.0272L41.2216 50.8761C41.2208 50.8811 41.2211 50.8862 41.2224 50.891C41.2237 50.8959 41.2261 50.9004 41.2293 50.9043C41.2325 50.9081 41.2365 50.9112 41.241 50.9134C41.2455 50.9155 41.2504 50.9166 41.2554 50.9167H45.7061C45.7158 50.9167 45.7251 50.9132 45.7326 50.9069C45.74 50.9007 45.745 50.8919 45.7467 50.8823C46.5144 46.5338 47.341 42.2129 48.1771 37.8823C48.2957 37.266 48.3619 36.8304 48.3759 36.5754C48.5592 33.2229 45.3294 31.3651 42.4946 31.1237C42.2605 31.1035 41.8098 31.0879 41.1424 31.0769C38.961 31.0404 36.5341 30.9916 34.5197 31.9931C34.4984 32.0037 34.4794 32.0187 34.4641 32.0372C34.4487 32.0556 34.4372 32.0772 34.4304 32.1004L33.1642 36.4083C33.1547 36.4404 33.1642 36.4477 33.1926 36.4303C33.7581 36.0877 34.515 35.9392 35.1576 35.8264C36.8301 35.5338 38.515 35.3772 40.2124 35.3566C41.9994 35.3352 43.3313 36.4543 42.7171 38.4319C42.713 38.4454 42.7046 38.4571 42.6932 38.4652C42.6818 38.4734 42.6681 38.4773 42.6542 38.4766C41.5341 38.4215 40.4234 38.3782 39.306 38.4669C38.2197 38.5541 37.2874 38.657 36.509 38.7758C32.6481 39.3666 29.9222 42.6538 30.3876 46.6803C30.765 49.9448 33.518 51.5495 36.5483 51.1835C38.4077 50.9586 40.0514 50.2529 41.4698 49.0155C41.4869 49.0004 41.4939 49.0043 41.4908 49.0272Z" fill="#0084C5"/>
<path d="M124.999 37.2846V40.139C124.484 53.095 117.932 64.8047 107.147 71.7084C100.868 75.7281 93.5936 77.6465 86.1728 77.425C78.3149 77.1897 70.798 74.307 64.6096 69.4399C63.9228 68.8993 63.2547 68.3236 62.6054 67.7128C63.4635 66.9039 64.2908 66.0655 65.0871 65.1974C65.1128 65.169 65.1067 65.1548 65.0689 65.1548H60.0973C60.0642 65.1548 60.0314 65.1475 60.0013 65.1335C59.9712 65.1195 59.9444 65.0991 59.9228 65.0736L58.1844 63.0321C58.1596 63.0028 58.1661 62.9881 58.204 62.9881H66.908C66.9175 62.9881 66.9269 62.9859 66.9355 62.9817C66.944 62.9776 66.9515 62.9715 66.9574 62.964C67.5743 62.168 68.163 61.3511 68.7235 60.5133C68.7384 60.4913 68.733 60.4823 68.7073 60.4865C68.432 60.5298 68.1113 60.4954 67.9098 60.4954C64.1625 60.4945 60.4152 60.4943 56.6679 60.4947C56.6566 60.4947 56.6456 60.4919 56.6357 60.4865C56.6258 60.4811 56.6173 60.4733 56.6111 60.4638L55.2589 58.3851C55.2418 58.3585 55.2488 58.3452 55.2799 58.3452H69.9904C70.0077 58.3452 70.0246 58.3406 70.0395 58.3319C70.0543 58.3232 70.0666 58.3107 70.075 58.2957C70.5502 57.457 70.9937 56.6018 71.4054 55.7301C71.4089 55.723 71.4104 55.7151 71.41 55.7072C71.4096 55.6993 71.4071 55.6916 71.403 55.6849C71.3988 55.6782 71.393 55.6726 71.3861 55.6687C71.3792 55.6648 71.3714 55.6628 71.3635 55.6627H53.9974C53.9869 55.6627 53.9767 55.6596 53.9678 55.6539C53.9589 55.6482 53.9519 55.64 53.9474 55.6304L52.9686 53.5442C52.9662 53.5391 52.9652 53.5334 52.9655 53.5277C52.9658 53.5221 52.9675 53.5166 52.9705 53.5118C52.9735 53.507 52.9776 53.503 52.9825 53.5003C52.9873 53.4975 52.9928 53.4961 52.9984 53.496H72.3497C72.3589 53.4961 72.3679 53.4933 72.3755 53.4882C72.3831 53.483 72.3889 53.4757 72.3923 53.4671C72.7229 52.634 73.0234 51.79 73.294 50.9352C73.2963 50.9277 73.2968 50.9197 73.2953 50.912C73.2938 50.9042 73.2903 50.897 73.2853 50.891C73.2804 50.8849 73.2739 50.8803 73.2667 50.8774C73.2594 50.8746 73.2516 50.8736 73.2439 50.8747C72.9675 50.916 72.6775 50.9235 72.3741 50.8974C72.9779 50.8369 73.4755 50.7704 73.8669 50.6979C76.699 50.1745 78.8148 48.3497 79.1564 45.326C79.2754 44.2722 79.2863 43.1084 78.9386 42.1289C78.3075 40.3488 76.7984 39.7497 75.1987 39.2036C75.2005 38.3787 75.1893 37.554 75.1649 36.7295C75.1507 36.2659 75.0804 35.7135 75.0635 35.2025C75.6524 35.1539 76.2411 35.1479 76.8295 35.1846C77.5425 35.2286 78.4583 35.4137 79.2748 35.5024C79.2986 35.505 79.3225 35.4986 79.342 35.4844C79.3615 35.4701 79.3751 35.4491 79.3803 35.4253L80.2616 31.3548C80.2627 31.35 80.2628 31.3451 80.262 31.3403C80.2611 31.3355 80.2593 31.3309 80.2566 31.3269C80.254 31.3228 80.2505 31.3193 80.2465 31.3167C80.2425 31.314 80.238 31.3122 80.2332 31.3114C78.2906 30.9744 76.3824 30.898 74.4209 30.898C74.2969 30.1492 74.1241 29.4098 73.9027 28.6798C73.9 28.6706 73.8945 28.6626 73.887 28.6569C73.8796 28.6512 73.8706 28.6481 73.8615 28.6481H51.3709C51.3624 28.6481 51.3539 28.646 51.3463 28.6421C51.3387 28.6381 51.3321 28.6325 51.327 28.6255C51.322 28.6185 51.3186 28.6105 51.3172 28.602C51.3157 28.5935 51.3163 28.5848 51.3189 28.5766L51.9236 26.5434C51.9275 26.5304 51.9354 26.5191 51.9461 26.5111C51.9568 26.503 51.9698 26.4987 51.9831 26.4987H73.1979C73.207 26.4987 73.2159 26.4966 73.224 26.4924C73.2321 26.4882 73.2391 26.4821 73.2444 26.4746C73.2498 26.4671 73.2533 26.4583 73.2547 26.4491C73.2562 26.4399 73.2555 26.4305 73.2527 26.4216C73.0011 25.6398 72.7224 24.8681 72.4167 24.1064C72.4129 24.0969 72.4064 24.0887 72.3979 24.083C72.3895 24.0772 72.3795 24.0741 72.3693 24.0741H52.811C52.8047 24.0741 52.7984 24.0726 52.7929 24.0695C52.7873 24.0664 52.7826 24.0619 52.7792 24.0565C52.7758 24.051 52.7739 24.0448 52.7735 24.0384C52.7732 24.0319 52.7744 24.0255 52.7772 24.0197L53.76 21.9432C53.7648 21.9325 53.7726 21.9235 53.7824 21.9172C53.7923 21.9108 53.8037 21.9074 53.8155 21.9074H71.4163C71.4206 21.9073 71.4249 21.9062 71.4287 21.904C71.4326 21.9018 71.4358 21.8987 71.4381 21.895C71.4405 21.8912 71.4419 21.8869 71.4422 21.8825C71.4425 21.8781 71.4417 21.8736 71.4399 21.8696C71.0607 21.0501 70.6485 20.2484 70.2035 19.4642C70.1979 19.4542 70.1899 19.4459 70.1801 19.4401C70.1704 19.4343 70.1593 19.4312 70.148 19.4312H55.0391C54.9985 19.4312 54.989 19.4136 55.0107 19.3783L56.2593 17.3608C56.2726 17.3393 56.291 17.3216 56.3127 17.3092C56.3345 17.2968 56.3589 17.2902 56.3838 17.29C60.5248 17.2551 64.6657 17.2531 68.8067 17.2838C68.8667 17.2843 68.88 17.259 68.8466 17.2081C68.3226 16.4116 67.7718 15.6353 67.1941 14.8792C67.1846 14.8669 67.1726 14.857 67.1589 14.8502C67.1452 14.8434 67.1302 14.8399 67.115 14.8399H58.0498C57.9961 14.8399 57.9869 14.8193 58.0221 14.778L59.7733 12.7159C59.7797 12.7084 59.7876 12.7023 59.7966 12.6981C59.8056 12.694 59.8154 12.6918 59.8254 12.6919L65.3387 12.6898C65.3748 12.6898 65.3807 12.6763 65.3563 12.6492C64.4757 11.6716 63.5571 10.7347 62.6007 9.83873C69.893 3.19497 79.2639 -0.231111 89.0624 0.160952C101.885 0.673386 113.646 8.12259 119.976 19.4113C123.069 24.9286 124.744 30.8864 124.999 37.2846ZM86.8904 35.437L89.937 35.4976C89.946 35.4978 89.9548 35.4947 89.9618 35.4888C89.9687 35.4828 89.9734 35.4744 89.9748 35.4652L90.6668 31.3995C90.6675 31.3953 90.6673 31.391 90.6662 31.3868C90.6651 31.3827 90.6631 31.3789 90.6604 31.3756C90.6577 31.3724 90.6543 31.3697 90.6505 31.3679C90.6467 31.3661 90.6426 31.3651 90.6384 31.3651H87.6487C87.6461 31.365 87.6436 31.3644 87.6413 31.3633C87.639 31.3621 87.637 31.3605 87.6353 31.3584C87.6337 31.3564 87.6326 31.354 87.632 31.3515C87.6313 31.349 87.6313 31.3463 87.6318 31.3438L88.3806 26.9788C88.3816 26.9723 88.3813 26.9657 88.3797 26.9593C88.378 26.953 88.375 26.9471 88.3708 26.9421C88.3667 26.9371 88.3616 26.9331 88.3558 26.9304C88.3499 26.9277 88.3436 26.9264 88.3373 26.9265C87.1535 26.9329 85.984 26.9309 84.8287 26.9203C84.4337 26.9169 83.9237 26.9361 83.4631 26.9265C83.4345 26.9258 83.4066 26.9355 83.3845 26.9539C83.3624 26.9724 83.3475 26.9983 83.3427 27.0269C82.3172 33.2105 81.2889 39.4097 80.2576 45.6245C79.9079 47.7313 79.3255 50.0761 82.1644 50.6766C84.0455 51.0749 86.6131 51.101 88.3697 50.1676C88.3911 50.1563 88.4095 50.1401 88.4235 50.1202C88.4375 50.1004 88.4467 50.0775 88.4502 50.0534L88.9514 46.6521C88.96 46.5925 88.9375 46.5749 88.8838 46.5992C88.0863 46.9596 86.2235 47.1288 85.5173 46.5613C85.1548 46.2704 85.1663 45.857 85.2427 45.3831C85.773 42.0783 86.3087 38.7746 86.8498 35.4721C86.8513 35.4622 86.8563 35.4531 86.8637 35.4467C86.8712 35.4402 86.8807 35.4368 86.8904 35.437ZM97.5635 34.417L98.0992 31.4043C98.1001 31.3993 98.0998 31.3941 98.0986 31.3891C98.0973 31.3842 98.0949 31.3796 98.0917 31.3756C98.0885 31.3717 98.0845 31.3685 98.0799 31.3664C98.0754 31.3642 98.0704 31.363 98.0654 31.363L93.0261 31.3032C93.022 31.3031 93.0179 31.3046 93.0147 31.3074C93.0115 31.3102 93.0093 31.314 93.0085 31.3183L89.711 50.8334C89.7093 50.8437 89.7097 50.8542 89.7124 50.8642C89.715 50.8742 89.7198 50.8835 89.7264 50.8915C89.733 50.8994 89.7412 50.9058 89.7505 50.9102C89.7597 50.9145 89.7698 50.9167 89.78 50.9167H94.7597C94.7681 50.9166 94.7761 50.9136 94.7825 50.9082C94.7888 50.9028 94.793 50.8953 94.7942 50.8871C95.3548 47.5034 95.9114 44.131 96.4643 40.7698C96.8451 38.4587 97.5946 36.8402 100.091 36.4241C100.78 36.3094 101.393 36.2826 101.93 36.3436C101.939 36.3448 101.949 36.3423 101.956 36.3367C101.963 36.331 101.969 36.3227 101.97 36.3133C102.331 34.4617 102.842 32.8336 103.815 31.2757C103.818 31.2713 103.82 31.2663 103.82 31.2611C103.82 31.256 103.82 31.2508 103.818 31.246C103.815 31.2412 103.812 31.237 103.808 31.2337C103.804 31.2303 103.8 31.228 103.795 31.2268C103.486 31.1642 103.179 31.0996 102.866 31.1099C100.417 31.1917 98.9311 32.3906 97.627 34.4115C97.6222 34.4191 97.6151 34.4249 97.6067 34.428L97.5851 34.4356C97.5823 34.4364 97.5794 34.4366 97.5765 34.436C97.5737 34.4354 97.5711 34.4341 97.5689 34.4323C97.5667 34.4304 97.5651 34.428 97.5641 34.4253C97.5632 34.4227 97.5629 34.4198 97.5635 34.417ZM101.964 37.5212C100.14 42.9193 101.633 49.5541 107.89 50.9518C110.883 51.6203 114.363 51.2035 116.855 49.3409C119.842 47.1068 120.962 43.1779 120.731 39.5062C120.434 34.7692 117.373 31.6485 112.757 31.1746C108.02 30.6889 103.579 32.7401 101.964 37.5212ZM119.31 50.1408C119.321 50.1413 119.331 50.1461 119.339 50.1541C119.347 50.1622 119.351 50.1729 119.351 50.1841V51.3369C119.351 51.3486 119.356 51.3598 119.364 51.3681C119.372 51.3763 119.383 51.381 119.394 51.381H119.696C119.708 51.381 119.719 51.3763 119.727 51.3681C119.735 51.3598 119.739 51.3486 119.739 51.3369L119.741 50.1662C119.741 50.1603 119.742 50.1544 119.744 50.1489C119.747 50.1434 119.75 50.1385 119.754 50.1344C119.758 50.1303 119.763 50.1271 119.769 50.125C119.774 50.1229 119.78 50.1219 119.786 50.1222L120.262 50.147C120.268 50.1473 120.274 50.1464 120.279 50.1443C120.285 50.1423 120.29 50.1391 120.294 50.1351C120.298 50.131 120.302 50.1262 120.304 50.1208C120.306 50.1154 120.308 50.1096 120.308 50.1037L120.312 49.9124C120.312 49.9066 120.311 49.9008 120.309 49.8954C120.307 49.89 120.304 49.885 120.3 49.8809C120.296 49.8767 120.291 49.8734 120.286 49.8711C120.281 49.8689 120.275 49.8677 120.269 49.8677H118.843C118.832 49.8677 118.822 49.8717 118.814 49.8791C118.806 49.8865 118.801 49.8967 118.8 49.9076L118.784 50.072C118.784 50.078 118.784 50.0841 118.786 50.0899C118.788 50.0956 118.791 50.101 118.795 50.1056C118.798 50.1101 118.803 50.1139 118.809 50.1165C118.814 50.1191 118.82 50.1206 118.826 50.1208L119.31 50.1408ZM120.833 50.4668C120.835 50.4659 120.839 50.4661 120.841 50.4674C120.844 50.4686 120.846 50.4709 120.847 50.4737L121.251 51.3686C121.252 51.3707 121.253 51.3725 121.255 51.3738C121.257 51.375 121.26 51.3756 121.262 51.3755H121.562C121.564 51.3756 121.566 51.375 121.568 51.3738C121.57 51.3725 121.572 51.3707 121.573 51.3686L121.984 50.462C121.985 50.4596 121.987 50.4577 121.989 50.4565C121.992 50.4553 121.994 50.455 121.997 50.4555C122 50.4561 122.002 50.4575 122.004 50.4595C122.006 50.4616 122.007 50.4641 122.007 50.4668L122.006 51.3686C122.006 51.3702 122.006 51.3718 122.007 51.3733C122.008 51.3748 122.009 51.3762 122.01 51.3773C122.011 51.3785 122.012 51.3794 122.014 51.38C122.015 51.3806 122.017 51.381 122.018 51.381H122.382C122.385 51.381 122.388 51.3797 122.39 51.3773C122.392 51.375 122.394 51.3719 122.394 51.3686L122.398 49.8801C122.398 49.8785 122.397 49.8769 122.397 49.8754C122.396 49.8739 122.395 49.8725 122.394 49.8714C122.393 49.8702 122.392 49.8693 122.39 49.8687C122.389 49.868 122.387 49.8677 122.386 49.8677H121.905C121.903 49.8677 121.901 49.8684 121.899 49.8696C121.897 49.8708 121.895 49.8726 121.894 49.8746L121.426 50.9009C121.425 50.9029 121.424 50.9046 121.422 50.9058C121.42 50.9069 121.418 50.9076 121.416 50.9076C121.413 50.9076 121.411 50.9069 121.409 50.9058C121.407 50.9046 121.406 50.9029 121.405 50.9009L120.932 49.8753C120.931 49.8732 120.929 49.8715 120.928 49.8703C120.926 49.8691 120.923 49.8684 120.921 49.8684L120.426 49.8664C120.423 49.8664 120.42 49.8677 120.417 49.87C120.415 49.8723 120.414 49.8755 120.414 49.8787L120.428 51.3686C120.428 51.3719 120.429 51.375 120.432 51.3773C120.434 51.3797 120.437 51.381 120.44 51.381L120.808 51.3816C120.811 51.3816 120.814 51.3803 120.817 51.378C120.819 51.3757 120.82 51.3725 120.82 51.3693L120.805 50.4847C120.805 50.4821 120.806 50.4795 120.807 50.4774C120.809 50.4753 120.811 50.4738 120.814 50.473L120.833 50.4668Z" fill="#ED1B2E"/>
<path d="M26.1219 32.9891C26.0684 32.9684 25.8729 33.485 25.8499 33.5434C23.5353 39.3254 21.2199 45.1084 18.9039 50.8926C18.9011 50.8997 18.8962 50.9058 18.89 50.9101C18.8837 50.9144 18.8763 50.9167 18.8688 50.9167H13.4609C13.4517 50.9167 13.4429 50.9131 13.4362 50.9067C13.4296 50.9003 13.4255 50.8916 13.425 50.8823L12.4185 33.0427C12.4179 33.0318 12.4141 33.0213 12.4076 33.0127C12.4011 33.0041 12.3921 32.9978 12.382 32.9946C12.3103 32.9719 12.2866 33.0358 12.2765 33.0964C11.2741 38.9957 10.2671 44.9204 9.25566 50.8706C9.25357 50.8835 9.24705 50.8952 9.23726 50.9036C9.22747 50.9121 9.21505 50.9167 9.20222 50.9167H4.39229C4.3875 50.9167 4.38277 50.9156 4.37843 50.9135C4.37409 50.9114 4.37025 50.9083 4.36716 50.9045C4.36408 50.9007 4.36182 50.8963 4.36056 50.8915C4.35929 50.8867 4.35904 50.8817 4.35982 50.8768L8.41421 26.9575C8.41605 26.9467 8.42084 26.9367 8.42801 26.9285C8.43519 26.9204 8.44446 26.9144 8.45479 26.9114C8.47914 26.9045 8.49763 26.9102 8.51025 26.9286H16.2355C16.3748 26.9286 16.6325 26.8997 16.8355 26.9279C16.845 26.9293 16.8538 26.934 16.8604 26.9411C16.8669 26.9483 16.8708 26.9574 16.8713 26.9671C17.1121 31.1289 17.3543 35.2903 17.5978 39.4512C17.6388 40.1546 17.6756 40.6471 17.708 40.9287C17.7107 40.9521 17.7164 40.953 17.7249 40.9314L23.3263 26.9582C23.3299 26.9492 23.336 26.9415 23.3438 26.9362C23.3517 26.9308 23.3608 26.9279 23.3702 26.9279L32.0749 26.9286C32.0792 26.9286 32.0834 26.9296 32.0873 26.9315C32.0912 26.9333 32.0946 26.936 32.0974 26.9393C32.1001 26.9427 32.1022 26.9466 32.1033 26.9508C32.1044 26.955 32.1047 26.9594 32.104 26.9637L28.0388 50.885C28.0372 50.8939 28.0326 50.9019 28.0258 50.9077C28.019 50.9135 28.0105 50.9167 28.0016 50.9167H23.2038C23.1958 50.9167 23.1879 50.9149 23.1806 50.9115C23.1734 50.908 23.1669 50.903 23.1618 50.8967C23.1566 50.8904 23.1529 50.883 23.1508 50.8751C23.1487 50.8671 23.1483 50.8588 23.1497 50.8506L26.1706 33.0695C26.1732 33.0533 26.1698 33.0365 26.161 33.0219C26.1521 33.0072 26.1383 32.9956 26.1219 32.9891ZM86.851 35.4721C86.3099 38.7746 85.7742 42.0783 85.2439 45.3831C85.1674 45.857 85.156 46.2704 85.5185 46.5613C86.2247 47.1288 88.0875 46.9596 88.885 46.5992C88.9386 46.5749 88.9612 46.5925 88.9526 46.6521L88.4514 50.0534C88.4479 50.0775 88.4387 50.1004 88.4247 50.1202C88.4107 50.1401 88.3923 50.1563 88.3709 50.1676C86.6143 51.101 84.0466 51.0749 82.1656 50.6766C79.3267 50.0761 79.9091 47.7313 80.2588 45.6245C81.2901 39.4097 82.3184 33.2105 83.3439 27.0269C83.3487 26.9983 83.3636 26.9724 83.3857 26.9539C83.4078 26.9355 83.4357 26.9258 83.4643 26.9265C83.9249 26.9361 84.4349 26.9169 84.8299 26.9203C85.9852 26.9309 87.1547 26.9329 88.3384 26.9265C88.3448 26.9264 88.3511 26.9277 88.3569 26.9304C88.3627 26.9331 88.3679 26.9371 88.372 26.9421C88.3762 26.9471 88.3792 26.953 88.3808 26.9593C88.3825 26.9657 88.3828 26.9723 88.3817 26.9788L87.633 31.3438C87.6325 31.3463 87.6325 31.349 87.6331 31.3515C87.6338 31.354 87.6349 31.3564 87.6365 31.3584C87.6381 31.3605 87.6402 31.3621 87.6425 31.3633C87.6448 31.3644 87.6473 31.365 87.6499 31.3651H90.6396C90.6438 31.3651 90.6479 31.3661 90.6517 31.3679C90.6555 31.3697 90.6589 31.3724 90.6616 31.3756C90.6643 31.3789 90.6662 31.3827 90.6673 31.3868C90.6685 31.391 90.6687 31.3953 90.668 31.3995L89.976 35.4652C89.9746 35.4745 89.9699 35.4828 89.9629 35.4888C89.956 35.4947 89.9472 35.4978 89.9381 35.4976L86.8916 35.437C86.8819 35.4368 86.8724 35.4402 86.8649 35.4467C86.8575 35.4531 86.8525 35.4622 86.851 35.4721ZM74.4221 30.898C76.3836 30.898 78.2918 30.9744 80.2344 31.3114C80.2392 31.3122 80.2437 31.314 80.2477 31.3167C80.2517 31.3193 80.2552 31.3228 80.2578 31.3269C80.2605 31.3309 80.2623 31.3355 80.2632 31.3403C80.264 31.3451 80.2639 31.35 80.2628 31.3548L79.3815 35.4254C79.3763 35.4491 79.3626 35.4702 79.3432 35.4844C79.3237 35.4986 79.2998 35.505 79.2759 35.5024C78.4595 35.4137 77.5437 35.2286 76.8307 35.1846C76.2423 35.1479 75.6536 35.1539 75.0646 35.2025C74.1454 35.2101 72.5247 35.5602 72.3489 36.7295C72.1243 38.2262 74.1407 38.8948 75.1999 39.2036C76.7996 39.7497 78.3087 40.3488 78.9398 42.1289C79.2875 43.1084 79.2766 44.2722 79.1576 45.326C78.816 48.3497 76.7002 50.1745 73.8681 50.6979C73.4767 50.7704 72.979 50.8369 72.3752 50.8974C72.2528 50.8898 72.1135 50.9119 72.01 50.9139C70.8917 50.93 69.7736 50.9146 68.6557 50.8678C67.2048 50.8266 65.81 50.6195 64.4775 50.0665C64.4686 50.0628 64.4612 50.0561 64.4566 50.0476C64.452 50.039 64.4506 50.0292 64.4525 50.0197L64.696 48.7156L65.0342 46.9445L65.2141 46.0145C65.215 46.0101 65.2167 46.006 65.2192 46.0023C65.2218 45.9987 65.225 45.9956 65.2287 45.9932C65.2325 45.9909 65.2367 45.9894 65.241 45.9888C65.2454 45.9882 65.2498 45.9885 65.254 45.9897C67.1777 46.5496 69.138 46.8232 71.1347 46.8103C72.4902 46.8021 73.467 46.2786 73.6077 44.795C73.6178 43.8616 72.8176 43.4007 72.0884 43.0919C71.4973 42.842 70.7095 42.518 69.7251 42.12C68.6293 41.5367 67.8481 40.992 67.2237 39.9341C66.84 39.1477 66.6668 38.2904 66.7042 37.3623C66.7631 35.8889 67.0506 34.4589 67.9089 33.2566C68.9296 31.9532 70.4982 31.3355 72.0884 31.1044C72.8623 30.9934 73.6401 30.9246 74.4221 30.898ZM59.7075 31.1072C61.337 31.4607 62.6269 31.9587 63.7686 33.2422C65.3629 35.2555 65.3548 37.5129 65.1553 39.9602L64.7623 42.1413L64.6919 42.457C64.6898 42.4667 64.6845 42.4752 64.677 42.4814C64.6695 42.4875 64.6602 42.4908 64.6507 42.4907H53.3202C53.311 42.4908 53.3022 42.494 53.2953 42.4999C53.2883 42.5059 53.2837 42.5141 53.2823 42.5231C53.1551 43.3285 53.3838 44.134 53.8417 44.8039C54.4622 45.8109 55.3145 46.4256 56.3985 46.648C57.4528 46.8644 58.5578 46.9291 59.7136 46.842C61.341 46.7188 62.6803 46.2037 64.0764 45.3673C64.131 45.3347 64.1528 45.3501 64.142 45.4133L63.887 46.9589L63.5806 48.7411L63.3831 49.8836C63.3814 49.8943 63.3773 49.9046 63.3713 49.9136C63.3652 49.9227 63.3572 49.9302 63.3479 49.9358C62.242 50.5906 61.2152 50.7523 59.9639 50.885C59.0489 50.9121 58.1339 50.9231 57.219 50.9181C56.941 50.9167 56.6048 50.8775 56.297 50.8795C56.2033 50.8561 56.0051 50.8284 55.7025 50.7963C54.3172 50.6491 52.9822 50.2192 51.6975 49.5066C49.3016 48.0168 48.1436 45.6307 48.0219 42.8044C47.871 39.313 48.8221 35.6991 51.3566 33.2422C52.7621 31.9993 54.3233 31.4098 56.1252 31.0906C57.3198 30.932 58.5139 30.9375 59.7075 31.1072ZM60.2682 38.8473C60.5442 36.757 59.5891 35.0388 57.3333 35.1028C55.6795 35.1502 54.5715 36.431 54.1535 37.9531C54.0728 38.2484 54.0036 38.5483 53.9459 38.8528C53.9452 38.856 53.9452 38.8593 53.9459 38.8625C53.9467 38.8657 53.9482 38.8687 53.9502 38.8713C53.9523 38.8738 53.9549 38.8759 53.9579 38.8774C53.9609 38.8788 53.9642 38.8796 53.9675 38.8796H60.2317C60.2407 38.8796 60.2493 38.8763 60.256 38.8703C60.2628 38.8644 60.2671 38.8562 60.2682 38.8473ZM41.4702 49.0155C40.0518 50.2529 38.4081 50.9586 36.5487 51.1836C33.5184 51.5495 30.7654 49.9448 30.388 46.6803C29.9226 42.6538 32.6485 39.3666 36.5094 38.7758C37.2878 38.657 38.2201 38.5541 39.3064 38.4669C40.4238 38.3782 41.5345 38.4215 42.6546 38.4766C42.6685 38.4773 42.6822 38.4734 42.6936 38.4653C42.705 38.4571 42.7134 38.4454 42.7175 38.4319C43.3317 36.4543 41.9998 35.3352 40.2128 35.3566C38.5154 35.3772 36.8305 35.5338 35.158 35.8264C34.5154 35.9392 33.7585 36.0877 33.193 36.4303C33.1646 36.4477 33.1551 36.4404 33.1646 36.4083L34.4308 32.1004C34.4377 32.0772 34.4491 32.0556 34.4645 32.0372C34.4798 32.0187 34.4988 32.0037 34.5201 31.9931C36.5345 30.9916 38.9614 31.0404 41.1428 31.0769C41.8102 31.0879 42.2609 31.1035 42.495 31.1237C45.3298 31.3651 48.5596 33.2229 48.3763 36.5754C48.3623 36.8304 48.2961 37.266 48.1775 37.8823C47.3414 42.2129 46.5149 46.5338 45.7471 50.8823C45.7454 50.8919 45.7404 50.9007 45.733 50.907C45.7255 50.9132 45.7162 50.9167 45.7065 50.9167H41.2558C41.2508 50.9166 41.2459 50.9155 41.2414 50.9134C41.2369 50.9112 41.2329 50.9081 41.2297 50.9043C41.2265 50.9004 41.2242 50.8959 41.2228 50.891C41.2215 50.8862 41.2212 50.8811 41.222 50.8761L41.4912 49.0272C41.4943 49.0043 41.4873 49.0004 41.4702 49.0155ZM36.0096 45.9973C36.3302 46.9919 37.4923 46.9389 38.3269 46.8399C39.838 46.6604 41.3532 45.8721 41.7333 44.2612C41.8659 43.6986 41.9518 42.9578 42.1541 42.1757C42.2907 41.6468 41.2517 41.7197 40.9061 41.7341C38.8092 41.8194 35.0356 42.9722 36.0096 45.9973Z" fill="white"/>
<path d="M56.1247 31.0906C54.3227 31.4098 52.7616 31.9993 51.356 33.2422L50.4219 33.247C50.4128 33.247 50.4038 33.245 50.3955 33.2411C50.3872 33.2372 50.3799 33.2315 50.374 33.2243C50.3681 33.2172 50.3639 33.2088 50.3615 33.1997C50.3591 33.1907 50.3587 33.1812 50.3603 33.172L50.7202 31.125C50.7229 31.1103 50.7305 31.097 50.7417 31.0874C50.753 31.0779 50.7671 31.0727 50.7817 31.0728L56.1247 31.0906ZM72.0879 31.1044C70.4976 31.3355 68.929 31.9532 67.9083 33.2566L63.7681 33.2422C62.6263 31.9587 61.3364 31.4607 59.7069 31.1071L59.7177 31.0906C59.7212 31.0851 59.7261 31.0806 59.7317 31.0775C59.7374 31.0744 59.7438 31.0727 59.7502 31.0728C60.8115 31.0728 72.0682 31.0501 72.0879 31.1044Z" fill="#ED1B2E"/>
<path d="M97.5861 34.4356L97.6077 34.428C97.616 34.4249 97.6232 34.4191 97.628 34.4115C98.9321 32.3906 100.418 31.1918 102.867 31.1099C103.18 31.0996 103.487 31.1642 103.795 31.2268C103.801 31.228 103.805 31.2303 103.809 31.2337C103.813 31.237 103.816 31.2412 103.818 31.246C103.821 31.2508 103.821 31.256 103.821 31.2611C103.821 31.2663 103.819 31.2713 103.816 31.2757C102.843 32.8336 102.332 34.4617 101.971 36.3133C101.97 36.3227 101.964 36.331 101.957 36.3367C101.95 36.3423 101.94 36.3448 101.931 36.3436C101.394 36.2826 100.781 36.3094 100.092 36.4241C97.5955 36.8402 96.8461 38.4587 96.4653 40.7698C95.9124 44.131 95.3557 47.5034 94.7952 50.8871C94.7939 50.8953 94.7897 50.9028 94.7834 50.9082C94.7771 50.9136 94.7691 50.9166 94.7607 50.9167H89.781C89.7708 50.9167 89.7607 50.9145 89.7514 50.9102C89.7421 50.9058 89.7339 50.8994 89.7273 50.8915C89.7208 50.8836 89.716 50.8742 89.7133 50.8642C89.7107 50.8542 89.7102 50.8437 89.712 50.8334L93.0095 31.3183C93.0103 31.314 93.0125 31.3102 93.0157 31.3074C93.0189 31.3046 93.0229 31.3031 93.0271 31.3032L98.0663 31.363C98.0714 31.363 98.0763 31.3642 98.0809 31.3664C98.0854 31.3685 98.0895 31.3717 98.0927 31.3756C98.0959 31.3796 98.0982 31.3842 98.0995 31.3891C98.1008 31.3941 98.101 31.3993 98.1001 31.4043L97.5644 34.417C97.5639 34.4198 97.5641 34.4227 97.5651 34.4253C97.566 34.428 97.5677 34.4304 97.5699 34.4323C97.572 34.4341 97.5747 34.4354 97.5775 34.436C97.5803 34.4366 97.5833 34.4364 97.5861 34.4356ZM107.891 50.9518C101.634 49.5541 100.141 42.9193 101.965 37.5212C103.58 32.7401 108.021 30.689 112.758 31.1746C117.374 31.6485 120.435 34.7692 120.732 39.5063C120.963 43.1779 119.843 47.1068 116.856 49.3409C114.364 51.2035 110.884 51.6203 107.891 50.9518ZM108.544 45.4512C108.838 45.6993 109.126 45.854 109.408 45.9155C113.227 46.7477 114.362 43.1566 114.719 40.2216C114.952 38.3163 114.552 35.4845 112.063 35.4694C110.657 35.4611 109.558 36.0352 108.766 37.1917C107.695 38.7558 107.397 40.4685 107.418 42.3869C107.43 43.5101 107.681 44.7228 108.544 45.4512Z" fill="white"/>
<path d="M63.7686 33.2422L67.9089 33.2566C67.0505 34.4589 66.7631 35.8889 66.7042 37.3623C66.6668 38.2904 66.8399 39.1476 67.2237 39.9341L65.1552 39.9602C65.3548 37.5129 65.3629 35.2554 63.7686 33.2422ZM57.3333 35.1027C59.5891 35.0388 60.5442 36.757 60.2682 38.8473C60.2671 38.8562 60.2627 38.8644 60.256 38.8703C60.2493 38.8762 60.2407 38.8795 60.2317 38.8796H53.9675C53.9641 38.8796 53.9609 38.8788 53.9579 38.8773C53.9549 38.8759 53.9523 38.8738 53.9502 38.8712C53.9481 38.8687 53.9467 38.8657 53.9459 38.8625C53.9451 38.8593 53.9451 38.856 53.9458 38.8528C54.0035 38.5483 54.0728 38.2484 54.1535 37.9531C54.5715 36.4309 55.6795 35.1502 57.3333 35.1027ZM75.0646 35.2025C75.0815 35.7135 75.1519 36.2659 75.1661 36.7295C75.1904 37.5539 75.2017 38.3786 75.1999 39.2036C74.1406 38.8948 72.1243 38.2262 72.3488 36.7295C72.5247 35.5601 74.1454 35.21 75.0646 35.2025Z" fill="#0084C5"/>
<path d="M108.544 45.4512C107.681 44.7227 107.43 43.5101 107.418 42.3869C107.397 40.4685 107.695 38.7558 108.765 37.1917C109.557 36.0352 110.656 35.4611 112.063 35.4694C114.551 35.4845 114.952 38.3163 114.719 40.2216C114.361 43.1566 113.227 46.7477 109.407 45.9154C109.125 45.854 108.838 45.6992 108.544 45.4512ZM67.2232 39.9341C67.8475 40.992 68.6287 41.5367 69.7245 42.12C68.2409 42.1117 66.7585 42.1101 65.2771 42.1152C65.1103 42.1156 64.9385 42.1243 64.7617 42.1413L65.1547 39.9602L67.2232 39.9341Z" fill="#ED1B2E"/>
<path d="M38.3266 46.8399C37.4919 46.9389 36.3298 46.9919 36.0092 45.9973C35.0352 42.9722 38.8089 41.8194 40.9057 41.7341C41.2514 41.7197 42.2903 41.6468 42.1537 42.1757C41.9514 42.9578 41.8655 43.6986 41.733 44.2612C41.3528 45.8721 39.8377 46.6604 38.3266 46.8399ZM69.7247 42.12C70.7091 42.518 71.4969 42.842 72.0881 43.0919C72.8172 43.4007 73.6174 43.8616 73.6073 44.795C67.0191 44.7901 60.4295 44.7764 53.8413 44.8039C53.3834 44.134 53.1548 43.3285 53.2819 42.5231C53.2834 42.514 53.288 42.5058 53.2949 42.4999C53.3019 42.494 53.3107 42.4907 53.3198 42.4907H64.6503C64.6599 42.4908 64.6691 42.4875 64.6767 42.4813C64.6842 42.4752 64.6894 42.4666 64.6916 42.457L64.7619 42.1413C64.9387 42.1243 65.1105 42.1156 65.2773 42.1152C66.7587 42.1101 68.2411 42.1117 69.7247 42.12Z" fill="#0084C5"/>
<path d="M73.6058 44.795C73.4651 46.2786 72.4884 46.8021 71.1329 46.8103C69.1361 46.8232 67.1759 46.5496 65.2522 45.9897C65.248 45.9885 65.2435 45.9882 65.2392 45.9888C65.2348 45.9894 65.2306 45.9909 65.2269 45.9932C65.2231 45.9956 65.2199 45.9986 65.2174 46.0023C65.2149 46.006 65.2131 46.0101 65.2123 46.0145L65.0324 46.9444L63.8852 46.9589L64.1402 45.4133C64.151 45.3501 64.1291 45.3347 64.0746 45.3673C62.6785 46.2037 61.3392 46.7188 59.7117 46.842C58.556 46.9291 57.451 46.8644 56.3967 46.648C55.3126 46.4256 54.4603 45.8109 53.8398 44.8039C60.428 44.7764 67.0176 44.7902 73.6058 44.795Z" fill="#ED1B2E"/>
<path d="M65.0356 46.9445L64.6974 48.7156L63.582 48.7411L63.8884 46.9589L65.0356 46.9445Z" fill="#0084C5"/>
<path d="M64.6958 48.7156L64.4523 50.0197C64.4504 50.0292 64.4519 50.039 64.4565 50.0476C64.461 50.0561 64.4684 50.0628 64.4774 50.0665C65.8099 50.6195 67.2046 50.8266 68.6555 50.8678C68.2341 50.9325 67.7397 50.883 67.4245 50.883L60.8877 50.8816C60.6618 50.8816 60.2776 50.9428 59.9637 50.885C61.2151 50.7523 62.2418 50.5906 63.3478 49.9358C63.3571 49.9302 63.365 49.9226 63.3711 49.9136C63.3772 49.9046 63.3812 49.8943 63.3829 49.8835L63.5804 48.7411L64.6958 48.7156ZM51.6973 49.5066C52.9821 50.2192 54.3171 50.6491 55.7023 50.7963C56.0049 50.8284 56.2031 50.8561 56.2969 50.8795C56.0703 50.9456 55.7984 50.8837 55.6361 50.8837C54.4627 50.8818 53.2882 50.8816 52.1126 50.883C52.098 50.883 52.0837 50.8782 52.0719 50.8693C52.0601 50.8604 52.0514 50.8478 52.047 50.8334L51.6696 49.5637C51.6674 49.5559 51.6674 49.5476 51.6697 49.5398C51.672 49.532 51.6764 49.525 51.6825 49.5197L51.6973 49.5066Z" fill="#ED1B2E"/>
<path d="M119.311 50.1408L118.827 50.1208C118.821 50.1206 118.815 50.1191 118.81 50.1165C118.804 50.1138 118.799 50.1101 118.796 50.1055C118.792 50.101 118.789 50.0956 118.787 50.0898C118.785 50.0841 118.785 50.078 118.785 50.072L118.801 49.9076C118.802 49.8967 118.807 49.8865 118.815 49.8791C118.823 49.8717 118.833 49.8677 118.844 49.8677H120.27C120.276 49.8677 120.282 49.8689 120.287 49.8711C120.292 49.8734 120.297 49.8767 120.301 49.8808C120.305 49.885 120.308 49.8899 120.31 49.8954C120.312 49.9008 120.314 49.9066 120.313 49.9124L120.309 50.1036C120.309 50.1095 120.307 50.1154 120.305 50.1208C120.303 50.1262 120.299 50.131 120.295 50.1351C120.291 50.1391 120.286 50.1422 120.28 50.1443C120.275 50.1463 120.269 50.1472 120.263 50.147L119.787 50.1222C119.781 50.1219 119.775 50.1229 119.77 50.1249C119.765 50.127 119.759 50.1302 119.755 50.1343C119.751 50.1385 119.748 50.1434 119.745 50.1489C119.743 50.1544 119.742 50.1603 119.742 50.1662L119.741 51.3369C119.741 51.3486 119.736 51.3598 119.728 51.368C119.72 51.3763 119.709 51.3809 119.697 51.3809H119.396C119.384 51.3809 119.373 51.3763 119.365 51.368C119.357 51.3598 119.352 51.3486 119.352 51.3369V50.1841C119.352 50.1729 119.348 50.1622 119.34 50.1541C119.332 50.1461 119.322 50.1413 119.311 50.1408ZM120.834 50.4668L120.815 50.473C120.812 50.4737 120.81 50.4753 120.808 50.4774C120.807 50.4795 120.806 50.482 120.806 50.4847L120.821 51.3692C120.821 51.3725 120.82 51.3757 120.818 51.378C120.816 51.3803 120.812 51.3816 120.809 51.3816L120.441 51.3809C120.438 51.3809 120.435 51.3796 120.433 51.3773C120.43 51.375 120.429 51.3718 120.429 51.3686L120.415 49.8787C120.415 49.8754 120.416 49.8723 120.418 49.87C120.421 49.8676 120.424 49.8663 120.427 49.8663L120.922 49.8684C120.924 49.8684 120.927 49.8691 120.929 49.8703C120.93 49.8715 120.932 49.8732 120.933 49.8753L121.406 50.9008C121.407 50.9029 121.408 50.9045 121.41 50.9057C121.412 50.9069 121.414 50.9075 121.417 50.9075C121.419 50.9075 121.421 50.9069 121.423 50.9057C121.425 50.9045 121.426 50.9029 121.427 50.9008L121.896 49.8746C121.897 49.8725 121.898 49.8708 121.9 49.8696C121.902 49.8684 121.904 49.8677 121.906 49.8677H122.387C122.388 49.8677 122.39 49.868 122.391 49.8687C122.393 49.8693 122.394 49.8702 122.395 49.8713C122.396 49.8725 122.397 49.8739 122.398 49.8754C122.398 49.8769 122.399 49.8785 122.399 49.8801L122.395 51.3686C122.395 51.3718 122.393 51.375 122.391 51.3773C122.389 51.3796 122.386 51.3809 122.383 51.3809H122.019C122.018 51.3809 122.016 51.3806 122.015 51.38C122.013 51.3794 122.012 51.3785 122.011 51.3773C122.01 51.3762 122.009 51.3748 122.008 51.3733C122.007 51.3718 122.007 51.3702 122.007 51.3686L122.008 50.4668C122.008 50.4641 122.007 50.4615 122.005 50.4595C122.003 50.4574 122.001 50.456 121.998 50.4555C121.996 50.4549 121.993 50.4553 121.99 50.4565C121.988 50.4576 121.986 50.4596 121.985 50.462L121.574 51.3686C121.573 51.3707 121.572 51.3725 121.57 51.3737C121.567 51.375 121.565 51.3755 121.563 51.3754H121.263C121.261 51.3755 121.258 51.375 121.256 51.3737C121.254 51.3725 121.253 51.3707 121.252 51.3686L120.848 50.4737C120.847 50.4709 120.845 50.4686 120.842 50.4673C120.84 50.4661 120.836 50.4659 120.834 50.4668Z" fill="white"/>
<path d="M122.483 62.8382C122.483 63.33 122.291 63.8016 121.949 64.1494C121.607 64.4972 121.143 64.6926 120.66 64.6926C120.176 64.6926 119.712 64.4972 119.37 64.1494C119.028 63.8016 118.836 63.33 118.836 62.8382C118.836 62.3463 119.028 61.8747 119.37 61.5269C119.712 61.1791 120.176 60.9838 120.66 60.9838C121.143 60.9838 121.607 61.1791 121.949 61.5269C122.291 61.8747 122.483 62.3463 122.483 62.8382ZM120.635 64.4311C120.827 64.4332 121.018 64.3945 121.197 64.3174C121.376 64.2403 121.539 64.1262 121.677 63.9816C121.814 63.8371 121.924 63.6649 122 63.4749C122.076 63.2849 122.116 63.0809 122.118 62.8744C122.12 62.6679 122.084 62.4631 122.012 62.2715C121.941 62.08 121.834 61.9055 121.7 61.758C121.565 61.6106 121.404 61.493 121.227 61.4121C121.05 61.3312 120.86 61.2885 120.667 61.2865C120.474 61.2844 120.283 61.3231 120.104 61.4002C119.925 61.4773 119.763 61.5914 119.625 61.736C119.487 61.8805 119.377 62.0527 119.302 62.2427C119.226 62.4326 119.186 62.6367 119.184 62.8432C119.182 63.0497 119.217 63.2545 119.289 63.4461C119.361 63.6376 119.467 63.8121 119.602 63.9596C119.737 64.107 119.897 64.2245 120.074 64.3055C120.252 64.3864 120.442 64.4291 120.635 64.4311H120.635Z" fill="#ED1B2E"/>
<path d="M120.624 62.9365H120.375C120.364 62.9365 120.353 62.9411 120.345 62.9492C120.337 62.9573 120.333 62.9683 120.333 62.9798V63.5294C120.333 63.5409 120.329 63.5519 120.321 63.56C120.313 63.5682 120.302 63.5727 120.291 63.5727H120.054C120.049 63.5727 120.043 63.5716 120.038 63.5694C120.033 63.5673 120.028 63.5641 120.024 63.56C120.02 63.556 120.017 63.5512 120.015 63.546C120.013 63.5407 120.012 63.5351 120.012 63.5294V62.0588C120.012 62.0477 120.016 62.037 120.023 62.0289C120.031 62.0208 120.041 62.016 120.052 62.0155C120.41 61.9997 120.892 61.9501 121.218 62.1118C121.336 62.17 121.4 62.2656 121.409 62.3986C121.434 62.7306 121.281 62.9053 120.951 62.9227C120.908 62.925 120.9 62.9438 120.926 62.9791L121.325 63.5232C121.35 63.5567 121.342 63.5732 121.3 63.5727L121.064 63.5686C121.053 63.5686 121.042 63.5658 121.033 63.5603C121.024 63.5549 121.016 63.5471 121.011 63.5377L120.679 62.9681C120.674 62.9585 120.666 62.9505 120.656 62.9449C120.646 62.9394 120.635 62.9365 120.624 62.9365ZM120.899 62.2267L120.381 62.2081C120.375 62.2078 120.368 62.2088 120.362 62.2111C120.356 62.2134 120.351 62.217 120.346 62.2215C120.342 62.226 120.338 62.2314 120.336 62.2374C120.333 62.2433 120.332 62.2498 120.332 62.2562L120.338 62.7047C120.338 62.7099 120.339 62.7151 120.341 62.7199C120.343 62.7247 120.346 62.729 120.35 62.7325C120.354 62.736 120.358 62.7388 120.363 62.7405C120.368 62.7422 120.373 62.7429 120.378 62.7425C120.627 62.7246 121.096 62.8416 121.111 62.4591C121.117 62.3096 121.046 62.2322 120.899 62.2267Z" fill="#ED1B2E"/>
</g>
<defs>
<clipPath id="clip0_894_33233">
<rect width="125" height="78" fill="white"/>
</clipPath>
</defs>
</svg>
