<svg width="125" height="78" fill="none" xmlns="http://www.w3.org/2000/svg"><g clip-path="url(#a)"><path d="M62.6 9.839a46.452 46.452 0 0 1 2.756 2.81c.025.027.019.04-.017.04l-5.514.003a.068.068 0 0 0-.052.024l-1.75 2.062c-.036.041-.027.062.027.062h9.065a.1.1 0 0 1 .08.04 40.48 40.48 0 0 1 1.652 2.328c.033.051.02.076-.04.076a785.4 785.4 0 0 0-12.423.006.146.146 0 0 0-.125.07l-1.248 2.018c-.022.036-.013.053.028.053h15.109c.011 0 .022.003.032.01.01.005.018.013.023.023.445.784.858 1.586 1.237 2.406a.027.027 0 0 1-.002.025.025.025 0 0 1-.01.009.025.025 0 0 1-.012.003h-17.6a.06.06 0 0 0-.056.036l-.983 2.077a.039.039 0 0 0 .002.037.038.038 0 0 0 .032.017h19.558c.01 0 .02.003.029.009a.05.05 0 0 1 .019.023c.305.762.584 1.534.836 2.316a.06.06 0 0 1-.029.07.056.056 0 0 1-.026.007H51.983a.063.063 0 0 0-.06.045l-.604 2.033a.056.056 0 0 0 .027.066.056.056 0 0 0 .025.005h22.49a.04.04 0 0 1 .026.009.044.044 0 0 1 .016.023c.221.73.394 1.47.518 2.218" stroke="#77507A" stroke-width="2"/><path d="M74.423 30.898c-.782.027-1.56.095-2.333.206" stroke="#80C2E2" stroke-width="2"/><path d="M72.088 31.104c-.02-.054-11.276-.031-12.338-.031a.038.038 0 0 0-.032.018l-.011.016" stroke="#77507A" stroke-width="2"/><path d="M59.707 31.107a13.087 13.087 0 0 0-3.582-.016" stroke="#80C2E2" stroke-width="2"/><path d="m56.125 31.09-5.343-.017a.061.061 0 0 0-.04.014.065.065 0 0 0-.022.038l-.36 2.047a.065.065 0 0 0 .035.07.062.062 0 0 0 .027.005l.934-.005" stroke="#77507A" stroke-width="2"/><path d="M51.358 33.242c-2.535 2.457-3.486 6.071-3.335 9.562.122 2.827 1.28 5.213 3.676 6.703" stroke="#80C2E2" stroke-width="2"/><path d="m51.697 49.507-.015.013a.042.042 0 0 0-.012.044l.377 1.27a.07.07 0 0 0 .025.035.068.068 0 0 0 .04.014h3.524c.162 0 .434.063.66-.004" stroke="#77507A" stroke-width="2"/><path d="M56.297 50.88c.308-.003.644.037.922.038.915.005 1.83-.006 2.745-.033" stroke="#80C2E2" stroke-width="2"/><path d="M59.965 50.885c.314.058.698-.003.924-.003l6.537.001c.315 0 .81.05 1.23-.015" stroke="#77507A" stroke-width="2"/><path d="M68.656 50.868c1.118.047 2.236.062 3.354.046.104-.002.243-.024.366-.017" stroke="#80C2E2" stroke-width="2"/><path d="M72.374 50.897c.303.027.593.019.87-.022a.046.046 0 0 1 .051.037.048.048 0 0 1-.002.023 37.79 37.79 0 0 1-.901 2.532.046.046 0 0 1-.043.03H52.998a.032.032 0 0 0-.016.003.034.034 0 0 0-.014.044l.979 2.086c.004.01.011.018.02.024.01.006.02.009.03.009h17.366a.047.047 0 0 1 .042.067 38.87 38.87 0 0 1-1.33 2.566.096.096 0 0 1-.085.05H55.28c-.032 0-.039.013-.022.04l1.352 2.078a.069.069 0 0 0 .057.03l11.242.001c.202 0 .522.035.798-.008.025-.005.03.004.016.026-.56.838-1.15 1.655-1.766 2.451a.064.064 0 0 1-.05.024h-8.704c-.037 0-.044.015-.02.044l1.74 2.042a.23.23 0 0 0 .174.08h4.971c.038 0 .044.015.019.043a48.655 48.655 0 0 1-2.482 2.516" stroke="#77507A" stroke-width="2"/><path d="M26.122 32.99a.08.08 0 0 1 .039.032.07.07 0 0 1 .01.047L23.15 50.852a.058.058 0 0 0 .012.046.055.055 0 0 0 .042.02h4.798a.037.037 0 0 0 .024-.01.039.039 0 0 0 .013-.022l4.065-23.921a.031.031 0 0 0-.007-.025.03.03 0 0 0-.022-.01l-8.705-.001a.048.048 0 0 0-.044.03l-5.601 13.973c-.009.022-.014.021-.017-.002-.032-.282-.07-.774-.11-1.478-.244-4.16-.486-8.322-.727-12.484a.042.042 0 0 0-.035-.04c-.203-.027-.461.002-.6.002H8.51c-.012-.019-.03-.024-.055-.018a.057.057 0 0 0-.04.046L4.36 50.877a.036.036 0 0 0 .007.027.032.032 0 0 0 .025.012h4.81a.055.055 0 0 0 .053-.046c1.012-5.95 2.02-11.874 3.021-17.774.01-.06.034-.124.106-.101.01.003.02.01.026.018.006.008.01.019.01.03l1.007 17.84c0 .009.005.017.011.024a.04.04 0 0 0 .025.01h5.408a.038.038 0 0 0 .035-.024l6.946-17.35c.023-.058.218-.575.272-.554Zm15.37 16.037-.27 1.85a.036.036 0 0 0 .008.027.036.036 0 0 0 .011.01l.015.003h4.45a.042.042 0 0 0 .041-.035c.768-4.348 1.594-8.67 2.43-13 .12-.616.185-1.052.2-1.307.183-3.352-3.047-5.21-5.882-5.451-.234-.02-.685-.036-1.352-.047-2.182-.037-4.608-.085-6.623.916a.171.171 0 0 0-.09.107l-1.265 4.308c-.01.032 0 .04.028.022.566-.342 1.322-.49 1.965-.604a31.503 31.503 0 0 1 5.055-.47c1.787-.02 3.119 1.098 2.505 3.076a.062.062 0 0 1-.063.045c-1.12-.056-2.231-.099-3.349-.01a40.04 40.04 0 0 0-2.797.309c-3.86.59-6.586 3.878-6.121 7.904.377 3.265 3.13 4.87 6.16 4.504 1.86-.225 3.504-.931 4.922-2.168.017-.016.024-.012.021.011Z" stroke="#80C2E2" stroke-width="2"/><path d="M72.375 50.897c.604-.06 1.101-.127 1.493-.199 2.832-.523 4.948-2.348 5.29-5.372.118-1.054.13-2.218-.219-3.197-.63-1.78-2.14-2.38-3.74-2.925" stroke="#F68D97" stroke-width="2"/><path d="M75.202 39.204c.002-.825-.01-1.65-.034-2.474-.014-.464-.085-1.016-.102-1.527" stroke="#77507A" stroke-width="2"/><path d="M75.064 35.203a12.207 12.207 0 0 1 1.767-.018c.712.044 1.628.229 2.445.317a.096.096 0 0 0 .067-.018.099.099 0 0 0 .038-.059l.882-4.07a.036.036 0 0 0-.028-.043c-1.943-.338-3.852-.414-5.813-.414m12.47 4.54 3.046.06a.037.037 0 0 0 .025-.01.039.039 0 0 0 .013-.023l.692-4.066a.03.03 0 0 0-.017-.031.028.028 0 0 0-.012-.003h-2.99c-.002 0-.004 0-.007-.002a.018.018 0 0 1-.01-.012v-.007l.75-4.365a.045.045 0 0 0-.025-.048.044.044 0 0 0-.019-.005c-1.183.007-2.353.005-3.508-.006-.395-.003-.905.016-1.366.006a.118.118 0 0 0-.079.028.121.121 0 0 0-.041.073l-3.085 18.597c-.35 2.107-.933 4.452 1.906 5.053 1.881.398 4.45.424 6.206-.51a.153.153 0 0 0 .08-.114l.501-3.4c.009-.06-.013-.078-.067-.054-.798.36-2.66.53-3.367-.038-.362-.29-.35-.704-.274-1.178.53-3.305 1.066-6.608 1.607-9.91a.041.041 0 0 1 .014-.026.039.039 0 0 1 .026-.01Zm10.672-1.021.536-3.013a.035.035 0 0 0-.02-.038.035.035 0 0 0-.014-.003l-5.039-.06a.017.017 0 0 0-.011.004.02.02 0 0 0-.007.011l-3.297 19.515a.07.07 0 0 0 .069.084h4.98a.035.035 0 0 0 .023-.009.034.034 0 0 0 .011-.02c.56-3.385 1.117-6.757 1.67-10.118.381-2.311 1.13-3.93 3.627-4.346.689-.114 1.302-.141 1.839-.08a.035.035 0 0 0 .026-.007.033.033 0 0 0 .014-.024c.361-1.851.872-3.48 1.845-5.037a.026.026 0 0 0 .005-.015c0-.005 0-.01-.002-.015a.049.049 0 0 0-.01-.012.03.03 0 0 0-.013-.007c-.309-.063-.616-.127-.929-.117-2.449.082-3.935 1.28-5.239 3.301a.04.04 0 0 1-.02.017l-.022.008a.018.018 0 0 1-.008 0 .018.018 0 0 1-.008-.004.017.017 0 0 1-.005-.007.016.016 0 0 1 0-.008Zm4.401 3.104c-1.824 5.398-.331 12.033 5.926 13.43 2.993.67 6.473.252 8.965-1.61 2.987-2.234 4.107-6.163 3.876-9.835-.297-4.737-3.358-7.858-7.974-8.331-4.737-.486-9.178 1.565-10.793 6.346Zm17.346 12.62a.043.043 0 0 1 .041.043v1.153c0 .012.005.023.013.031a.042.042 0 0 0 .03.013h.302a.043.043 0 0 0 .031-.013.044.044 0 0 0 .012-.031l.002-1.17a.05.05 0 0 1 .003-.018.064.064 0 0 1 .01-.015.038.038 0 0 1 .015-.009.041.041 0 0 1 .017-.003l.476.025a.04.04 0 0 0 .017-.003.042.042 0 0 0 .025-.023.05.05 0 0 0 .004-.017l.004-.191a.05.05 0 0 0-.003-.018.041.041 0 0 0-.023-.024.041.041 0 0 0-.017-.003h-1.426a.042.042 0 0 0-.029.011.044.044 0 0 0-.014.029l-.016.164c0 .006 0 .012.002.018a.047.047 0 0 0 .009.016.032.032 0 0 0 .014.01.042.042 0 0 0 .017.005l.484.02Zm1.523.326a.01.01 0 0 1 .008 0 .01.01 0 0 1 .006.007l.404.895.004.005a.014.014 0 0 0 .007.002h.3a.01.01 0 0 0 .006-.002c.003-.001.004-.003.005-.005l.411-.907a.012.012 0 0 1 .005-.006.013.013 0 0 1 .008 0c.003 0 .005.002.007.003a.01.01 0 0 1 .003.008l-.001.902.001.004a.035.035 0 0 0 .003.004.008.008 0 0 0 .004.003l.004.001h.364a.01.01 0 0 0 .008-.004c.002-.002.004-.005.004-.008l.004-1.489-.001-.005a.035.035 0 0 0-.003-.004.008.008 0 0 0-.004-.002.01.01 0 0 0-.004-.001h-.481c-.002 0-.004 0-.006.002a.013.013 0 0 0-.005.005l-.468 1.026a.01.01 0 0 1-.01.007l-.007-.002a.01.01 0 0 1-.004-.005l-.473-1.026-.004-.005a.017.017 0 0 0-.007-.002l-.495-.002a.015.015 0 0 0-.009.004.013.013 0 0 0-.003.009l.014 1.49a.01.01 0 0 0 .004.008.01.01 0 0 0 .008.004h.368c.003 0 .007 0 .009-.003a.013.013 0 0 0 .003-.009l-.015-.884.002-.008a.014.014 0 0 1 .007-.004l.019-.006Z" stroke="#F68D97" stroke-width="2"/><path d="M75.065 35.203c-.92.007-2.54.357-2.716 1.526-.224 1.497 1.792 2.166 2.851 2.475" stroke="#80C2E2" stroke-width="2"/><path d="M68.657 50.868c-1.45-.041-2.846-.248-4.178-.802a.04.04 0 0 1-.02-.018.041.041 0 0 1-.005-.028l.244-1.304" stroke="#F68D97" stroke-width="2"/><path d="m64.695 48.716.339-1.772" stroke="#80C2E2" stroke-width="2"/><path d="m65.035 46.944.18-.93a.032.032 0 0 1 .04-.024c1.924.56 3.884.833 5.88.82 1.356-.008 2.333-.531 2.474-2.015" stroke="#F68D97" stroke-width="2"/><path d="M73.61 44.795c.01-.933-.79-1.394-1.52-1.703-.591-.25-1.379-.574-2.363-.972" stroke="#80C2E2" stroke-width="2"/><path d="M69.724 42.12c-1.096-.583-1.877-1.128-2.501-2.186" stroke="#F68D97" stroke-width="2"/><path d="M67.224 39.934a5.286 5.286 0 0 1-.52-2.572c.06-1.473.347-2.903 1.205-4.105" stroke="#80C2E2" stroke-width="2"/><path d="M67.909 33.257c1.02-1.304 2.589-1.921 4.179-2.153m-12.381.003c1.63.354 2.92.852 4.061 2.135" stroke="#F68D97" stroke-width="2"/><path d="M63.77 33.242c1.594 2.014 1.586 4.27 1.386 6.718" stroke="#80C2E2" stroke-width="2"/><path d="m65.155 39.96-.393 2.181" stroke="#F68D97" stroke-width="2"/><path d="m64.76 42.141-.07.316a.044.044 0 0 1-.014.024.042.042 0 0 1-.027.01H53.32a.039.039 0 0 0-.038.032c-.127.806.101 1.611.56 2.281" stroke="#80C2E2" stroke-width="2"/><path d="M53.84 44.804c.62 1.007 1.473 1.622 2.557 1.844a11.97 11.97 0 0 0 3.315.194c1.627-.123 2.966-.638 4.363-1.475.054-.032.076-.017.065.046l-.255 1.546" stroke="#F68D97" stroke-width="2"/><path d="m63.888 46.959-.306 1.782" stroke="#80C2E2" stroke-width="2"/><path d="m63.58 48.741-.198 1.142a.076.076 0 0 1-.035.053c-1.106.655-2.133.816-3.384.949m-3.667-.005a5.516 5.516 0 0 0-.595-.084c-1.385-.147-2.72-.577-4.005-1.29m-.34-16.264c1.405-1.243 2.966-1.832 4.768-2.151" stroke="#F68D97" stroke-width="2"/><path d="M60.268 38.847c.276-2.09-.68-3.808-2.935-3.744-1.654.047-2.762 1.328-3.18 2.85a11.624 11.624 0 0 0-.207.91c0 .003.002.006.004.008a.022.022 0 0 0 .008.006.024.024 0 0 0 .01.003h6.263a.037.037 0 0 0 .037-.033Zm-24.259 7.15c.32.995 1.483.942 2.318.843 1.51-.18 3.026-.968 3.406-2.579.133-.562.218-1.303.42-2.085.137-.53-.902-.456-1.247-.442-2.097.085-5.87 1.238-4.897 4.263Z" stroke="#80C2E2" stroke-width="2"/><path d="m67.91 33.257-4.14-.015" stroke="#77507A" stroke-width="2"/><path d="M108.545 45.451c.294.248.581.403.863.465 3.82.832 4.954-2.76 5.312-5.694.233-1.906-.168-4.738-2.656-4.753-1.407-.008-2.506.566-3.298 1.723-1.07 1.564-1.368 3.276-1.347 5.195.012 1.123.263 2.336 1.126 3.064Z" stroke="#F68D97" stroke-width="2"/><path d="m67.222 39.934-2.069.026m4.57 2.16c-1.483-.008-2.966-.01-4.447-.005-.167 0-.339.01-.516.026m8.846 2.654c-6.588-.005-13.178-.019-19.766.009m11.192 2.14-1.147.015m.81 1.757-1.116.025" stroke="#77507A" stroke-width="2"/><path d="M62.601 9.839a46.43 46.43 0 0 1 2.756 2.81c.025.027.019.04-.017.04l-5.514.003a.068.068 0 0 0-.052.024l-1.751 2.062c-.035.041-.026.062.028.062h9.065a.1.1 0 0 1 .079.04 40.477 40.477 0 0 1 1.652 2.328c.034.051.02.076-.04.076-4.14-.03-8.282-.029-12.422.006a.146.146 0 0 0-.125.07l-1.248 2.018c-.022.036-.013.053.028.053h15.109a.063.063 0 0 1 .055.033c.445.784.858 1.586 1.237 2.406a.027.027 0 0 1-.002.025.026.026 0 0 1-.022.012h-17.6a.061.061 0 0 0-.056.036l-.983 2.077a.039.039 0 0 0 .002.037.038.038 0 0 0 .032.017H72.37a.05.05 0 0 1 .047.032c.306.762.585 1.534.837 2.316a.06.06 0 0 1-.009.053.057.057 0 0 1-.046.024H51.984a.063.063 0 0 0-.06.045l-.604 2.033a.056.056 0 0 0 .008.048.054.054 0 0 0 .044.023h22.49a.044.044 0 0 1 .041.032c.222.73.395 1.47.519 2.218-.782.027-1.56.095-2.334.206-.02-.054-11.276-.031-12.338-.031a.038.038 0 0 0-.032.018l-.01.016a13.095 13.095 0 0 0-3.583-.016l-5.343-.018a.061.061 0 0 0-.04.014.065.065 0 0 0-.022.038l-.36 2.047a.065.065 0 0 0 .036.07.061.061 0 0 0 .026.005l.934-.005c-2.534 2.457-3.485 6.071-3.334 9.562.121 2.827 1.28 5.213 3.675 6.703l-.015.013a.042.042 0 0 0-.013.044l.378 1.27a.07.07 0 0 0 .065.049h3.524c.162 0 .434.063.66-.004.308-.002.645.038.923.039.914.005 1.83-.006 2.744-.033.314.058.698-.003.924-.003l6.537.001c.315 0 .81.05 1.231-.015 1.118.047 2.236.062 3.355.046.103-.002.242-.024.365-.017.303.026.593.019.87-.022a.046.046 0 0 1 .051.037.046.046 0 0 1-.001.023 37.75 37.75 0 0 1-.902 2.532.046.046 0 0 1-.043.029H53a.033.033 0 0 0-.034.032c0 .005.001.011.003.016l.98 2.086a.055.055 0 0 0 .05.033h17.365a.047.047 0 0 1 .047.044.046.046 0 0 1-.005.023 38.87 38.87 0 0 1-1.33 2.566.097.097 0 0 1-.085.05h-14.71c-.031 0-.038.013-.021.04l1.352 2.078a.068.068 0 0 0 .057.03l11.242.001c.201 0 .522.035.797-.008.026-.005.031.004.016.026a42.981 42.981 0 0 1-1.766 2.451.063.063 0 0 1-.05.024h-8.703c-.038 0-.045.015-.02.044l1.738 2.042a.231.231 0 0 0 .175.08h4.972c.038 0 .044.015.018.043a48.695 48.695 0 0 1-2.482 2.516c-.014 0-.036.015-.068.043-14.64 13.331-36.772 12.825-50.85-1.115C3.992 59.021-.131 48.49.172 37.568.715 17.968 15.714 1.662 35.034.228c9.472-.704 18.715 2.301 26.073 8.33.447.367.99.86 1.494 1.28Zm-36.48 23.15a.08.08 0 0 1 .04.033.07.07 0 0 1 .01.047l-3.022 17.782a.057.057 0 0 0 .031.06.055.055 0 0 0 .023.006h4.798a.037.037 0 0 0 .024-.01.039.039 0 0 0 .013-.022l4.066-23.921a.031.031 0 0 0-.007-.025.03.03 0 0 0-.023-.01l-8.704-.001a.048.048 0 0 0-.044.03l-5.602 13.973c-.008.022-.014.021-.016-.002a28.72 28.72 0 0 1-.11-1.478c-.244-4.16-.486-8.322-.727-12.484a.042.042 0 0 0-.036-.04c-.203-.027-.46.002-.6.002H8.51c-.013-.019-.031-.024-.056-.018a.057.057 0 0 0-.04.046l-4.055 23.92a.036.036 0 0 0 .008.027.032.032 0 0 0 .025.012h4.81a.055.055 0 0 0 .053-.046l3.021-17.774c.01-.06.034-.124.106-.101a.05.05 0 0 1 .025.018c.007.008.01.019.011.03l1.007 17.84a.036.036 0 0 0 .035.034h5.408a.038.038 0 0 0 .036-.024l6.945-17.35c.023-.058.219-.575.273-.554Zm15.37 16.038-.27 1.85a.036.036 0 0 0 .008.027.036.036 0 0 0 .012.01l.014.003h4.451a.041.041 0 0 0 .04-.035c.768-4.348 1.595-8.67 2.431-13 .119-.616.185-1.052.199-1.307.183-3.352-3.047-5.21-5.881-5.451-.234-.02-.685-.036-1.353-.047-2.181-.037-4.608-.085-6.622.916a.171.171 0 0 0-.09.107l-1.266 4.308c-.01.032 0 .04.029.022.565-.342 1.322-.49 1.965-.604a31.503 31.503 0 0 1 5.054-.47c1.787-.02 3.12 1.098 2.505 3.076a.063.063 0 0 1-.024.033.061.061 0 0 1-.039.012c-1.12-.055-2.23-.099-3.348-.01-1.086.087-2.019.19-2.797.309-3.86.59-6.587 3.878-6.121 7.904.377 3.265 3.13 4.87 6.16 4.504 1.86-.225 3.503-.931 4.922-2.168.017-.016.024-.012.02.011Z" fill="#0084C5"/><path d="M124.999 37.285v2.854c-.515 12.956-7.067 24.666-17.852 31.57-6.279 4.02-13.553 5.938-20.974 5.716-7.858-.235-15.375-3.118-21.563-7.985a30.059 30.059 0 0 1-2.005-1.727 48.655 48.655 0 0 0 2.482-2.516c.026-.028.02-.042-.018-.042h-4.972a.228.228 0 0 1-.174-.081l-1.739-2.042c-.024-.03-.018-.044.02-.044h8.704a.063.063 0 0 0 .05-.024 43.345 43.345 0 0 0 1.766-2.45c.014-.023.009-.032-.017-.028-.275.044-.596.01-.797.01-3.748-.002-7.495-.002-11.242-.001a.067.067 0 0 1-.057-.031l-1.352-2.079c-.017-.026-.01-.04.02-.04H69.99a.097.097 0 0 0 .085-.05c.475-.838.919-1.693 1.33-2.565a.046.046 0 0 0-.002-.045.048.048 0 0 0-.04-.022H53.998a.055.055 0 0 1-.05-.033l-.978-2.086a.035.035 0 0 1 .002-.032.033.033 0 0 1 .027-.016H72.35a.046.046 0 0 0 .042-.029c.33-.833.631-1.677.902-2.532a.047.047 0 0 0-.05-.06 3.718 3.718 0 0 1-.87.022c.604-.06 1.102-.127 1.493-.2 2.832-.523 4.948-2.347 5.29-5.371.118-1.054.13-2.218-.218-3.197-.631-1.78-2.14-2.38-3.74-2.925.002-.825-.01-1.65-.034-2.474-.014-.464-.085-1.016-.102-1.527a12.206 12.206 0 0 1 1.766-.018c.714.044 1.63.229 2.446.317a.096.096 0 0 0 .067-.018.1.1 0 0 0 .038-.059l.882-4.07a.036.036 0 0 0-.028-.043c-1.943-.338-3.852-.414-5.813-.414a17.468 17.468 0 0 0-.518-2.218.044.044 0 0 0-.016-.023.042.042 0 0 0-.025-.009H51.37a.054.054 0 0 1-.044-.023.056.056 0 0 1-.008-.048l.605-2.034a.063.063 0 0 1 .06-.044h21.214a.056.056 0 0 0 .046-.024.06.06 0 0 0 .008-.053 35.007 35.007 0 0 0-.835-2.316.05.05 0 0 0-.048-.032H52.811a.037.037 0 0 1-.032-.018.039.039 0 0 1-.002-.036l.983-2.077a.06.06 0 0 1 .056-.036h17.6a.026.026 0 0 0 .022-.012.027.027 0 0 0 .002-.025c-.38-.82-.791-1.622-1.236-2.406a.064.064 0 0 0-.056-.033H55.039c-.04 0-.05-.017-.028-.053l1.248-2.017a.15.15 0 0 1 .125-.071c4.14-.035 8.282-.037 12.423-.006.06 0 .073-.025.04-.076a40.477 40.477 0 0 0-1.653-2.329.102.102 0 0 0-.079-.04H58.05c-.054 0-.063-.02-.028-.061l1.751-2.062a.069.069 0 0 1 .052-.024l5.514-.002c.036 0 .042-.014.017-.04a46.43 46.43 0 0 0-2.755-2.811C69.893 3.195 79.264-.231 89.062.16c12.823.512 24.584 7.962 30.914 19.25 3.093 5.518 4.768 11.475 5.023 17.874ZM86.89 35.437l3.047.06a.037.037 0 0 0 .038-.032l.692-4.066a.03.03 0 0 0-.007-.023.03.03 0 0 0-.022-.01h-2.99l-.007-.003a.018.018 0 0 1-.01-.012v-.007l.75-4.365a.045.045 0 0 0-.025-.048.043.043 0 0 0-.019-.005 240.66 240.66 0 0 1-3.508-.006c-.395-.003-.905.016-1.366.006a.118.118 0 0 0-.078.028.122.122 0 0 0-.042.073l-3.085 18.597c-.35 2.107-.932 4.452 1.906 5.053 1.882.398 4.45.424 6.206-.51a.153.153 0 0 0 .08-.114l.501-3.4c.009-.06-.013-.078-.067-.054-.798.36-2.66.53-3.367-.038-.362-.29-.35-.704-.274-1.178.53-3.305 1.066-6.608 1.607-9.91a.042.042 0 0 1 .014-.026.04.04 0 0 1 .026-.01Zm10.674-1.02.535-3.013v-.015a.037.037 0 0 0-.007-.013.033.033 0 0 0-.012-.01.033.033 0 0 0-.015-.003l-5.039-.06a.017.017 0 0 0-.011.004.02.02 0 0 0-.007.011l-3.297 19.515a.073.073 0 0 0 .015.059.07.07 0 0 0 .054.025h4.98a.036.036 0 0 0 .022-.009.034.034 0 0 0 .012-.02c.56-3.385 1.117-6.757 1.67-10.118.381-2.311 1.13-3.93 3.627-4.346.689-.115 1.302-.141 1.839-.08a.035.035 0 0 0 .026-.007.036.036 0 0 0 .014-.024c.361-1.851.872-3.48 1.845-5.037a.026.026 0 0 0 .005-.015c0-.005 0-.01-.002-.015a.049.049 0 0 0-.01-.012.03.03 0 0 0-.013-.007c-.309-.063-.616-.127-.929-.117-2.449.082-3.935 1.28-5.239 3.301a.04.04 0 0 1-.02.017l-.022.008a.018.018 0 0 1-.008 0 .018.018 0 0 1-.008-.004.017.017 0 0 1-.005-.007.016.016 0 0 1 0-.008Zm4.4 3.104c-1.824 5.398-.331 12.033 5.926 13.43 2.993.67 6.473.252 8.965-1.61 2.987-2.234 4.107-6.163 3.876-9.835-.297-4.737-3.358-7.858-7.974-8.331-4.737-.486-9.178 1.565-10.793 6.346Zm17.346 12.62a.044.044 0 0 1 .041.043v1.153c0 .012.005.023.013.031a.042.042 0 0 0 .03.013h.302a.043.043 0 0 0 .031-.013.045.045 0 0 0 .012-.031l.002-1.17a.05.05 0 0 1 .003-.018.064.064 0 0 1 .01-.015.038.038 0 0 1 .015-.009.04.04 0 0 1 .017-.003l.476.025a.04.04 0 0 0 .017-.003.043.043 0 0 0 .025-.023.05.05 0 0 0 .004-.017l.004-.192a.05.05 0 0 0-.003-.017.041.041 0 0 0-.009-.014.043.043 0 0 0-.031-.013h-1.426a.042.042 0 0 0-.029.011.044.044 0 0 0-.014.029l-.016.164c0 .006 0 .012.002.018a.048.048 0 0 0 .009.016.032.032 0 0 0 .014.01.04.04 0 0 0 .017.005l.484.02Zm1.523.326a.01.01 0 0 1 .008 0 .01.01 0 0 1 .006.007l.404.895a.011.011 0 0 0 .004.005.014.014 0 0 0 .007.002h.3a.01.01 0 0 0 .006-.002.014.014 0 0 0 .005-.005l.411-.907a.012.012 0 0 1 .005-.006.013.013 0 0 1 .008 0c.003 0 .005.002.007.003a.01.01 0 0 1 .003.008l-.001.902.001.004a.035.035 0 0 0 .003.004.008.008 0 0 0 .004.003.01.01 0 0 0 .004.001h.364a.01.01 0 0 0 .008-.004c.002-.002.004-.005.004-.008l.004-1.489-.001-.005a.035.035 0 0 0-.003-.004.008.008 0 0 0-.004-.002.008.008 0 0 0-.004-.001h-.481c-.002 0-.004 0-.006.002a.013.013 0 0 0-.005.005l-.468 1.026a.01.01 0 0 1-.004.005.013.013 0 0 1-.013 0 .01.01 0 0 1-.004-.005l-.473-1.026-.004-.005a.015.015 0 0 0-.007-.002l-.495-.002a.015.015 0 0 0-.009.004.013.013 0 0 0-.003.009l.014 1.49a.01.01 0 0 0 .004.008.01.01 0 0 0 .008.004h.368a.015.015 0 0 0 .009-.003.013.013 0 0 0 .003-.009l-.015-.884.002-.008a.014.014 0 0 1 .007-.004l.019-.006Z" fill="#ED1B2E"/><path d="M26.122 32.99c-.054-.022-.25.495-.272.553l-6.946 17.35a.038.038 0 0 1-.035.024H13.46a.036.036 0 0 1-.025-.01.037.037 0 0 1-.011-.025l-1.007-17.84a.055.055 0 0 0-.01-.03.052.052 0 0 0-.026-.017c-.072-.023-.095.04-.105.101l-3.02 17.775a.055.055 0 0 1-.054.046h-4.81a.032.032 0 0 1-.025-.013.035.035 0 0 1-.007-.027l4.054-23.92a.057.057 0 0 1 .04-.046c.025-.007.044 0 .056.018h7.725c.14 0 .398-.03.6-.001.01.001.019.006.025.013a.04.04 0 0 1 .011.026c.241 4.162.483 8.323.727 12.484.04.704.078 1.196.11 1.478.003.023.008.024.017.002l5.601-13.973a.048.048 0 0 1 .044-.03h8.705l.012.003a.03.03 0 0 1 .016.02.031.031 0 0 1 .001.013l-4.065 23.921a.039.039 0 0 1-.013.023.037.037 0 0 1-.024.009h-4.798a.055.055 0 0 1-.053-.042.058.058 0 0 1-.001-.024l3.02-17.782a.07.07 0 0 0-.009-.047.08.08 0 0 0-.04-.033Zm60.729 2.482c-.541 3.303-1.077 6.606-1.607 9.911-.077.474-.088.887.275 1.178.706.568 2.569.399 3.366.038.054-.024.076-.006.068.053l-.502 3.401a.154.154 0 0 1-.08.115c-1.757.933-4.324.907-6.205.509-2.84-.6-2.257-2.946-1.907-5.053l3.085-18.597a.122.122 0 0 1 .042-.073.118.118 0 0 1 .078-.027c.46.01.97-.01 1.366-.007 1.155.01 2.325.013 3.508.006a.042.042 0 0 1 .034.016.056.056 0 0 1 .009.017.046.046 0 0 1 0 .02l-.748 4.365v.008a.018.018 0 0 0 .017.014h2.99c.004 0 .008 0 .012.002a.03.03 0 0 1 .01.008.03.03 0 0 1 .005.01.029.029 0 0 1 .001.014l-.692 4.065a.039.039 0 0 1-.013.024.037.037 0 0 1-.025.009l-3.046-.061a.04.04 0 0 0-.027.01.042.042 0 0 0-.014.025Zm-12.429-4.574c1.962 0 3.87.076 5.812.413.005.001.01.003.014.006a.036.036 0 0 1 .015.038l-.881 4.07a.1.1 0 0 1-.039.06.096.096 0 0 1-.067.017c-.816-.088-1.732-.273-2.445-.317a12.208 12.208 0 0 0-1.766.017c-.92.008-2.54.358-2.716 1.528-.225 1.496 1.792 2.165 2.85 2.474 1.6.546 3.11 1.145 3.74 2.925.349.98.338 2.143.219 3.197-.342 3.024-2.458 4.849-5.29 5.372a19.1 19.1 0 0 1-1.493.2c-.122-.008-.261.014-.365.016-1.118.016-2.236 0-3.354-.046-1.451-.041-2.846-.248-4.178-.802a.042.042 0 0 1-.025-.047l.243-1.303.338-1.772.18-.93.005-.012a.036.036 0 0 1 .01-.009.032.032 0 0 1 .025-.003c1.924.56 3.884.833 5.88.82 1.356-.008 2.333-.531 2.474-2.015.01-.933-.79-1.394-1.52-1.703-.59-.25-1.378-.574-2.363-.972-1.096-.583-1.877-1.128-2.501-2.186a5.287 5.287 0 0 1-.52-2.572c.06-1.473.347-2.903 1.205-4.105 1.02-1.304 2.59-1.921 4.18-2.153.773-.11 1.551-.18 2.333-.206Zm-14.714.21c1.629.353 2.919.85 4.06 2.134 1.595 2.014 1.587 4.27 1.387 6.718l-.393 2.181-.07.316a.044.044 0 0 1-.015.024.041.041 0 0 1-.026.01H53.32a.039.039 0 0 0-.039.032c-.127.805.102 1.611.56 2.28.62 1.008 1.473 1.623 2.556 1.845a11.98 11.98 0 0 0 3.316.194c1.627-.123 2.966-.638 4.362-1.475.055-.032.077-.017.066.046l-.255 1.546-.306 1.782-.198 1.143a.076.076 0 0 1-.035.052c-1.106.655-2.133.816-3.384.949-.915.027-1.83.038-2.745.033-.278-.001-.614-.04-.922-.038a5.511 5.511 0 0 0-.594-.084c-1.386-.147-2.72-.577-4.006-1.29-2.395-1.49-3.553-3.875-3.675-6.702-.151-3.491.8-7.105 3.335-9.562 1.405-1.243 2.966-1.832 4.768-2.151a13.091 13.091 0 0 1 3.583.016Zm.56 7.74c.276-2.091-.679-3.81-2.935-3.745-1.654.047-2.761 1.328-3.18 2.85a11.614 11.614 0 0 0-.207.91c0 .003.002.006.004.008a.023.023 0 0 0 .017.008h6.265a.036.036 0 0 0 .024-.009.036.036 0 0 0 .012-.023ZM41.47 49.015c-1.418 1.237-3.062 1.943-4.921 2.168-3.03.366-5.784-1.24-6.161-4.504-.465-4.026 2.26-7.313 6.121-7.904a40.593 40.593 0 0 1 2.797-.31c1.118-.088 2.229-.044 3.349.01a.062.062 0 0 0 .063-.044c.614-1.978-.718-3.097-2.505-3.075a31.38 31.38 0 0 0-5.055.47c-.643.112-1.4.26-1.965.603-.028.018-.038.01-.028-.022L34.43 32.1a.177.177 0 0 1 .09-.107c2.014-1.001 4.44-.953 6.622-.916.667.01 1.118.026 1.352.047 2.835.241 6.065 2.099 5.881 5.451-.014.255-.08.691-.198 1.307-.837 4.33-1.663 8.652-2.43 13a.042.042 0 0 1-.04.034h-4.452a.036.036 0 0 1-.015-.003.036.036 0 0 1-.011-.009.036.036 0 0 1-.008-.028l.27-1.849c.002-.023-.005-.027-.022-.011Zm-5.46-3.019c.32.995 1.482.942 2.317.843 1.511-.18 3.026-.968 3.406-2.579.133-.562.219-1.303.421-2.085.137-.53-.902-.456-1.248-.442-2.097.085-5.87 1.238-4.896 4.263Z" fill="#fff"/><path d="M56.125 31.09c-1.802.32-3.363.91-4.769 2.152l-.934.005a.062.062 0 0 1-.06-.047.065.065 0 0 1-.002-.028l.36-2.047a.065.065 0 0 1 .022-.038.061.061 0 0 1 .04-.014l5.343.018Zm15.963.014c-1.59.232-3.159.85-4.18 2.153l-4.14-.015c-1.142-1.283-2.432-1.781-4.061-2.135l.01-.016a.039.039 0 0 1 .033-.018c1.062 0 12.318-.023 12.338.031Z" fill="#ED1B2E"/><path d="m97.586 34.436.022-.008a.041.041 0 0 0 .02-.017c1.304-2.02 2.79-3.22 5.239-3.301.313-.01.62.054.928.117.006.001.01.003.014.007a.031.031 0 0 1 .009.012c.003.005.003.01.003.015a.03.03 0 0 1-.005.015c-.973 1.558-1.484 3.186-1.845 5.037a.036.036 0 0 1-.014.024.035.035 0 0 1-.026.007c-.537-.061-1.15-.035-1.839.08-2.496.416-3.246 2.035-3.627 4.346-.553 3.361-1.11 6.733-1.67 10.117a.035.035 0 0 1-.034.03h-4.98a.07.07 0 0 1-.054-.026.073.073 0 0 1-.015-.058l3.297-19.515a.02.02 0 0 1 .007-.01.017.017 0 0 1 .011-.005l5.04.06c.004 0 .01.001.014.003a.034.034 0 0 1 .019.023.035.035 0 0 1 0 .015l-.536 3.013.001.008.005.007a.017.017 0 0 0 .016.004Zm10.305 16.516c-6.257-1.398-7.75-8.033-5.926-13.43 1.615-4.782 6.056-6.833 10.793-6.347 4.616.473 7.677 3.594 7.974 8.331.231 3.672-.889 7.6-3.876 9.835-2.492 1.862-5.972 2.28-8.965 1.61Zm.653-5.5c.294.247.582.402.864.464 3.819.832 4.954-2.76 5.311-5.694.233-1.906-.167-4.738-2.656-4.753-1.406-.008-2.505.566-3.297 1.723-1.071 1.564-1.369 3.276-1.348 5.195.012 1.123.263 2.336 1.126 3.064Z" fill="#fff"/><path d="m63.769 33.242 4.14.015c-.859 1.202-1.146 2.632-1.205 4.105a5.286 5.286 0 0 0 .52 2.572l-2.069.026c.2-2.447.208-4.705-1.386-6.718Zm-6.436 1.86c2.256-.063 3.211 1.655 2.935 3.745a.037.037 0 0 1-.036.033h-6.264a.017.017 0 0 1-.01-.003.022.022 0 0 1-.012-.015v-.01c.058-.304.127-.604.208-.899.417-1.522 1.525-2.803 3.18-2.85Zm17.732.1c.017.512.087 1.064.101 1.528.024.824.036 1.649.034 2.474-1.06-.31-3.076-.978-2.851-2.474.176-1.17 1.796-1.52 2.716-1.527Z" fill="#0084C5"/><path d="M108.544 45.451c-.863-.728-1.114-1.94-1.126-3.064-.021-1.919.277-3.631 1.347-5.195.792-1.157 1.891-1.73 3.298-1.723 2.488.015 2.889 2.847 2.656 4.753-.358 2.935-1.492 6.526-5.312 5.693-.282-.061-.569-.216-.863-.464Zm-41.32-5.517c.623 1.058 1.405 1.603 2.5 2.186-1.483-.008-2.966-.01-4.447-.005-.167 0-.338.01-.515.026l.393-2.18 2.068-.027Z" fill="#ED1B2E"/><path d="M38.327 46.84c-.835.099-1.997.152-2.318-.843-.974-3.025 2.8-4.178 4.897-4.263.345-.014 1.384-.087 1.248.442-.203.782-.289 1.523-.421 2.085-.38 1.611-1.895 2.4-3.406 2.579Zm31.398-4.72c.984.398 1.772.722 2.363.972.73.309 1.53.77 1.52 1.703-6.589-.005-13.179-.019-19.767.009-.458-.67-.686-1.476-.56-2.28a.039.039 0 0 1 .039-.033h11.33a.04.04 0 0 0 .027-.01.044.044 0 0 0 .015-.024l.07-.316c.177-.017.349-.025.515-.026 1.482-.005 2.964-.003 4.448.005Z" fill="#0084C5"/><path d="M73.606 44.795c-.14 1.484-1.118 2.007-2.473 2.015a20.461 20.461 0 0 1-5.88-.82.032.032 0 0 0-.04.024l-.18.93-1.148.015.255-1.546c.011-.063-.01-.078-.065-.046-1.397.837-2.736 1.352-4.363 1.475a11.97 11.97 0 0 1-3.315-.194c-1.084-.222-1.937-.837-2.557-1.844 6.588-.028 13.178-.014 19.766-.009Z" fill="#ED1B2E"/><path d="m65.036 46.944-.339 1.772-1.115.025.306-1.782 1.148-.015Z" fill="#0084C5"/><path d="m64.696 48.716-.244 1.304a.042.042 0 0 0 .025.046c1.333.553 2.728.76 4.178.802-.42.064-.915.015-1.23.015l-6.537-.001c-.226 0-.61.06-.924.003 1.251-.133 2.278-.294 3.384-.95a.075.075 0 0 0 .035-.052l.197-1.142 1.116-.025Zm-12.999.79c1.285.713 2.62 1.143 4.005 1.29.303.032.501.06.595.084-.227.066-.499.004-.66.004a1253.88 1253.88 0 0 0-3.524-.001.068.068 0 0 1-.041-.014.07.07 0 0 1-.025-.036l-.377-1.27a.043.043 0 0 1 .012-.043l.015-.013Z" fill="#ED1B2E"/><path d="m119.311 50.14-.484-.02a.04.04 0 0 1-.017-.003.032.032 0 0 1-.014-.011.046.046 0 0 1-.009-.016c-.002-.006-.002-.012-.002-.018l.016-.164a.044.044 0 0 1 .014-.029.042.042 0 0 1 .029-.011h1.426a.043.043 0 0 1 .031.013.042.042 0 0 1 .009.014.033.033 0 0 1 .003.017l-.004.192a.05.05 0 0 1-.004.017.043.043 0 0 1-.025.023.043.043 0 0 1-.017.003l-.476-.025c-.006 0-.012 0-.017.003a.047.047 0 0 0-.015.01.067.067 0 0 0-.01.014.05.05 0 0 0-.003.017l-.001 1.17a.045.045 0 0 1-.013.032.043.043 0 0 1-.031.013h-.301a.043.043 0 0 1-.031-.013.045.045 0 0 1-.013-.031v-1.153a.044.044 0 0 0-.041-.043Zm1.523.327-.019.006a.014.014 0 0 0-.007.004.017.017 0 0 0-.002.008l.015.884a.013.013 0 0 1-.003.009.013.013 0 0 1-.009.004l-.368-.001a.01.01 0 0 1-.008-.004.01.01 0 0 1-.004-.008l-.014-1.49c0-.004.001-.007.003-.009a.015.015 0 0 1 .009-.004l.495.002.007.002.004.005.473 1.026a.01.01 0 0 0 .004.005.013.013 0 0 0 .013 0 .01.01 0 0 0 .004-.005l.469-1.026a.01.01 0 0 1 .004-.005.012.012 0 0 1 .006-.002h.485l.004.003a.049.049 0 0 1 .003.004l.001.005-.004 1.489c0 .003-.002.006-.004.008a.01.01 0 0 1-.008.004h-.364a.01.01 0 0 1-.004-.001.008.008 0 0 1-.004-.003.035.035 0 0 1-.003-.004l-.001-.004.001-.902a.01.01 0 0 0-.003-.008.012.012 0 0 0-.007-.004c-.002 0-.005 0-.008.002a.012.012 0 0 0-.005.005l-.411.907-.004.005a.015.015 0 0 1-.007.001h-.3l-.007-.001-.004-.005-.404-.895a.01.01 0 0 0-.006-.007.01.01 0 0 0-.008 0Z" fill="#fff"/><path d="M122.483 62.838c0 .492-.192.964-.534 1.311a1.808 1.808 0 0 1-1.289.544c-.484 0-.948-.196-1.29-.544a1.87 1.87 0 0 1-.534-1.31c0-.493.192-.964.534-1.312a1.809 1.809 0 0 1 1.29-.543c.483 0 .947.195 1.289.543.342.348.534.82.534 1.311Zm-1.848 1.593c.192.002.383-.037.562-.114.179-.077.342-.19.48-.335a1.6 1.6 0 0 0 .323-.507 1.661 1.661 0 0 0-.3-1.717 1.473 1.473 0 0 0-.473-.346 1.38 1.38 0 0 0-1.123-.012 1.462 1.462 0 0 0-.479.336 1.566 1.566 0 0 0-.323.507 1.66 1.66 0 0 0-.013 1.203c.072.192.178.366.313.514.135.147.295.265.472.345.178.081.368.124.561.126Z" fill="#ED1B2E"/><path d="M120.624 62.937h-.249a.043.043 0 0 0-.03.012.043.043 0 0 0-.012.03v.55a.042.042 0 0 1-.042.043h-.237a.043.043 0 0 1-.03-.013.04.04 0 0 1-.009-.013.047.047 0 0 1-.003-.017v-1.47c0-.011.004-.022.011-.03a.043.043 0 0 1 .029-.014c.358-.015.84-.065 1.166.097a.324.324 0 0 1 .191.287c.025.332-.128.506-.458.524-.043.002-.051.02-.025.056l.399.544c.025.034.017.05-.025.05l-.236-.004a.06.06 0 0 1-.053-.031l-.332-.57a.057.057 0 0 0-.023-.023.066.066 0 0 0-.032-.008Zm.275-.71-.518-.019c-.006 0-.013 0-.019.003a.051.051 0 0 0-.016.01.048.048 0 0 0-.01.016.041.041 0 0 0-.004.02l.006.448.003.015a.038.038 0 0 0 .022.02l.015.003c.249-.018.718.099.733-.284.006-.15-.065-.227-.212-.232Z" fill="#ED1B2E"/></g><defs><clipPath id="a"><path fill="#fff" d="M0 0h125v78H0z"/></clipPath></defs></svg>