<svg width="140" height="38" fill="none" xmlns="http://www.w3.org/2000/svg"><g clip-path="url(#a)" fill-rule="evenodd" clip-rule="evenodd"><path d="M37.726 0v.017c-.018 0-5.469-.017-6.922 4.978a5278.04 5278.04 0 0 1-5.192 17.573h-1.038S20.732 9.64 19.382 4.978C17.928-.017 12.46 0 12.46 0H0v38h12.46V15.432h1.039L20.765 38h8.653l7.268-22.551h1.039V38h12.46V0h-12.46ZM83.24 0s-3.652.315-5.365 3.983l-8.826 18.585H68.01V0H55.55v38h11.767s3.825-.332 5.538-3.983l8.653-18.585h1.038V38h12.46V0H83.239Zm17.303 17.258V38h12.46V25.887h13.498c5.884 0 10.868-3.601 12.719-8.63h-38.677Z" fill="#4DB45E"/><path d="M126.503 0H98.797c1.384 7.235 7.043 13.043 14.363 14.934a20.69 20.69 0 0 0 5.209.664h21.355c.19-.863.277-1.742.277-2.655 0-7.152-6.04-12.943-13.498-12.943Z" fill="url(#b)"/></g><defs><linearGradient id="b" x1="98.8" y1="7.799" x2="140.001" y2="7.799" gradientUnits="userSpaceOnUse"><stop offset=".3" stop-color="#00B4E6"/><stop offset="1" stop-color="#088CCB"/></linearGradient><clipPath id="a"><path fill="#fff" d="M0 0h140v38H0z"/></clipPath></defs></svg>