<svg width="129" height="76" fill="none" xmlns="http://www.w3.org/2000/svg"><g clip-path="url(#a)"><path fill-rule="evenodd" clip-rule="evenodd" d="m89.753 75.576 1.968-.053 1.94-.142 1.906-.242 1.893-.33 1.839-.416 1.811-.512 1.777-.591 1.736-.673 1.695-.767 1.648-.82 1.593-.915 1.552-.982 1.491-1.056 1.444-1.116 1.389-1.184 1.321-1.251 1.273-1.311 1.198-1.373 1.13-1.425 1.069-1.473.987-1.534.926-1.573.838-1.628.776-1.675.681-1.715.599-1.755.517-1.79.423-1.815.333-1.87.245-1.876.143-1.924.055-1.944-.055-1.93-.143-1.903-.245-1.877-.333-1.843-.423-1.816-.517-1.782-.599-1.748-.681-1.702-.776-1.668-.838-1.628-.926-1.56-.987-1.534-1.069-1.48-1.13-1.405-1.198-1.372-1.273-1.311-1.321-1.245-1.389-1.177-1.444-1.123-1.491-1.049-1.552-.982-1.593-.901-1.648-.827-1.695-.76-1.736-.673-1.777-.599-1.811-.504-1.839-.424-1.892-.33-1.908-.24-1.94-.135-1.968-.054-1.954.054-1.94.135-1.9.242-1.88.33-1.837.423-1.818.504-1.757.599-1.736.673-1.689.76-1.627.827-1.6.901-1.539.982-1.49 1.05-1.444 1.122-1.375 1.177-1.328 1.245-1.26 1.311-1.191 1.372-1.13 1.406-1.056 1.48-.994 1.533-.912 1.56-.844 1.628-.763 1.668-.68 1.701-.593 1.75-.51 1.782-.43 1.815-.333 1.843-.245 1.877-.137 1.903-.054 1.93.054 1.944.137 1.924.245 1.876.333 1.87.43 1.816.51 1.789.592 1.755.681 1.715.763 1.675.844 1.627.912 1.574.994 1.534 1.056 1.473 1.13 1.425 1.191 1.373 1.26 1.311 1.328 1.251 1.375 1.184 1.443 1.116 1.491 1.056 1.54.982 1.6.915 1.626.82 1.689.767 1.736.673 1.757.591 1.817.512 1.839.416 1.879.33 1.9.242 1.94.141 1.954.054Z" fill="#FAB51D"/><path fill-rule="evenodd" clip-rule="evenodd" d="m38.755 75.576 1.954-.053 1.94-.142 1.907-.242 1.88-.33 1.838-.416 1.81-.512 1.764-.591 1.736-.673 1.682-.767 1.634-.82 1.593-.915 1.546-.982 1.49-1.056 1.437-1.116 1.376-1.184 1.327-1.251 1.26-1.311 1.198-1.373 1.13-1.425 1.056-1.473.987-1.534.912-1.573.851-1.628.756-1.675.688-1.715.585-1.755.518-1.79.422-1.815.334-1.87.245-1.876.143-1.924.054-1.944-.054-1.93-.143-1.903-.246-1.877-.333-1.843-.422-1.816-.518-1.782-.585-1.748-.688-1.702-.756-1.668-.85-1.628-.913-1.56-.987-1.534-1.056-1.48-1.13-1.405-1.198-1.372-1.26-1.311-1.327-1.245-1.376-1.177-1.436-1.123-1.491-1.049-1.546-.982-1.593-.9-1.634-.827-1.682-.76-1.736-.673-1.763-.599-1.811-.504-1.839-.424-1.879-.33L42.65.452 40.71.316 38.754.262l-1.967.054-1.94.135-1.907.242-1.886.33-1.838.423-1.818.504-1.77.599-1.737.673-1.695.76-1.648.827-1.593.901-1.559.982-1.491 1.05-1.437 1.122-1.395 1.177-1.321 1.245-1.273 1.311L9.28 13.97l-1.13 1.406-1.069 1.48-.987 1.533-.926 1.56-.837 1.628-.77 1.668-.68 1.701-.607 1.75-.51 1.782-.43 1.815-.333 1.843-.245 1.877-.143 1.903-.048 1.93.048 1.944.143 1.924.245 1.876.334 1.87.429 1.816.51 1.789.606 1.755.681 1.715.77 1.675.837 1.627.926 1.574.987 1.534 1.07 1.473 1.13 1.425 1.198 1.373 1.273 1.311 1.32 1.251 1.396 1.184 1.437 1.116 1.491 1.056 1.56.982 1.592.915 1.648.82 1.695.767 1.736.673 1.77.591 1.819.512 1.838.416 1.886.33 1.906.242 1.94.141 1.968.054Z" fill="#E40520"/><path fill-rule="evenodd" clip-rule="evenodd" d="M59.797 14.702h20.248v-2.044H61.547l-1.75 2.044Zm-3.039 4.547h23.285v-2.045h-22.06l-1.225 2.045Zm-2.258 4.54h25.546v-2.045H55.399L54.5 23.79Zm-1.562 4.546h27.104v-2.044H53.584l-.647 2.044Zm.902 21.973h26.273v-2.045H53.2l.64 2.045Zm1.943 4.547H80.11V52.81H54.816l.967 2.044Zm2.725 4.539H80.11v-2.051H57.207l1.3 2.051Zm3.759 4.546h17.845v-2.057H60.45l1.818 2.058Zm-10.24-31.072h28.017v-2.044H52.43l-.402 2.044Zm17.075 12.907H79.79V43.73h-10.3l-.388 2.045Zm.851-4.533h9.838v-2.058h-9.45l-.388 2.058ZM51.32 39.184h2.778v2.058H51.45l-.13-2.058Z" fill="#FAB51D"/><path fill-rule="evenodd" clip-rule="evenodd" d="m46.138 36.702-.177-.007-.184-.027-.163-.027-.17-.026-.15-.027-.17-.02-.17-.027-.178-.027-.177-.027-.21-.014-.232-.006-.245-.014h-.266l-.3.014-.333.02-.374.027-.252.04-.245.034-.218.08-.198.074-.177.088-.17.1-.13.128-.115.115-.075.141-.061.141-.027.155v.148l.04.168.048.161.102.169.13.161.258.242.307.195.36.162.389.14.408.129.429.14.422.149.409.168.388.215.36.27.32.315.273.39.204.485.13.571.047.686-.047.8-.089.6-.157.517-.204.484-.259.417-.292.37-.34.316-.355.283-.402.242-.408.188-.429.169-.436.127-.45.101-.435.074-.429.04-.422.02-.402.014h-.551l-.51-.013h-.45l-.429-.007-.381-.013-.348-.027-.313-.027-.293-.04-.272-.02-.245-.055-.245-.04-.218-.06-.218-.054-.204-.074-.204-.074-.218-.081.579-2.805.115.027.136.034.184.054.218.053.232.048.258.053.28.06.313.055.32.047.333.054.348.04.36.034.375.013.368.014h.374l.374-.014.375-.074.293-.1.231-.142.184-.182.123-.174.108-.202.062-.202.054-.195.02-.37-.115-.316-.218-.256-.32-.215-.388-.188-.45-.189-.496-.181-.504-.202-.518-.229-.483-.269-.45-.33-.415-.39-.32-.484-.231-.571-.116-.686.014-.814.06-.498.09-.464.129-.437.156-.404.205-.383.231-.33.273-.316.32-.282.374-.235.409-.209.462-.188.518-.142.579-.114.626-.087.695-.054.762-.014h.477l.435.014.395.013.361.014.327.027.293.027.258.027.232.02.218.027.177.04.17.027.15.02.13.027.115.013.116.027.109.014-.66 2.865Z" fill="#fff"/><path d="m46.138 36.702-.177-.007-.184-.027-.163-.027-.17-.026-.15-.027-.17-.02-.17-.027-.178-.027-.177-.027-.21-.014-.232-.006-.245-.014h-.266l-.3.014-.333.02-.374.027-.252.04-.245.034-.218.08-.198.074-.177.088-.17.1-.13.128-.115.115-.075.141-.061.141-.027.155v.148l.04.168.048.161.102.169.13.161.258.242.307.195.36.162.389.14.408.129.429.14.422.149.409.168.388.215.36.27.32.315.273.39.204.485.13.571.047.686-.047.8-.089.6-.157.517-.204.484-.259.417-.292.37-.34.316-.355.283-.402.242-.408.188-.429.169-.436.127-.45.101-.435.074-.429.04-.422.02-.402.014h-.551l-.51-.013h-.45l-.429-.007-.381-.013-.348-.027-.313-.027-.293-.04-.272-.02-.245-.055-.245-.04-.218-.06-.218-.054-.204-.074-.204-.074-.218-.081.579-2.805.115.027.136.034.184.054.218.053.232.048.258.053.28.06.313.055.32.047.333.054.348.04.36.034.375.013.368.014h.374l.374-.014.375-.074.293-.1.231-.142.184-.182.123-.174.108-.202.062-.202.054-.195.02-.37-.115-.316-.218-.256-.32-.215-.388-.188-.45-.189-.496-.181-.504-.202-.518-.229-.483-.269-.45-.33-.415-.39-.32-.484-.231-.571-.116-.686.014-.814.06-.498.09-.464.129-.437.156-.404.205-.383.231-.33.273-.316.32-.282.374-.235.409-.209.462-.188.518-.142.579-.114.626-.087.695-.054.762-.014h.477l.435.014.395.013.361.014.327.027.293.027.258.027.232.02.218.027.177.04.17.027.15.02.13.027.115.013.116.027.109.014-.66 2.865Z" stroke="#fff" stroke-width=".22" stroke-miterlimit="2.61"/><path fill-rule="evenodd" clip-rule="evenodd" d="M49.189 30.696h3.56l-.53 3.074h2.151l-.463 2.871-2.26-.06-1.24 7.082-.013.256.068.215.13.168.163.141.231.088.26.074.278.053.313.02.28-.006.258-.027.232-.04.204-.047.17-.054.116-.04.075-.02.027-.014-.45 2.36-.088.061-.095.054-.089.054-.088.047-.089.04-.102.034-.115.04-.116.04-.13.034-.129.027-.156.027-.15.027-.17.027-.191.02-.204.027-.225.027h-.974l-.517-.04-.45-.048-.408-.08-.347-.088-.3-.114-.238-.128-.225-.148-.163-.168-.13-.175-.088-.222-.068-.215-.034-.242-.014-.263v-.282l.034-.29.041-.316 2.458-13.861Z" fill="#fff"/><path d="M49.189 30.696h3.56l-.53 3.074h2.151l-.463 2.871-2.26-.06-1.24 7.082-.013.256.068.215.13.168.163.141.231.088.26.074.278.053.313.02.28-.006.258-.027.232-.04.204-.047.17-.054.116-.04.075-.02.027-.014-.45 2.36-.088.061-.095.054-.089.054-.088.047-.089.04-.102.034-.115.04-.116.04-.13.034-.129.027-.156.027-.15.027-.17.027-.191.02-.204.027-.225.027h-.974l-.517-.04-.45-.048-.408-.08-.347-.088-.3-.114-.238-.128-.225-.148-.163-.168-.13-.175-.088-.222-.068-.215-.034-.242-.014-.263v-.282l.034-.29.041-.316 2.458-13.861Z" stroke="#fff" stroke-width=".22" stroke-miterlimit="2.61"/><path fill-rule="evenodd" clip-rule="evenodd" d="m57.209 41.43-.035.215-.013.229.02.242.055.242.088.242.102.229.143.242.157.215.177.216.197.188.205.195.231.148.232.141.258.114.252.088.259.054.334.047.32.04.34.04.334.02.333.014h.347l.334-.013.347-.02.348-.054.347-.06.36-.082.348-.114.36-.141.369-.148.36-.202.375-.215-.518 3.12-.204.102-.204.1-.204.081-.198.074-.19.06-.205.068-.204.047-.218.04-.231.04-.26.028-.272.02-.292.027-.334.013h-.347l-.402.014h-.422l-.633-.014-.64-.06-.647-.095-.64-.148-.633-.195-.6-.242-.578-.316-.545-.37-.497-.43-.442-.518-.368-.585-.313-.673-.218-.753-.143-.847-.034-.942.061-1.043.055-.403.075-.47.102-.499.143-.53.19-.546.232-.544.3-.565.36-.532.409-.504.504-.484.565-.43.64-.384.749-.316.837-.229.926-.155 1.042-.053.497.013.53.054.525.087.524.128.518.188.504.229.463.31.422.356.388.43.32.505.259.585.177.672.102.767.013.861-.088.968-.198 1.063-.06.774h-9.376l.592-2.502h5.63l.028-.316-.014-.303-.027-.283-.047-.248-.089-.242-.095-.216-.123-.195-.13-.175-.156-.154-.163-.128-.198-.114-.19-.101-.205-.074-.21-.054-.219-.034-.231-.027-.245.014-.232.033-.218.054-.217.074-.218.101-.19.114-.198.142-.164.154-.17.175-.15.195-.143.202-.115.215-.116.229-.089.255-.081.25-.048.268-.517 2.63Z" fill="#fff"/><path d="m57.209 41.43-.035.215-.013.229.02.242.055.242.088.242.102.229.143.242.157.215.177.216.197.188.205.195.231.148.232.141.258.114.252.088.259.054.334.047.32.04.34.04.334.02.333.014h.347l.334-.013.347-.02.348-.054.347-.06.36-.082.348-.114.36-.141.369-.148.36-.202.375-.215-.518 3.12-.204.102-.204.1-.204.081-.198.074-.19.06-.205.068-.204.047-.218.04-.231.04-.26.028-.272.02-.292.027-.334.013h-.347l-.402.014h-.422l-.633-.014-.64-.06-.647-.095-.64-.148-.633-.195-.6-.242-.578-.316-.545-.37-.497-.43-.442-.518-.368-.585-.313-.673-.218-.753-.143-.847-.034-.942.061-1.043.055-.403.075-.47.102-.499.143-.53.19-.546.232-.544.3-.565.36-.532.409-.504.504-.484.565-.43.64-.384.749-.316.837-.229.926-.155 1.042-.053.497.013.53.054.525.087.524.128.518.188.504.229.463.31.422.356.388.43.32.505.259.585.177.672.102.767.013.861-.088.968-.198 1.063-.06.774h-9.376l.592-2.502h5.63l.028-.316-.014-.303-.027-.283-.047-.248-.089-.242-.095-.216-.123-.195-.13-.175-.156-.154-.163-.128-.198-.114-.19-.101-.205-.074-.21-.054-.219-.034-.231-.027-.245.014-.232.033-.218.054-.217.074-.218.101-.19.114-.198.142-.164.154-.17.175-.15.195-.143.202-.115.215-.116.229-.089.255-.081.25-.048.268-.517 2.63Z" stroke="#fff" stroke-width=".22" stroke-miterlimit="2.61"/><path fill-rule="evenodd" clip-rule="evenodd" d="m87.882 34.536-.17-.094-.164-.074-.184-.087-.19-.088-.198-.08-.218-.074-.218-.074-.231-.081-.245-.06-.245-.054-.266-.048-.272-.04-.293-.027-.3-.027h-.952l-.333.027-.347.04-.355.061-.36.101-.361.141-.361.182-.361.228-.347.276-.334.33-.32.41-.313.47-.28.56-.272.631-.245.713-.204.814-.075.457-.054.444-.027.444.013.43.041.431.088.41.116.377.143.383.19.343.232.33.273.296.306.262.347.229.402.195.436.161.49.115.163.04.198.04.231.02.252.027.286.027h.62l.32-.027.333-.04.334-.06.32-.088.32-.1.327-.142.293-.168.272-.202.259-.229-.58 3.39-.08.067-.076.074-.102.088-.115.08-.144.101-.176.088-.212.087-.231.08-.293.088-.334.06-.388.055-.449.047-.504.027-.578.013-.654-.013-.722-.04-.592-.061-.586-.128-.592-.188-.592-.256-.566-.303-.544-.383-.51-.444-.477-.511-.422-.572-.361-.632-.313-.713-.232-.773-.15-.854-.054-.902.027-.988.143-1.056.102-.518.116-.511.13-.491.129-.471.136-.444.17-.444.17-.423.177-.39.19-.397.198-.37.218-.35.232-.336.231-.316.252-.303.259-.283.272-.262.293-.255.3-.243.306-.215.32-.202.347-.195.347-.161.361-.155.375-.141.401-.128.395-.1.416-.088.435-.074.436-.067.463-.047.463-.027.49-.014.409.014.401.027.382.033.388.054.36.054.348.074.333.06.307.081.3.074.258.074.238.08.212.075.176.06.157.054.116.054.075.02-.64 3.524Z" fill="#fff"/><path d="m87.882 34.536-.17-.094-.164-.074-.184-.087-.19-.088-.198-.08-.218-.074-.218-.074-.231-.081-.245-.06-.245-.054-.266-.048-.272-.04-.293-.027-.3-.027h-.952l-.333.027-.347.04-.355.061-.36.101-.361.141-.361.182-.361.228-.347.276-.334.33-.32.41-.313.47-.28.56-.272.631-.245.713-.204.814-.075.457-.054.444-.027.444.013.43.041.431.088.41.116.377.143.383.19.343.232.33.273.296.306.262.347.229.402.195.436.161.49.115.163.04.198.04.231.02.252.027.286.027h.62l.32-.027.333-.04.334-.06.32-.088.32-.1.327-.142.293-.168.272-.202.259-.229-.58 3.39-.08.067-.076.074-.102.088-.115.08-.144.101-.176.088-.212.087-.231.08-.293.088-.334.06-.388.055-.449.047-.504.027-.578.013-.654-.013-.722-.04-.592-.061-.586-.128-.592-.188-.592-.256-.566-.303-.544-.383-.51-.444-.477-.511-.422-.572-.361-.632-.313-.713-.232-.773-.15-.854-.054-.902.027-.988.143-1.056.102-.518.116-.511.13-.491.129-.471.136-.444.17-.444.17-.423.177-.39.19-.397.198-.37.218-.35.232-.336.231-.316.252-.303.259-.283.272-.262.293-.255.3-.243.306-.215.32-.202.347-.195.347-.161.361-.155.375-.141.401-.128.395-.1.416-.088.435-.074.436-.067.463-.047.463-.027.49-.014.409.014.401.027.382.033.388.054.36.054.348.074.333.06.307.081.3.074.258.074.238.08.212.075.176.06.157.054.116.054.075.02-.64 3.524Z" stroke="#fff" stroke-width=".22" stroke-miterlimit="2.61"/><path fill-rule="evenodd" clip-rule="evenodd" d="M119.533 47.376h-3.561l.259-1.413v-.128l-.205.256-.218.229-.217.201-.232.182-.231.161-.232.142-.231.114-.246.114-.245.088-.245.067-.245.06-.259.04-.252.041-.245.02-.258.014h-.259l-.667-.047-.62-.141-.565-.216-.511-.296-.463-.363-.415-.437-.361-.47-.306-.532-.259-.572-.204-.598-.143-.62-.102-.645-.041-.652.014-.66.068-.645.115-.652.191-.747.231-.713.273-.645.32-.612.333-.572.389-.505.394-.457.429-.424.45-.363.476-.323.484-.275.49-.216.517-.181.511-.115.517-.073.525-.027.374.013.361.04.334.06.306.088.3.101.258.121.252.135.232.141.204.155.197.161.164.168.156.162.13.168.116.161.102.155.075.155.905-4.99h3.493l-2.907 16.612Z" fill="#fff"/><path d="M119.533 47.376h-3.561l.259-1.413v-.128l-.205.256-.218.229-.217.201-.232.182-.231.161-.232.142-.231.114-.246.114-.245.088-.245.067-.245.06-.259.04-.252.041-.245.02-.258.014h-.259l-.667-.047-.62-.141-.565-.216-.511-.296-.463-.363-.415-.437-.361-.47-.306-.532-.259-.572-.204-.598-.143-.62-.102-.645-.041-.652.014-.66.068-.645.115-.652.191-.747.231-.713.273-.645.32-.612.333-.572.389-.505.394-.457.429-.424.45-.363.476-.323.484-.275.49-.216.517-.181.511-.115.517-.073.525-.027.374.013.361.04.334.06.306.088.3.101.258.121.252.135.232.141.204.155.197.161.164.168.156.162.13.168.116.161.102.155.075.155.905-4.99h3.493l-2.907 16.612Z" stroke="#fff" stroke-width=".22" stroke-miterlimit="2.61"/><path fill-rule="evenodd" clip-rule="evenodd" d="m113.713 44.302.361-.027.334-.074.306-.094.3-.135.265-.154.259-.189.245-.215.218-.229.191-.255.184-.283.163-.289.143-.302.129-.323.102-.33.089-.343.068-.343.061-.356.041-.363v-.343l-.013-.357-.041-.33-.048-.322-.089-.303-.108-.29-.123-.255-.157-.242-.17-.202-.19-.181-.218-.148-.232-.101-.245-.067-.272-.027-.347.027-.32.053-.293.101-.3.128-.259.161-.251.202-.218.222-.218.236-.198.282-.177.29-.17.309-.143.33-.122.342-.109.343-.102.37-.075.363-.062.559.021.612.095.625.163.592.259.525.334.417.422.282.517.101Z" fill="#FAB51D"/><path fill-rule="evenodd" clip-rule="evenodd" d="m34.749 44.557-.518 2.819h-3.24l.095-.525.061-.464.055-.356.047-.196-.177.209-.204.202-.245.188-.273.182-.306.175-.327.154-.333.148-.348.128-.367.114-.375.088-.374.08-.388.047-.368.027-.374.014-.361-.04-.348-.048-.449-.114-.415-.128-.354-.168-.327-.188-.28-.202-.258-.229-.204-.242-.184-.255-.15-.27-.13-.275-.101-.283-.082-.275-.048-.296-.04-.29-.028-.282v-.276l.041-.497.075-.471.13-.444.17-.43.204-.404.231-.37.273-.356.306-.317.32-.296.36-.262.375-.242.382-.208.415-.175.422-.142.436-.114.456-.074h.02l.069-.013.088-.014.143-.013.15-.02.184-.014.19-.027.218-.027.218-.026.225-.02.231-.014.204-.027.205-.014.19-.013.184-.013h.436l.306.013.286.014h.28l.23.013.185.013.13.014h.033l.027-.094.075-.229.068-.262.028-.242-.055-.283-.116-.249-.156-.228-.204-.195-.246-.162-.265-.114-.313-.08-.334-.021-.36-.014-.382-.013h-.402l-.408.013-.43.02-.408.041-.408.04-.402.047-.388.054-.368.06-.34.068-.306.06-.28.081-.231.074-.184.088-.143.074.912-3.06.286-.115.286-.1.307-.088.306-.06.313-.068.334-.047.334-.054.347-.027.36-.027.368-.006.388-.014h1.233l.449.014.456.006.354.027.388.067.402.088.409.114.401.148.381.182.389.215.36.242.32.276.286.31.252.342.198.377.13.41.074.43v.485l-.075.504-1.3 6.712Z" fill="#fff"/><path d="m34.749 44.557-.518 2.819h-3.24l.095-.525.061-.464.055-.356.047-.196-.177.209-.204.202-.245.188-.273.182-.306.175-.327.154-.333.148-.348.128-.367.114-.375.088-.374.08-.388.047-.368.027-.374.014-.361-.04-.348-.048-.449-.114-.415-.128-.354-.168-.327-.188-.28-.202-.258-.229-.204-.242-.184-.255-.15-.27-.13-.275-.101-.283-.082-.275-.048-.296-.04-.29-.028-.282v-.276l.041-.497.075-.471.13-.444.17-.43.204-.404.231-.37.273-.356.306-.317.32-.296.36-.262.375-.242.382-.208.415-.175.422-.142.436-.114.456-.074h.02l.069-.013.088-.014.143-.013.15-.02.184-.014.19-.027.218-.027.218-.026.225-.02.231-.014.204-.027.205-.014.19-.013.184-.013h.436l.306.013.286.014h.28l.23.013.185.013.13.014h.033l.027-.094.075-.229.068-.262.028-.242-.055-.283-.116-.249-.156-.228-.204-.195-.246-.162-.265-.114-.313-.08-.334-.021-.36-.014-.382-.013h-.402l-.408.013-.43.02-.408.041-.408.04-.402.047-.388.054-.368.06-.34.068-.306.06-.28.081-.231.074-.184.088-.143.074.912-3.06.286-.115.286-.1.307-.088.306-.06.313-.068.334-.047.334-.054.347-.027.36-.027.368-.006.388-.014h1.233l.449.014.456.006.354.027.388.067.402.088.409.114.401.148.381.182.389.215.36.242.32.276.286.31.252.342.198.377.13.41.074.43v.485l-.075.504-1.3 6.712Z" stroke="#fff" stroke-width=".22" stroke-miterlimit="2.61"/><path fill-rule="evenodd" clip-rule="evenodd" d="m31.647 41.242-.013-.067-.055-.061-.075-.04-.129-.027-.143-.02-.163-.014h-.388l-.205.014-.217.02-.212.027-.204.026-.19.027-.177.034-.157.04-.143.04-.089.02-.102.041-.143.054-.143.06-.163.075-.17.094-.177.087-.17.101-.177.128-.17.128-.157.148-.137.154-.129.168-.088.175-.082.202-.034.209-.014.43.062.343.129.249.17.195.19.128.219.074.204.04.204.014.388-.014.347-.04.334-.054.3-.074.252-.087.245-.115.218-.114.197-.141.163-.128.157-.148.13-.141.101-.155.089-.148.075-.155.068-.141.04-.141.103-.363.088-.424.075-.404.068-.33Z" fill="#E40520"/><path fill-rule="evenodd" clip-rule="evenodd" d="M7.691 47.376h-3.5l2.921-16.68h6.08l.586 9.893 4.2-9.893h6.353l-2.982 16.68h-3.5l2.213-12.463h-.143L14.69 47.376h-3.949l-.027-.525-.089-1.379-.115-1.97-.13-2.26-.129-2.273-.116-1.998-.088-1.446-.027-.612h-.191L7.69 47.376Z" fill="#fff"/><path d="M7.691 47.376h-3.5l2.921-16.68h6.08l.586 9.893 4.2-9.893h6.353l-2.982 16.68h-3.5l2.213-12.463h-.143L14.69 47.376h-3.949l-.027-.525-.089-1.379-.115-1.97-.13-2.26-.129-2.273-.116-1.998-.088-1.446-.027-.612h-.191L7.69 47.376Z" stroke="#fff" stroke-width=".22" stroke-miterlimit="2.61"/><path fill-rule="evenodd" clip-rule="evenodd" d="m98.563 44.557-.524 2.819h-3.227l.02-.525.014-.457v-.343l.027-.148-.163.188-.198.188-.231.182-.259.175-.265.168-.314.155-.32.148-.32.127-.347.101-.36.101-.362.067-.36.047-.368.027-.36.014-.348-.04-.347-.048-.463-.114-.416-.128-.36-.168-.334-.188-.28-.202-.244-.229-.205-.242-.183-.255-.15-.27-.116-.275-.109-.283-.061-.275-.055-.296-.034-.29-.027-.282v-.276l.027-.497.075-.471.116-.444.17-.43.19-.404.246-.37.272-.356.293-.317.334-.296.347-.262.374-.242.395-.208.402-.175.422-.142.429-.114.436-.074h.027l.061-.013.089-.014.13-.013.17-.02.176-.014.191-.027.211-.027.218-.026.231-.02.218-.014.218-.027.204-.014.184-.013.177-.013h.45l.313.013.293.014h.279l.245.013.21.013.117.014h.047l.028-.094.04-.229.034-.262.028-.242-.055-.283-.102-.249-.163-.228-.198-.195-.231-.162-.266-.114-.286-.08-.306-.021-.361-.014-.388-.013h-.395l-.415.013-.422.02-.409.041-.415.04-.395.047-.388.054-.375.06-.333.068-.307.06-.286.081-.231.074-.177.088-.143.074.899-3.06.285-.115.293-.1.3-.088.306-.06.32-.068.32-.047.334-.054.354-.027.354-.027.374-.006.375-.014h1.212l.436.014.435.006.361.027.388.067.395.088.409.114.401.148.402.182.381.215.361.242.32.276.3.31.258.342.191.377.143.41.089.43v.485l-.069.504-1.348 6.712Z" fill="#fff"/><path fill-rule="evenodd" clip-rule="evenodd" d="m98.039 47.463.075-.074.524-2.818-.15-.027-.531 2.818.082-.074v.175l.061-.013.014-.061-.075.074Z" fill="#fff"/><path fill-rule="evenodd" clip-rule="evenodd" d="m94.728 47.376.082.087h3.227v-.175H94.81l.075.088h-.157l-.013.087h.095l-.082-.087Z" fill="#fff"/><path fill-rule="evenodd" clip-rule="evenodd" d="m94.935 45.95-.11-.101-.054.202-.013.343v.457l-.027.525h.156l.027-.525.02-.457-.006-.343v-.101l-.116-.101.123.1Z" fill="#fff"/><path fill-rule="evenodd" clip-rule="evenodd" d="m89.938 47.577.36.054.348.034.36-.014.368-.02.375-.054.36-.06.361-.101.361-.108.32-.12.334-.155.306-.155.273-.175.272-.182.231-.175.205-.201.163-.195-.123-.101-.17.195-.177.175-.231.175-.245.181-.273.155-.306.148-.313.155-.32.127-.334.101-.36.101-.362.06-.347.055-.368.026-.36.014-.348-.04-.333-.054-.028.154Zm-3.114-3.847.014.276.02.282.041.303.055.296.06.276.103.296.116.289.17.269.177.262.204.242.259.242.3.202.333.209.368.161.429.128.463.114.027-.154-.463-.115-.402-.12-.347-.169-.334-.175-.272-.208-.231-.216-.205-.242-.177-.242-.143-.262-.115-.27-.103-.261-.068-.283-.047-.289-.041-.282-.027-.283.013-.276h-.177Z" fill="#fff"/><path fill-rule="evenodd" clip-rule="evenodd" d="m91.44 38.854-.449.074-.442.114-.423.142-.408.175-.402.201-.388.256-.347.269-.334.303-.306.316-.273.356-.251.383-.198.418-.163.43-.116.457-.082.485-.034.497h.177l.014-.497.075-.458.115-.43.17-.43.191-.398.232-.356.272-.356.286-.316.334-.276.347-.27.36-.228.396-.202.388-.181.422-.135.408-.114.43-.08v-.149Z" fill="#fff"/><path fill-rule="evenodd" clip-rule="evenodd" d="M94.09 38.585h-.143l-.177.027-.184.014-.204.013-.218.02-.218.014-.231.026-.218.027-.211.027-.191.02-.177.014-.17.027-.13.013-.102.014-.047.013h-.028v.148h.028l.075-.013.074-.007.13-.014.17-.026.177-.014.19-.027.212-.027.218-.02.231-.027.218-.013.218-.027.204-.014.184-.013h.32v-.175Zm1.736.141.075-.067h-.048l-.115-.013-.212-.007-.245-.027h-.571l-.313-.027h-.306v.175h.619l.293.027h.525l.21.013.116.014h.048l.075-.06-.075.06.068.013.007-.074-.15-.027Z" fill="#fff"/><path fill-rule="evenodd" clip-rule="evenodd" d="M95.954 37.913h-.014l-.014.242-.04.255-.035.229-.027.087.15.027.027-.094.041-.229.04-.275.035-.242h-.164Zm-1.532-1.258v.013l.293.014.272.074.259.114.218.155.177.175.156.215.102.229.055.269h.15l-.048-.296-.102-.276-.184-.242-.204-.202-.245-.182-.28-.114-.3-.074-.32-.04v.168Z" fill="#fff"/><path fill-rule="evenodd" clip-rule="evenodd" d="m88.91 37.267.13.074.122-.067.17-.088.218-.074.286-.074.306-.067.334-.06.375-.068.374-.047.395-.054.415-.04.409-.034.422-.027h1.198l.361.014V36.5l-.36-.013-.389-.02h-.395l-.415.02-.422.027-.409.04-.415.034-.395.053-.402.054-.374.06-.334.061-.306.067-.286.075-.245.08-.19.088-.157.087.129.074-.15-.02Z" fill="#fff"/><path fill-rule="evenodd" clip-rule="evenodd" d="m89.863 34.14-.054.06-.899 3.067.15.02.906-3.06-.055.067-.048-.154-.04.013-.014.047.054-.06Z" fill="#fff"/><path fill-rule="evenodd" clip-rule="evenodd" d="m95.582 33.554-.435-.027-.436-.013h-1.212l-.374.027-.375.013-.354.027-.354.027-.34.047-.327.054-.32.06-.307.068-.313.087-.293.101-.279.114.048.155.286-.114.293-.108.286-.087.306-.06.32-.068.32-.047.32-.054.354-.02.354-.027.375-.013h1.586l.436.013h.435v-.155Zm4.412 4.305.061-.518v-.484l-.088-.444-.143-.417-.204-.397-.26-.356-.306-.317-.32-.275-.374-.243-.388-.228-.409-.182-.401-.148-.422-.114-.402-.094-.395-.06-.361-.028v.155l.36.027.375.06.395.088.402.114.395.155.388.175.388.208.34.236.327.282.28.29.258.329.184.37.136.397.095.417v.484l-.068.498.157.02Zm-1.356 6.712 1.355-6.712-.157-.02-1.348 6.705.15.027Z" fill="#fff"/><path fill-rule="evenodd" clip-rule="evenodd" d="m95.451 41.242-.027-.081-.048-.06-.095-.04-.122-.035-.143-.013-.17-.013h-.191l-.19.013-.212.02-.204.027-.204.027-.191.027-.197.034-.164.026-.17.04-.13.028-.088.013-.102.034-.13.04-.142.047-.164.081-.156.074-.177.087-.17.115-.164.114-.17.141-.143.142-.143.161-.11.182-.094.188-.075.202-.041.222-.014.43.068.343.102.249.157.195.19.128.218.074.218.04.218.014.388-.014.361-.04.334-.06.293-.095.286-.1.245-.115.231-.128.204-.148.177-.141.157-.168.143-.148.116-.168.088-.148.061-.155.055-.155.04-.141.048-.35.068-.37.048-.356.027-.316Z" fill="#FAB51D"/><path fill-rule="evenodd" clip-rule="evenodd" d="m121.945 45.634.021-.29.102-.343.184-.309.218-.262.272-.215.306-.155.334-.101.361-.04.361.04.333.1.307.156.272.215.218.262.184.31.102.342.02.29h-.381l-.014-.229-.081-.276-.123-.255-.17-.216-.204-.181-.246-.128-.285-.087-.293-.027-.293.027-.286.087-.245.128-.204.181-.171.216-.129.255-.075.276-.027.229h-.368Z" fill="#fff"/><path fill-rule="evenodd" clip-rule="evenodd" d="M123.102 45.634v-.76h.701l.156.013.143.027.103.034.088.053.068.074.048.074.027.094.014.088-.014.114-.027.088-.034.074-.027.027h-.545l.054-.014.089-.013.082-.02.061-.027.054-.04.021-.041.027-.06v-.088l-.014-.067-.027-.047-.034-.027-.041-.027-.061-.014-.068-.006h-.524v.49h-.32Z" fill="#fff"/><path fill-rule="evenodd" clip-rule="evenodd" d="m121.943 45.634-.013.074.034.37.102.342.184.31.218.249.272.215.306.168.334.101.361.04.361-.04.333-.1.307-.169.272-.215.218-.25.184-.309.102-.343.034-.37-.014-.073h-.381l.014.074-.028.309-.081.276-.123.242-.17.215-.204.182-.246.14-.285.088-.293.027-.293-.027-.286-.087-.245-.141-.204-.182-.171-.215-.129-.242-.075-.276-.027-.31v-.073h-.368Z" fill="#fff"/><path fill-rule="evenodd" clip-rule="evenodd" d="M123.102 45.634v.773h.32v-.632h.32l.388.632h.252l-.382-.632h.089l.088-.027.082-.027.061-.047.028-.04h-.545l-.061.013h-.32v-.013h-.32Z" fill="#fff"/><path d="M123.421 46.407h-.32v-1.54h.708l.156.013.143.027.103.04.088.054.061.074.055.074.027.088.014.087-.014.115-.027.087-.041.074-.055.06-.061.054-.075.027-.088.027h-.089l.388.632h-.258l-.388-.632h-.32v.632m.32-.76.115-.026.089-.014.075-.027.061-.027.054-.04.028-.04.027-.061v-.087l-.014-.061-.027-.054-.041-.027-.041-.027-.061-.013-.061-.014h-.524v.505h.32m-1.818.08.041-.37.102-.342.177-.303.218-.269.272-.215.306-.155.334-.1.361-.041.361.04.333.101.307.155.272.215.218.269.177.303.102.343.041.37-.041.37-.102.342-.177.303-.218.256-.272.215-.307.168-.333.101-.361.04-.361-.04-.334-.1-.306-.169-.272-.215-.218-.256-.177-.303-.102-.343-.041-.37Zm1.818 1.46.292-.027.279-.087.246-.142.204-.181.17-.215.129-.242.075-.283.028-.303-.028-.302-.075-.283-.129-.255-.17-.215-.204-.175-.246-.128-.279-.088-.292-.026-.293.026-.286.088-.245.128-.205.175-.17.215-.129.255-.075.283-.027.302.027.303.075.283.129.242.17.215.205.181.245.142.286.087.293.027Z" stroke="#fff" stroke-width=".22" stroke-miterlimit="2.61"/><path fill-rule="evenodd" clip-rule="evenodd" d="M99.531 47.376h3.622l1.301-7.23.054-.276.075-.283.075-.276.102-.282.13-.276.156-.269.164-.255.211-.242.231-.216.252-.201.3-.189.333-.154.375-.128.408-.101.45-.074.503-.027h.32l.579-3.269-.361.027-.347.04-.32.061-.306.094-.286.101-.266.121-.259.142-.245.154-.231.175-.218.182-.204.201-.211.202-.191.215-.191.242-.197.23-.177.255.388-2.3h-3.615l-2.404 13.606Z" fill="#fff"/><path d="M99.531 47.376h3.622l1.301-7.23.054-.276.075-.283.075-.276.102-.282.13-.276.156-.269.164-.255.211-.242.231-.216.252-.201.3-.189.333-.154.375-.128.408-.101.45-.074.503-.027h.32l.579-3.269-.361.027-.347.04-.32.061-.306.094-.286.101-.266.121-.259.142-.245.154-.231.175-.218.182-.204.201-.211.202-.191.215-.191.242-.197.23-.177.255.388-2.3h-3.615l-2.404 13.606Z" stroke="#fff" stroke-width=".22" stroke-miterlimit="2.61"/><path fill-rule="evenodd" clip-rule="evenodd" d="M65.48 47.376h3.692l1.232-7.23.054-.276.062-.27.061-.268.095-.25.103-.255.129-.242.15-.229.183-.215.205-.195.231-.188.28-.148.313-.141.36-.115.395-.1.436-.068.504-.033h.04l.048.006.069.014h.06l.069.013.047.014.041.013h.014l.014-.054.034-.148.054-.228.061-.283.096-.33.088-.356.116-.356.116-.357.102-.235.13-.242.129-.242.129-.216.116-.195.088-.148.061-.087.028-.04H75.7l-.054-.014-.062-.013-.088-.014h-.089l-.102-.013-.095-.014h-.089l-.395.027-.36.04-.334.061-.313.08-.293.102-.272.127-.245.128-.232.148-.218.168-.204.189-.19.188-.198.215-.19.222-.178.242-.197.25-.19.255.462-2.3h-3.69L65.48 47.376Z" fill="#fff"/><path d="M65.48 47.376h3.692l1.232-7.23.054-.276.062-.27.061-.268.095-.25.103-.255.129-.242.15-.229.183-.215.205-.195.231-.188.28-.148.313-.141.36-.115.395-.1.436-.068.504-.033h.04l.048.006.069.014h.06l.069.013.047.014.041.013h.014l.014-.054.034-.148.054-.228.061-.283.096-.33.088-.356.116-.356.116-.357.102-.235.13-.242.129-.242.129-.216.116-.195.088-.148.061-.087.028-.04H75.7l-.054-.014-.062-.013-.088-.014h-.089l-.102-.013-.095-.014h-.089l-.395.027-.36.04-.334.061-.313.08-.293.102-.272.127-.245.128-.232.148-.218.168-.204.189-.19.188-.198.215-.19.222-.178.242-.197.25-.19.255.462-2.3h-3.69L65.48 47.376Z" stroke="#fff" stroke-width=".22" stroke-miterlimit="2.61"/><path fill-rule="evenodd" clip-rule="evenodd" d="M121.965 60.74v-.054l.102-.33.184-.29.218-.255.272-.201.306-.155.334-.088.361-.04.361.04.333.088.307.155.272.201.218.256.184.29.102.329v.053h-.375l-.081-.269-.123-.242-.17-.215-.204-.175-.245-.141-.286-.087-.293-.027-.293.027-.286.087-.245.141-.204.175-.17.215-.13.242-.075.27h-.374Z" fill="#FAB51D"/><path fill-rule="evenodd" clip-rule="evenodd" d="M123.102 60.74v-.444h.857l.143.02.103.027.088.053.068.061.048.074.027.094.014.114h-.259v-.067l-.014-.06-.027-.054-.034-.027-.041-.02-.061-.014-.068-.013h-.524v.255h-.32Zm-1.172.275.034-.276h.374v.014l-.027.262h-.381Z" fill="#FAB51D"/><path fill-rule="evenodd" clip-rule="evenodd" d="M123.102 61.015v-.276h.32v.25h.32l.115-.02.089-.014.082-.027.061-.027.054-.034.021-.04.027-.067v-.02h.259l-.014.087-.027.074-.034.067-.055.047h-1.218Zm2.07 0-.027-.262v-.014h.374l.034.276h-.381Zm-3.242 0v.04l.034.37.102.344.184.302.218.27.272.214.306.148.334.108.361.034.361-.034.333-.108.307-.148.272-.215.218-.269.184-.302.102-.343.034-.37v-.04h-.381v.04l-.028.302-.081.283-.123.242-.17.215-.204.175-.246.141-.285.088-.293.026-.293-.026-.286-.088-.245-.141-.204-.175-.171-.215-.129-.242-.075-.283-.027-.302v-.04h-.381Z" fill="#FAB51D"/><path fill-rule="evenodd" clip-rule="evenodd" d="M123.102 61.015v.74h.32v-.639h.32l.388.64h.252l-.382-.64h.089l.088-.02.082-.027.061-.054h-1.218Z" fill="#FAB51D"/></g><defs><clipPath id="a"><path fill="#fff" transform="translate(.5)" d="M0 0h128v76H0z"/></clipPath></defs></svg>