<svg width="281" height="50" fill="none" xmlns="http://www.w3.org/2000/svg"><g clip-path="url(#a)"><path d="M.023.167h48.622v24.976c0 6.405-3.335 12.31-8.769 15.524l-15.53 9.166-15.531-9.166C3.38 37.477.047 31.547.047 25.143V.167H.023Z" fill="#FFDD2D"/><path fill-rule="evenodd" clip-rule="evenodd" d="M13.363 13.31v7.761c1.05-1.19 2.939-2 5.084-2h2.355v9.024c0 2.405-.63 4.5-1.585 5.667H29.43c-.956-1.167-1.585-3.262-1.585-5.667v-9.024H30.2c2.169 0 4.058.81 5.084 2V13.31h-21.92Z" fill="#333"/><path d="M268.544 12.143v2.071c7.695.167 12.289 3.476 12.289 9.31 0 5.833-4.594 8.88-12.289 9.071v2.072h-6.086v-2.072c-7.649-.166-12.243-3.214-12.243-9.071 0-5.834 4.594-9.143 12.243-9.31v-2.071h6.086Zm-6.086 16.071v-9.571c-4.198.166-6.063 2.143-6.063 4.905 0 2.738 1.865 4.5 6.063 4.666Zm6.086-9.571v9.571c4.244-.166 6.063-1.928 6.063-4.69 0-2.738-1.796-4.715-6.063-4.881Zm-32.551-6.5v2.071c7.696.167 12.29 3.476 12.29 9.31 0 5.833-4.594 8.88-12.29 9.071v2.072h-6.086v-2.072c-7.649-.166-12.243-3.214-12.243-9.071 0-5.834 4.594-9.143 12.243-9.31v-2.071h6.086Zm-6.11 16.071v-9.571c-4.197.166-6.063 2.143-6.063 4.905.024 2.738 1.866 4.5 6.063 4.666Zm6.11-9.571v9.571c4.244-.166 6.063-1.928 6.063-4.69 0-2.738-1.819-4.715-6.063-4.881Zm-33.395-5.881c8.161 0 13.082 4.714 13.082 10.81 0 6.095-4.921 10.809-13.082 10.809-8.209 0-13.129-4.714-13.129-10.81.023-6.095 4.943-10.81 13.129-10.81Zm0 16.643c4.034 0 6.692-2.5 6.692-5.834 0-3.357-2.658-5.785-6.692-5.785-4.081 0-6.693 2.452-6.693 5.785 0 3.358 2.612 5.834 6.693 5.834Z" fill="#333"/><path d="M174.66 26.024h-1.679v7.738h-6.086V13.333h6.086v7.69h1.679l7.369-7.69h7.649l-9.748 9.762 10.144 10.643h-8.115l-7.299-7.714Zm-19.961 7.738H142.34V13.333h6.11v5.476h6.272c1.516 0 3.102.048 4.455.548 2.821 1.072 4.593 3.429 4.593 6.834 0 3.57-2.052 6.19-5.223 7.095-1.213.333-2.472.476-3.848.476Zm-1.073-10.143h-5.223v5.19h5.223c1.05 0 1.726 0 2.402-.309a2.596 2.596 0 0 0 1.563-2.405c0-1.024-.583-1.88-1.609-2.238-.7-.238-1.516-.238-2.356-.238Zm-22.011 2.524h-9.794v7.595h-6.087V13.31h6.087v7.476h9.794v-7.477h6.086v20.43h-6.086v-7.596Zm-36.427-.929 10.517-11.904h5.387v20.428h-6.087V21.833L94.488 33.738h-5.386V13.31h6.086v11.904Zm-17.279 8.548h-6.32V18.786h-8.675v-5.453H86.56v5.453h-8.651v14.976Z" fill="#333"/></g><defs><clipPath id="a"><path fill="#fff" d="M0 0h281v50H0z"/></clipPath></defs></svg>