<svg width="121" height="66" fill="none" xmlns="http://www.w3.org/2000/svg"><g clip-path="url(#a)" fill-rule="evenodd" clip-rule="evenodd"><path d="M9.046 65.805c24.528-10.358 58.941-19.74 104.511-10.345l.479-11.388C65.95 38.9 31.448 53.985 9.039 64.68v1.125h.007Z" fill="#F8AB10"/><path d="m34.695 35.768 10.63-34.522h9.482l-10.63 34.522h-9.482ZM30.457 1.253l-8.532 14.634c-2.173 3.832-3.438 5.772-4.053 8.19h-.13c.15-3.072-.287-6.843-.322-8.971l-.943-13.853H.507l-.163.929c4.101 0 6.535 2.027 7.205 6.182l3.11 27.41h9.824L40.35 1.26h-9.9l.007-.006Zm73.753 34.515-.26-5.132H92.11l-2.42 5.132H79.394l18.67-34.461h12.64l3.158 34.46h-9.652Zm-1.087-20.366c-.103-2.552-.192-6.014-.021-8.108h-.136c-.575 1.717-3.056 6.862-4.15 9.395l-3.527 7.57h8.312l-.485-8.85.007-.007ZM64.764 36.751c-6.692 0-11.136-2.094-14.315-3.96l4.519-6.795c2.85 1.57 5.086 3.38 10.227 3.38 1.654 0 3.247-.424 4.156-1.966 1.32-2.242-.307-3.455-4.006-5.522l-1.832-1.172c-5.49-3.697-7.868-7.206-5.284-13.342C59.883 3.454 64.245.478 71.443.478c4.963 0 9.618 2.115 12.332 4.182l-5.195 6.001c-2.646-2.108-4.84-3.172-7.349-3.172-2.003 0-3.52.761-4.047 1.785-.991 1.926.321 3.239 3.206 5.01l2.174 1.36c6.665 4.143 8.258 8.486 6.583 12.547-2.878 6.991-8.504 8.554-14.39 8.554l.007.006Zm51.69-30.164h-.622V2.842h1.443c.916 0 1.387.317 1.387 1.078 0 .68-.424.956-.991 1.023l1.066 1.644h-.704l-.984-1.603h-.588v1.603h-.007Zm.697-2.129c.465 0 .882-.047.882-.586 0-.45-.451-.505-.827-.505h-.752v1.091h.697Zm-.02 3.57c-1.976 0-3.377-1.455-3.377-3.381 0-2.034 1.559-3.38 3.377-3.38 1.818 0 3.357 1.346 3.357 3.38s-1.559 3.38-3.357 3.38Zm0-6.176c-1.483 0-2.646 1.145-2.646 2.795 0 1.535 1.012 2.795 2.646 2.795 1.47 0 2.625-1.138 2.625-2.795s-1.155-2.795-2.625-2.795Z" fill="#005597"/></g><defs><clipPath id="a"><path fill="#fff" d="M0 0h121v66H0z"/></clipPath></defs></svg>