<svg width="216" height="44" fill="none" xmlns="http://www.w3.org/2000/svg"><g clip-path="url(#a)"><path d="m208.59 8.692-7.37 8.373V8.692h-5.333v21.137h5.333V20.93l7.889 8.9h6.889l-9.703-11.076 9.001-10.062h-6.706Zm-22.106 7.883h-7.37V8.692h-5.337v21.137h5.337v-8.334h7.37v8.334h5.333V8.692h-5.333v7.883Z" fill="#EF3124"/><mask id="b" style="mask-type:luminance" maskUnits="userSpaceOnUse" x="0" y="0" width="216" height="44"><path d="M216 0H0v44h216V0Z" fill="#fff"/></mask><g mask="url(#b)" fill="#EF3124"><path d="M31.668 20.143c-.128 3.943-.629 4.73-2.816 4.73v4.956h.815c5.452 0 6.762-2.855 6.964-9.2l.222-7.02h5.11v16.22h5.334V8.692H32.04l-.371 11.45Zm28.887-5.032h-3.85v-6.42H51.37V29.83h9.258c5.817 0 7.89-3.829 7.89-7.435 0-4.656-2.891-7.285-7.964-7.285m-.404 10.06h-3.445V19.8h3.445c1.853 0 2.962.826 2.962 2.59 0 1.915-1.073 2.78-2.962 2.78ZM85.887 8.202V.355h-5.333v7.847c-6.11.526-10.222 4.92-10.222 11.039 0 6.12 4.112 10.552 10.222 11.078v7.962h5.333v-7.962c6.11-.487 10.222-4.92 10.222-11.078 0-6.158-4.112-10.552-10.222-11.04Zm-5.333 17.01c-2.962-.414-4.815-2.665-4.815-5.968s1.853-5.557 4.815-5.969v11.94-.002Zm5.333 0v-11.94c2.962.412 4.815 2.666 4.815 5.969 0 3.303-1.853 5.557-4.815 5.969m30.223-1.876v-7.096c0-5.18-3.258-8.448-8.74-8.448s-8.666 3.456-8.926 7.06h5.407c.184-.787.999-2.14 3.519-2.14 2.075 0 3.406.977 3.406 3.528h-5.297c-4.741 0-7.557 2.516-7.557 6.72 0 4.205 3.08 7.397 7.518 7.397 3.255 0 5.064-1.56 5.852-2.74.703 1.427 2.259 2.214 4.296 2.214h1.853v-4.88c-.964 0-1.334-.452-1.334-1.615m-5.334-1.388c0 2.44-1.704 3.829-3.925 3.829-1.927 0-3.445-.712-3.445-2.816s1.667-2.402 3.11-2.402h4.26v1.389Zm28.194-10.252h-5.962V5.725h13.815V.355h-19.406v29.474h11.556c6.407 0 10.074-3.228 10.074-9.16 0-5.594-3.667-8.975-10.074-8.975m-.258 12.803h-5.704v-7.66h5.704c2.962 0 4.631 1.388 4.631 3.829 0 2.44-1.666 3.828-4.631 3.828m30.734-1.16v-7.096c0-5.18-3.259-8.448-8.74-8.448-5.482 0-8.666 3.456-8.926 7.06h5.407c.184-.787.999-2.14 3.519-2.14 2.075 0 3.406.977 3.406 3.528h-5.297c-4.741 0-7.557 2.516-7.557 6.72 0 4.205 3.08 7.397 7.518 7.397 3.255 0 5.064-1.56 5.852-2.74.703 1.427 2.259 2.214 4.296 2.214h1.853v-4.88c-.964 0-1.334-.452-1.334-1.615m-5.334-1.388c0 2.44-1.704 3.829-3.925 3.829-1.927 0-3.445-.712-3.445-2.816s1.666-2.402 3.11-2.402h4.26v1.389ZM28.52 37.992H0V44h28.52v-6.008ZM19.446 4.4C18.63 1.942 17.693 0 14.483 0s-4.21 1.933-5.064 4.4L.594 29.83h5.852l2.037-6.045h11.259l1.889 6.044h6.222L19.446 4.4Zm-9.259 14.279 4-12.052h.148L18.11 18.68h-7.927.003Z"/></g></g><defs><clipPath id="a"><path fill="#fff" d="M0 0h216v44H0z"/></clipPath></defs></svg>